M48
; DRILL file {KiCad 9.0.6} date 2025-11-09T12:49:01-0800
; FORMAT={-:-/ absolute / metric / decimal}
; #@! TF.CreationDate,2025-11-09T12:49:01-08:00
; #@! TF.GenerationSoftware,Kicad,Pcbnew,9.0.6
; #@! TF.FileFunction,Plated,1,2,PTH
FMAT,2
METRIC
; #@! TA.AperFunction,Plated,PTH,ViaDrill
T1C0.300
; #@! TA.AperFunction,Plated,PTH,ComponentDrill
T2C1.000
%
G90
G05
T1
X133.5Y-107.0
X134.0Y-103.0
X135.0Y-101.5
X135.0Y-112.0
X136.5Y-85.0
X136.5Y-86.0
X136.5Y-116.5
X137.5Y-97.0
X138.0Y-108.0
X139.0Y-120.0
X139.5Y-86.0
X140.0Y-108.0
X140.1Y-102.5
X141.0Y-108.5
X142.0Y-108.0
X142.5Y-86.0
X143.5Y-108.0
X144.0Y-88.5
X144.5Y-113.5
X145.0Y-107.5
X146.0Y-87.5
X147.0Y-107.5
X147.0Y-118.0
X147.5Y-88.5
X149.5Y-88.0
X149.5Y-98.0
T2
X135.0Y-91.69
X135.0Y-94.23
X135.0Y-96.77
X135.0Y-99.31
X135.15Y-79.0
X137.69Y-79.0
X140.23Y-79.0
X142.77Y-79.0
X145.31Y-79.0
X147.85Y-79.0
M30
