%TF.GenerationSoftware,KiCad,Pcbnew,9.0.6*%
%TF.CreationDate,2025-11-09T12:48:56-08:00*%
%TF.ProjectId,storage_block,73746f72-6167-4655-9f62-6c6f636b2e6b,rev?*%
%TF.SameCoordinates,Original*%
%TF.FileFunction,Copper,L2,Bot*%
%TF.FilePolarity,Positive*%
%FSLAX46Y46*%
G04 Gerber Fmt 4.6, Leading zero omitted, Abs format (unit mm)*
G04 Created by KiCad (PCBNEW 9.0.6) date 2025-11-09 12:48:56*
%MOMM*%
%LPD*%
G01*
G04 APERTURE LIST*
%TA.AperFunction,ComponentPad*%
%ADD10R,1.700000X1.700000*%
%TD*%
%TA.AperFunction,ComponentPad*%
%ADD11C,1.700000*%
%TD*%
%TA.AperFunction,ViaPad*%
%ADD12C,0.600000*%
%TD*%
%TA.AperFunction,Conductor*%
%ADD13C,0.500000*%
%TD*%
%TA.AperFunction,Conductor*%
%ADD14C,0.200000*%
%TD*%
G04 APERTURE END LIST*
D10*
%TO.P,J3,1,Pin_1*%
%TO.N,/V3.3*%
X135000000Y-91690000D03*
D11*
%TO.P,J3,2,Pin_2*%
%TO.N,/DAT1*%
X135000000Y-94230000D03*
%TO.P,J3,3,Pin_3*%
%TO.N,/DAT2*%
X135000000Y-96770000D03*
%TO.P,J3,4,Pin_4*%
%TO.N,/COM*%
X135000000Y-99310000D03*
%TD*%
D10*
%TO.P,J2,1,Pin_1*%
%TO.N,/MOSI*%
X135150000Y-79000000D03*
D11*
%TO.P,J2,2,Pin_2*%
%TO.N,/MISO*%
X137690000Y-79000000D03*
%TO.P,J2,3,Pin_3*%
%TO.N,/SCK*%
X140230000Y-79000000D03*
%TO.P,J2,4,Pin_4*%
%TO.N,/CS*%
X142770000Y-79000000D03*
%TO.P,J2,5,Pin_5*%
%TO.N,/VCC*%
X145310000Y-79000000D03*
%TO.P,J2,6,Pin_6*%
%TO.N,GND*%
X147850000Y-79000000D03*
%TD*%
D12*
%TO.N,/V3.3*%
X141000000Y-108500000D03*
X140100000Y-102500000D03*
%TO.N,/COM*%
X135000000Y-101500000D03*
X135000000Y-112000000D03*
%TO.N,/DAT2*%
X137500000Y-97000000D03*
X144500000Y-113500000D03*
%TO.N,GND*%
X147000000Y-107500000D03*
X136500000Y-116500000D03*
X145000000Y-107500000D03*
X149500000Y-98000000D03*
X147500000Y-88500000D03*
X134000000Y-103000000D03*
X149500000Y-88000000D03*
X147000000Y-118000000D03*
X133500000Y-107000000D03*
X139000000Y-120000000D03*
%TO.N,/VCC*%
X146000000Y-87500000D03*
X144000000Y-88500000D03*
%TO.N,/MISO*%
X138000000Y-108000000D03*
X136500000Y-86000000D03*
%TO.N,/CS*%
X143500000Y-108000000D03*
X142500000Y-86000000D03*
%TO.N,/MOSI*%
X142000000Y-108000000D03*
X136500000Y-85000000D03*
%TO.N,/SCK*%
X139500000Y-86000000D03*
X140000000Y-108000000D03*
%TD*%
D13*
%TO.N,/V3.3*%
X141000000Y-107937925D02*
X141000000Y-108500000D01*
X140100000Y-102500000D02*
X140100000Y-107037925D01*
X140100000Y-107037925D02*
X141000000Y-107937925D01*
D14*
%TO.N,/COM*%
X135000000Y-101500000D02*
X135000000Y-112000000D01*
%TO.N,/DAT2*%
X137500000Y-97000000D02*
X137500000Y-106500000D01*
X137500000Y-106500000D02*
X144500000Y-113500000D01*
D13*
%TO.N,/VCC*%
X145000000Y-88500000D02*
X144000000Y-88500000D01*
X146000000Y-87500000D02*
X145000000Y-88500000D01*
D14*
%TO.N,/MISO*%
X136500000Y-86000000D02*
X136500000Y-106500000D01*
X136500000Y-106500000D02*
X138000000Y-108000000D01*
%TO.N,/CS*%
X142500000Y-107000000D02*
X143500000Y-108000000D01*
X142500000Y-86000000D02*
X142500000Y-107000000D01*
%TO.N,/MOSI*%
X141000000Y-107000000D02*
X142000000Y-108000000D01*
X141000000Y-86000000D02*
X141000000Y-107000000D01*
X136500000Y-85000000D02*
X140000000Y-85000000D01*
X140000000Y-85000000D02*
X141000000Y-86000000D01*
%TO.N,/SCK*%
X139500000Y-86000000D02*
X139500000Y-107500000D01*
X139500000Y-107500000D02*
X140000000Y-108000000D01*
%TD*%
%TA.AperFunction,Conductor*%
%TO.N,GND*%
G36*
X150442539Y-77020185D02*
G01*
X150488294Y-77072989D01*
X150499500Y-77124500D01*
X150499500Y-121375500D01*
X150479815Y-121442539D01*
X150427011Y-121488294D01*
X150375500Y-121499500D01*
X132624500Y-121499500D01*
X132557461Y-121479815D01*
X132511706Y-121427011D01*
X132500500Y-121375500D01*
X132500500Y-90792135D01*
X133649500Y-90792135D01*
X133649500Y-92587870D01*
X133649501Y-92587876D01*
X133655908Y-92647483D01*
X133706202Y-92782328D01*
X133706206Y-92782335D01*
X133792452Y-92897544D01*
X133792455Y-92897547D01*
X133907664Y-92983793D01*
X133907671Y-92983797D01*
X134039082Y-93032810D01*
X134095016Y-93074681D01*
X134119433Y-93140145D01*
X134104582Y-93208418D01*
X134083431Y-93236673D01*
X133969889Y-93350215D01*
X133844951Y-93522179D01*
X133748444Y-93711585D01*
X133682753Y-93913760D01*
X133649500Y-94123713D01*
X133649500Y-94336286D01*
X133682753Y-94546239D01*
X133748444Y-94748414D01*
X133844951Y-94937820D01*
X133969890Y-95109786D01*
X134120213Y-95260109D01*
X134292182Y-95385050D01*
X134300946Y-95389516D01*
X134351742Y-95437491D01*
X134368536Y-95505312D01*
X134345998Y-95571447D01*
X134300946Y-95610484D01*
X134292182Y-95614949D01*
X134120213Y-95739890D01*
X133969890Y-95890213D01*
X133844951Y-96062179D01*
X133748444Y-96251585D01*
X133682753Y-96453760D01*
X133649500Y-96663713D01*
X133649500Y-96876286D01*
X133681581Y-97078842D01*
X133682754Y-97086243D01*
X133730601Y-97233501D01*
X133748444Y-97288414D01*
X133844951Y-97477820D01*
X133969890Y-97649786D01*
X134120213Y-97800109D01*
X134292182Y-97925050D01*
X134300946Y-97929516D01*
X134351742Y-97977491D01*
X134368536Y-98045312D01*
X134345998Y-98111447D01*
X134300946Y-98150484D01*
X134292182Y-98154949D01*
X134120213Y-98279890D01*
X133969890Y-98430213D01*
X133844951Y-98602179D01*
X133748444Y-98791585D01*
X133682753Y-98993760D01*
X133649500Y-99203713D01*
X133649500Y-99416286D01*
X133682753Y-99626239D01*
X133748444Y-99828414D01*
X133844951Y-100017820D01*
X133969890Y-100189786D01*
X134120213Y-100340109D01*
X134292179Y-100465048D01*
X134292181Y-100465049D01*
X134292184Y-100465051D01*
X134481588Y-100561557D01*
X134562769Y-100587934D01*
X134620443Y-100627370D01*
X134647642Y-100691728D01*
X134635728Y-100760575D01*
X134593342Y-100808966D01*
X134489707Y-100878213D01*
X134378213Y-100989707D01*
X134378210Y-100989711D01*
X134290609Y-101120814D01*
X134290602Y-101120827D01*
X134230264Y-101266498D01*
X134230261Y-101266510D01*
X134199500Y-101421153D01*
X134199500Y-101578846D01*
X134230261Y-101733489D01*
X134230264Y-101733501D01*
X134290602Y-101879172D01*
X134290609Y-101879185D01*
X134378602Y-102010874D01*
X134399480Y-102077551D01*
X134399500Y-102079765D01*
X134399500Y-111420234D01*
X134379815Y-111487273D01*
X134378602Y-111489125D01*
X134290609Y-111620814D01*
X134290602Y-111620827D01*
X134230264Y-111766498D01*
X134230261Y-111766510D01*
X134199500Y-111921153D01*
X134199500Y-112078846D01*
X134230261Y-112233489D01*
X134230264Y-112233501D01*
X134290602Y-112379172D01*
X134290609Y-112379185D01*
X134378210Y-112510288D01*
X134378213Y-112510292D01*
X134489707Y-112621786D01*
X134489711Y-112621789D01*
X134620814Y-112709390D01*
X134620827Y-112709397D01*
X134766498Y-112769735D01*
X134766503Y-112769737D01*
X134921153Y-112800499D01*
X134921156Y-112800500D01*
X134921158Y-112800500D01*
X135078844Y-112800500D01*
X135078845Y-112800499D01*
X135233497Y-112769737D01*
X135379179Y-112709394D01*
X135510289Y-112621789D01*
X135621789Y-112510289D01*
X135709394Y-112379179D01*
X135769737Y-112233497D01*
X135800500Y-112078842D01*
X135800500Y-111921158D01*
X135800500Y-111921155D01*
X135800499Y-111921153D01*
X135769738Y-111766510D01*
X135769737Y-111766503D01*
X135769735Y-111766498D01*
X135709397Y-111620827D01*
X135709390Y-111620814D01*
X135621398Y-111489125D01*
X135600520Y-111422447D01*
X135600500Y-111420234D01*
X135600500Y-102079765D01*
X135605828Y-102061619D01*
X135606166Y-102042711D01*
X135619665Y-102014495D01*
X135620185Y-102012726D01*
X135621398Y-102010874D01*
X135672398Y-101934548D01*
X135726011Y-101889743D01*
X135795336Y-101881036D01*
X135858363Y-101911191D01*
X135895082Y-101970634D01*
X135899500Y-102003439D01*
X135899500Y-106413330D01*
X135899499Y-106413348D01*
X135899499Y-106579054D01*
X135899498Y-106579054D01*
X135940424Y-106731789D01*
X135940425Y-106731790D01*
X135961455Y-106768214D01*
X135961456Y-106768216D01*
X136019475Y-106868709D01*
X136019481Y-106868717D01*
X136138349Y-106987585D01*
X136138355Y-106987590D01*
X137165425Y-108014660D01*
X137198910Y-108075983D01*
X137199361Y-108078149D01*
X137230261Y-108233491D01*
X137230264Y-108233501D01*
X137290602Y-108379172D01*
X137290609Y-108379185D01*
X137378210Y-108510288D01*
X137378213Y-108510292D01*
X137489707Y-108621786D01*
X137489711Y-108621789D01*
X137620814Y-108709390D01*
X137620827Y-108709397D01*
X137756450Y-108765573D01*
X137766503Y-108769737D01*
X137921153Y-108800499D01*
X137921156Y-108800500D01*
X137921158Y-108800500D01*
X138078844Y-108800500D01*
X138078845Y-108800499D01*
X138233497Y-108769737D01*
X138379179Y-108709394D01*
X138510289Y-108621789D01*
X138553740Y-108578337D01*
X138615060Y-108544852D01*
X138684752Y-108549835D01*
X138729102Y-108578337D01*
X143665425Y-113514660D01*
X143698910Y-113575983D01*
X143699361Y-113578149D01*
X143730261Y-113733491D01*
X143730264Y-113733501D01*
X143790602Y-113879172D01*
X143790609Y-113879185D01*
X143878210Y-114010288D01*
X143878213Y-114010292D01*
X143989707Y-114121786D01*
X143989711Y-114121789D01*
X144120814Y-114209390D01*
X144120827Y-114209397D01*
X144266498Y-114269735D01*
X144266503Y-114269737D01*
X144421153Y-114300499D01*
X144421156Y-114300500D01*
X144421158Y-114300500D01*
X144578844Y-114300500D01*
X144578845Y-114300499D01*
X144733497Y-114269737D01*
X144879179Y-114209394D01*
X145010289Y-114121789D01*
X145121789Y-114010289D01*
X145209394Y-113879179D01*
X145269737Y-113733497D01*
X145300500Y-113578842D01*
X145300500Y-113421158D01*
X145300500Y-113421155D01*
X145300499Y-113421153D01*
X145269738Y-113266510D01*
X145269737Y-113266503D01*
X145269735Y-113266498D01*
X145209397Y-113120827D01*
X145209390Y-113120814D01*
X145121789Y-112989711D01*
X145121786Y-112989707D01*
X145010292Y-112878213D01*
X145010288Y-112878210D01*
X144879185Y-112790609D01*
X144879172Y-112790602D01*
X144733501Y-112730264D01*
X144733491Y-112730261D01*
X144578149Y-112699361D01*
X144516238Y-112666976D01*
X144514660Y-112665425D01*
X141283740Y-109434505D01*
X141250255Y-109373182D01*
X141255239Y-109303490D01*
X141297111Y-109247557D01*
X141323969Y-109232263D01*
X141379172Y-109209397D01*
X141379172Y-109209396D01*
X141379179Y-109209394D01*
X141510289Y-109121789D01*
X141621789Y-109010289D01*
X141709394Y-108879179D01*
X141716677Y-108861593D01*
X141760514Y-108807190D01*
X141826807Y-108785122D01*
X141855431Y-108787426D01*
X141921155Y-108800500D01*
X141921158Y-108800500D01*
X142078844Y-108800500D01*
X142078845Y-108800499D01*
X142233497Y-108769737D01*
X142379179Y-108709394D01*
X142510289Y-108621789D01*
X142621789Y-108510289D01*
X142637517Y-108486751D01*
X142646898Y-108472712D01*
X142700510Y-108427906D01*
X142769835Y-108419199D01*
X142832862Y-108449353D01*
X142853102Y-108472712D01*
X142878207Y-108510284D01*
X142878213Y-108510292D01*
X142989707Y-108621786D01*
X142989711Y-108621789D01*
X143120814Y-108709390D01*
X143120827Y-108709397D01*
X143256450Y-108765573D01*
X143266503Y-108769737D01*
X143421153Y-108800499D01*
X143421156Y-108800500D01*
X143421158Y-108800500D01*
X143578844Y-108800500D01*
X143578845Y-108800499D01*
X143733497Y-108769737D01*
X143879179Y-108709394D01*
X144010289Y-108621789D01*
X144121789Y-108510289D01*
X144209394Y-108379179D01*
X144269737Y-108233497D01*
X144300500Y-108078842D01*
X144300500Y-107921158D01*
X144300500Y-107921155D01*
X144300499Y-107921153D01*
X144269738Y-107766510D01*
X144269737Y-107766503D01*
X144269735Y-107766498D01*
X144209397Y-107620827D01*
X144209390Y-107620814D01*
X144121789Y-107489711D01*
X144121786Y-107489707D01*
X144010292Y-107378213D01*
X144010288Y-107378210D01*
X143879185Y-107290609D01*
X143879172Y-107290602D01*
X143733501Y-107230264D01*
X143733491Y-107230261D01*
X143578151Y-107199362D01*
X143516241Y-107166977D01*
X143514662Y-107165426D01*
X143136819Y-106787583D01*
X143103334Y-106726260D01*
X143100500Y-106699902D01*
X143100500Y-89003439D01*
X143120185Y-88936400D01*
X143172989Y-88890645D01*
X143242147Y-88880701D01*
X143305703Y-88909726D01*
X143327602Y-88934548D01*
X143378210Y-89010288D01*
X143378213Y-89010292D01*
X143489707Y-89121786D01*
X143489711Y-89121789D01*
X143620814Y-89209390D01*
X143620827Y-89209397D01*
X143720060Y-89250500D01*
X143766503Y-89269737D01*
X143921153Y-89300499D01*
X143921156Y-89300500D01*
X143921158Y-89300500D01*
X144078844Y-89300500D01*
X144078845Y-89300499D01*
X144155152Y-89285320D01*
X144233488Y-89269739D01*
X144233489Y-89269738D01*
X144233497Y-89269737D01*
X144257155Y-89259937D01*
X144304604Y-89250500D01*
X145073920Y-89250500D01*
X145171462Y-89231096D01*
X145218913Y-89221658D01*
X145355495Y-89165084D01*
X145420291Y-89121789D01*
X145420294Y-89121786D01*
X145420296Y-89121786D01*
X145449547Y-89102240D01*
X145478416Y-89082952D01*
X146315297Y-88246069D01*
X146355522Y-88219192D01*
X146379179Y-88209394D01*
X146510289Y-88121789D01*
X146621789Y-88010289D01*
X146709394Y-87879179D01*
X146769737Y-87733497D01*
X146800500Y-87578842D01*
X146800500Y-87421158D01*
X146800500Y-87421155D01*
X146800499Y-87421153D01*
X146769738Y-87266510D01*
X146769737Y-87266503D01*
X146719194Y-87144480D01*
X146709397Y-87120827D01*
X146709390Y-87120814D01*
X146621789Y-86989711D01*
X146621786Y-86989707D01*
X146510292Y-86878213D01*
X146510288Y-86878210D01*
X146379185Y-86790609D01*
X146379172Y-86790602D01*
X146233501Y-86730264D01*
X146233489Y-86730261D01*
X146078845Y-86699500D01*
X146078842Y-86699500D01*
X145921158Y-86699500D01*
X145921155Y-86699500D01*
X145766510Y-86730261D01*
X145766498Y-86730264D01*
X145620827Y-86790602D01*
X145620814Y-86790609D01*
X145489711Y-86878210D01*
X145489707Y-86878213D01*
X145378213Y-86989707D01*
X145378207Y-86989715D01*
X145290607Y-87120818D01*
X145290606Y-87120819D01*
X145280805Y-87144480D01*
X145253927Y-87184703D01*
X144725451Y-87713181D01*
X144664128Y-87746666D01*
X144637770Y-87749500D01*
X144304604Y-87749500D01*
X144257155Y-87740062D01*
X144233497Y-87730263D01*
X144233493Y-87730262D01*
X144233488Y-87730260D01*
X144078845Y-87699500D01*
X144078842Y-87699500D01*
X143921158Y-87699500D01*
X143921155Y-87699500D01*
X143766510Y-87730261D01*
X143766498Y-87730264D01*
X143620827Y-87790602D01*
X143620814Y-87790609D01*
X143489711Y-87878210D01*
X143489707Y-87878213D01*
X143378213Y-87989707D01*
X143378210Y-87989711D01*
X143327602Y-88065451D01*
X143273989Y-88110256D01*
X143204664Y-88118963D01*
X143141637Y-88088808D01*
X143104918Y-88029365D01*
X143100500Y-87996560D01*
X143100500Y-86579765D01*
X143120185Y-86512726D01*
X143121398Y-86510874D01*
X143148075Y-86470950D01*
X143209394Y-86379179D01*
X143269737Y-86233497D01*
X143300500Y-86078842D01*
X143300500Y-85921158D01*
X143300500Y-85921155D01*
X143300499Y-85921153D01*
X143273177Y-85783799D01*
X143269737Y-85766503D01*
X143266978Y-85759841D01*
X143209397Y-85620827D01*
X143209390Y-85620814D01*
X143121789Y-85489711D01*
X143121786Y-85489707D01*
X143010292Y-85378213D01*
X143010288Y-85378210D01*
X142879185Y-85290609D01*
X142879172Y-85290602D01*
X142733501Y-85230264D01*
X142733489Y-85230261D01*
X142578845Y-85199500D01*
X142578842Y-85199500D01*
X142421158Y-85199500D01*
X142421155Y-85199500D01*
X142266510Y-85230261D01*
X142266498Y-85230264D01*
X142120827Y-85290602D01*
X142120814Y-85290609D01*
X141989711Y-85378210D01*
X141989707Y-85378213D01*
X141878213Y-85489707D01*
X141878210Y-85489711D01*
X141790609Y-85620814D01*
X141790604Y-85620824D01*
X141754772Y-85707331D01*
X141710931Y-85761734D01*
X141644637Y-85783799D01*
X141576937Y-85766520D01*
X141532823Y-85721877D01*
X141524425Y-85707331D01*
X141480520Y-85631284D01*
X140487589Y-84638354D01*
X140487588Y-84638352D01*
X140368717Y-84519481D01*
X140368716Y-84519480D01*
X140281904Y-84469360D01*
X140281904Y-84469359D01*
X140281900Y-84469358D01*
X140231785Y-84440423D01*
X140079057Y-84399499D01*
X139920943Y-84399499D01*
X139913347Y-84399499D01*
X139913331Y-84399500D01*
X137079766Y-84399500D01*
X137012727Y-84379815D01*
X137010875Y-84378602D01*
X136879185Y-84290609D01*
X136879172Y-84290602D01*
X136733501Y-84230264D01*
X136733489Y-84230261D01*
X136578845Y-84199500D01*
X136578842Y-84199500D01*
X136421158Y-84199500D01*
X136421155Y-84199500D01*
X136266510Y-84230261D01*
X136266498Y-84230264D01*
X136120827Y-84290602D01*
X136120814Y-84290609D01*
X135989711Y-84378210D01*
X135989707Y-84378213D01*
X135878213Y-84489707D01*
X135878210Y-84489711D01*
X135790609Y-84620814D01*
X135790602Y-84620827D01*
X135730264Y-84766498D01*
X135730261Y-84766510D01*
X135699500Y-84921153D01*
X135699500Y-85078846D01*
X135730261Y-85233489D01*
X135730264Y-85233501D01*
X135790602Y-85379172D01*
X135790609Y-85379185D01*
X135825304Y-85431109D01*
X135846182Y-85497786D01*
X135827698Y-85565167D01*
X135825304Y-85568891D01*
X135790609Y-85620814D01*
X135790602Y-85620827D01*
X135730264Y-85766498D01*
X135730261Y-85766510D01*
X135699500Y-85921153D01*
X135699500Y-86078846D01*
X135730261Y-86233489D01*
X135730264Y-86233501D01*
X135790602Y-86379172D01*
X135790609Y-86379185D01*
X135878602Y-86510874D01*
X135899480Y-86577551D01*
X135899500Y-86579765D01*
X135899500Y-90215500D01*
X135879815Y-90282539D01*
X135827011Y-90328294D01*
X135775500Y-90339500D01*
X134102129Y-90339500D01*
X134102123Y-90339501D01*
X134042516Y-90345908D01*
X133907671Y-90396202D01*
X133907664Y-90396206D01*
X133792455Y-90482452D01*
X133792452Y-90482455D01*
X133706206Y-90597664D01*
X133706202Y-90597671D01*
X133655908Y-90732517D01*
X133649501Y-90792116D01*
X133649500Y-90792135D01*
X132500500Y-90792135D01*
X132500500Y-78102135D01*
X133799500Y-78102135D01*
X133799500Y-79897870D01*
X133799501Y-79897876D01*
X133805908Y-79957483D01*
X133856202Y-80092328D01*
X133856206Y-80092335D01*
X133942452Y-80207544D01*
X133942455Y-80207547D01*
X134057664Y-80293793D01*
X134057671Y-80293797D01*
X134192517Y-80344091D01*
X134192516Y-80344091D01*
X134199444Y-80344835D01*
X134252127Y-80350500D01*
X136047872Y-80350499D01*
X136107483Y-80344091D01*
X136242331Y-80293796D01*
X136357546Y-80207546D01*
X136443796Y-80092331D01*
X136492810Y-79960916D01*
X136534681Y-79904984D01*
X136600145Y-79880566D01*
X136668418Y-79895417D01*
X136696673Y-79916569D01*
X136810213Y-80030109D01*
X136982179Y-80155048D01*
X136982181Y-80155049D01*
X136982184Y-80155051D01*
X137171588Y-80251557D01*
X137373757Y-80317246D01*
X137583713Y-80350500D01*
X137583714Y-80350500D01*
X137796286Y-80350500D01*
X137796287Y-80350500D01*
X138006243Y-80317246D01*
X138208412Y-80251557D01*
X138397816Y-80155051D01*
X138484138Y-80092335D01*
X138569786Y-80030109D01*
X138569788Y-80030106D01*
X138569792Y-80030104D01*
X138720104Y-79879792D01*
X138720106Y-79879788D01*
X138720109Y-79879786D01*
X138845048Y-79707820D01*
X138845047Y-79707820D01*
X138845051Y-79707816D01*
X138849514Y-79699054D01*
X138897488Y-79648259D01*
X138965308Y-79631463D01*
X139031444Y-79653999D01*
X139070486Y-79699056D01*
X139074951Y-79707820D01*
X139199890Y-79879786D01*
X139350213Y-80030109D01*
X139522179Y-80155048D01*
X139522181Y-80155049D01*
X139522184Y-80155051D01*
X139711588Y-80251557D01*
X139913757Y-80317246D01*
X140123713Y-80350500D01*
X140123714Y-80350500D01*
X140336286Y-80350500D01*
X140336287Y-80350500D01*
X140546243Y-80317246D01*
X140748412Y-80251557D01*
X140937816Y-80155051D01*
X141024138Y-80092335D01*
X141109786Y-80030109D01*
X141109788Y-80030106D01*
X141109792Y-80030104D01*
X141260104Y-79879792D01*
X141260106Y-79879788D01*
X141260109Y-79879786D01*
X141385048Y-79707820D01*
X141385047Y-79707820D01*
X141385051Y-79707816D01*
X141389514Y-79699054D01*
X141437488Y-79648259D01*
X141505308Y-79631463D01*
X141571444Y-79653999D01*
X141610486Y-79699056D01*
X141614951Y-79707820D01*
X141739890Y-79879786D01*
X141890213Y-80030109D01*
X142062179Y-80155048D01*
X142062181Y-80155049D01*
X142062184Y-80155051D01*
X142251588Y-80251557D01*
X142453757Y-80317246D01*
X142663713Y-80350500D01*
X142663714Y-80350500D01*
X142876286Y-80350500D01*
X142876287Y-80350500D01*
X143086243Y-80317246D01*
X143288412Y-80251557D01*
X143477816Y-80155051D01*
X143564138Y-80092335D01*
X143649786Y-80030109D01*
X143649788Y-80030106D01*
X143649792Y-80030104D01*
X143800104Y-79879792D01*
X143800106Y-79879788D01*
X143800109Y-79879786D01*
X143925048Y-79707820D01*
X143925047Y-79707820D01*
X143925051Y-79707816D01*
X143929514Y-79699054D01*
X143977488Y-79648259D01*
X144045308Y-79631463D01*
X144111444Y-79653999D01*
X144150486Y-79699056D01*
X144154951Y-79707820D01*
X144279890Y-79879786D01*
X144430213Y-80030109D01*
X144602179Y-80155048D01*
X144602181Y-80155049D01*
X144602184Y-80155051D01*
X144791588Y-80251557D01*
X144993757Y-80317246D01*
X145203713Y-80350500D01*
X145203714Y-80350500D01*
X145416286Y-80350500D01*
X145416287Y-80350500D01*
X145626243Y-80317246D01*
X145828412Y-80251557D01*
X146017816Y-80155051D01*
X146104138Y-80092335D01*
X146189786Y-80030109D01*
X146189788Y-80030106D01*
X146189792Y-80030104D01*
X146340104Y-79879792D01*
X146340106Y-79879788D01*
X146340109Y-79879786D01*
X146425890Y-79761717D01*
X146465051Y-79707816D01*
X146469793Y-79698508D01*
X146517763Y-79647711D01*
X146585583Y-79630911D01*
X146651719Y-79653445D01*
X146690763Y-79698500D01*
X146695373Y-79707547D01*
X146734728Y-79761716D01*
X147367037Y-79129408D01*
X147384075Y-79192993D01*
X147449901Y-79307007D01*
X147542993Y-79400099D01*
X147657007Y-79465925D01*
X147720590Y-79482962D01*
X147088282Y-80115269D01*
X147088282Y-80115270D01*
X147142449Y-80154624D01*
X147331782Y-80251095D01*
X147533870Y-80316757D01*
X147743754Y-80350000D01*
X147956246Y-80350000D01*
X148166127Y-80316757D01*
X148166130Y-80316757D01*
X148368217Y-80251095D01*
X148557554Y-80154622D01*
X148611716Y-80115270D01*
X148611717Y-80115270D01*
X147979408Y-79482962D01*
X148042993Y-79465925D01*
X148157007Y-79400099D01*
X148250099Y-79307007D01*
X148315925Y-79192993D01*
X148332962Y-79129409D01*
X148965270Y-79761717D01*
X148965270Y-79761716D01*
X149004622Y-79707554D01*
X149101095Y-79518217D01*
X149166757Y-79316130D01*
X149166757Y-79316127D01*
X149200000Y-79106246D01*
X149200000Y-78893753D01*
X149166757Y-78683872D01*
X149166757Y-78683869D01*
X149101095Y-78481782D01*
X149004624Y-78292449D01*
X148965270Y-78238282D01*
X148965269Y-78238282D01*
X148332962Y-78870590D01*
X148315925Y-78807007D01*
X148250099Y-78692993D01*
X148157007Y-78599901D01*
X148042993Y-78534075D01*
X147979409Y-78517037D01*
X148611716Y-77884728D01*
X148557550Y-77845375D01*
X148368217Y-77748904D01*
X148166129Y-77683242D01*
X147956246Y-77650000D01*
X147743754Y-77650000D01*
X147533872Y-77683242D01*
X147533869Y-77683242D01*
X147331782Y-77748904D01*
X147142439Y-77845380D01*
X147088282Y-77884727D01*
X147088282Y-77884728D01*
X147720591Y-78517037D01*
X147657007Y-78534075D01*
X147542993Y-78599901D01*
X147449901Y-78692993D01*
X147384075Y-78807007D01*
X147367037Y-78870591D01*
X146734728Y-78238282D01*
X146734727Y-78238282D01*
X146695380Y-78292440D01*
X146695376Y-78292446D01*
X146690760Y-78301505D01*
X146642781Y-78352297D01*
X146574959Y-78369087D01*
X146508826Y-78346543D01*
X146469794Y-78301493D01*
X146465051Y-78292184D01*
X146465049Y-78292181D01*
X146465048Y-78292179D01*
X146340109Y-78120213D01*
X146189786Y-77969890D01*
X146017820Y-77844951D01*
X145828414Y-77748444D01*
X145828413Y-77748443D01*
X145828412Y-77748443D01*
X145626243Y-77682754D01*
X145626241Y-77682753D01*
X145626240Y-77682753D01*
X145464957Y-77657208D01*
X145416287Y-77649500D01*
X145203713Y-77649500D01*
X145155042Y-77657208D01*
X144993760Y-77682753D01*
X144791585Y-77748444D01*
X144602179Y-77844951D01*
X144430213Y-77969890D01*
X144279890Y-78120213D01*
X144154949Y-78292182D01*
X144150484Y-78300946D01*
X144102509Y-78351742D01*
X144034688Y-78368536D01*
X143968553Y-78345998D01*
X143929516Y-78300946D01*
X143925050Y-78292182D01*
X143800109Y-78120213D01*
X143649786Y-77969890D01*
X143477820Y-77844951D01*
X143288414Y-77748444D01*
X143288413Y-77748443D01*
X143288412Y-77748443D01*
X143086243Y-77682754D01*
X143086241Y-77682753D01*
X143086240Y-77682753D01*
X142924957Y-77657208D01*
X142876287Y-77649500D01*
X142663713Y-77649500D01*
X142615042Y-77657208D01*
X142453760Y-77682753D01*
X142251585Y-77748444D01*
X142062179Y-77844951D01*
X141890213Y-77969890D01*
X141739890Y-78120213D01*
X141614949Y-78292182D01*
X141610484Y-78300946D01*
X141562509Y-78351742D01*
X141494688Y-78368536D01*
X141428553Y-78345998D01*
X141389516Y-78300946D01*
X141385050Y-78292182D01*
X141260109Y-78120213D01*
X141109786Y-77969890D01*
X140937820Y-77844951D01*
X140748414Y-77748444D01*
X140748413Y-77748443D01*
X140748412Y-77748443D01*
X140546243Y-77682754D01*
X140546241Y-77682753D01*
X140546240Y-77682753D01*
X140384957Y-77657208D01*
X140336287Y-77649500D01*
X140123713Y-77649500D01*
X140075042Y-77657208D01*
X139913760Y-77682753D01*
X139711585Y-77748444D01*
X139522179Y-77844951D01*
X139350213Y-77969890D01*
X139199890Y-78120213D01*
X139074949Y-78292182D01*
X139070484Y-78300946D01*
X139022509Y-78351742D01*
X138954688Y-78368536D01*
X138888553Y-78345998D01*
X138849516Y-78300946D01*
X138845050Y-78292182D01*
X138720109Y-78120213D01*
X138569786Y-77969890D01*
X138397820Y-77844951D01*
X138208414Y-77748444D01*
X138208413Y-77748443D01*
X138208412Y-77748443D01*
X138006243Y-77682754D01*
X138006241Y-77682753D01*
X138006240Y-77682753D01*
X137844957Y-77657208D01*
X137796287Y-77649500D01*
X137583713Y-77649500D01*
X137535042Y-77657208D01*
X137373760Y-77682753D01*
X137171585Y-77748444D01*
X136982179Y-77844951D01*
X136810215Y-77969889D01*
X136696673Y-78083431D01*
X136635350Y-78116915D01*
X136565658Y-78111931D01*
X136509725Y-78070059D01*
X136492810Y-78039082D01*
X136443797Y-77907671D01*
X136443793Y-77907664D01*
X136357547Y-77792455D01*
X136357544Y-77792452D01*
X136242335Y-77706206D01*
X136242328Y-77706202D01*
X136107482Y-77655908D01*
X136107483Y-77655908D01*
X136047883Y-77649501D01*
X136047881Y-77649500D01*
X136047873Y-77649500D01*
X136047864Y-77649500D01*
X134252129Y-77649500D01*
X134252123Y-77649501D01*
X134192516Y-77655908D01*
X134057671Y-77706202D01*
X134057664Y-77706206D01*
X133942455Y-77792452D01*
X133942452Y-77792455D01*
X133856206Y-77907664D01*
X133856202Y-77907671D01*
X133805908Y-78042517D01*
X133799501Y-78102116D01*
X133799500Y-78102135D01*
X132500500Y-78102135D01*
X132500500Y-77124500D01*
X132520185Y-77057461D01*
X132572989Y-77011706D01*
X132624500Y-77000500D01*
X150375500Y-77000500D01*
X150442539Y-77020185D01*
G37*
%TD.AperFunction*%
%TD*%
M02*
