%TF.GenerationSoftware,KiCad,Pcbnew,9.0.7*%
%TF.CreationDate,2026-03-30T15:25:08-07:00*%
%TF.ProjectId,MEOW_System_Integration,4d454f57-5f53-4797-9374-656d5f496e74,rev?*%
%TF.SameCoordinates,Original*%
%TF.FileFunction,Legend,Bot*%
%TF.FilePolarity,Positive*%
%FSLAX46Y46*%
G04 Gerber Fmt 4.6, Leading zero omitted, Abs format (unit mm)*
G04 Created by KiCad (PCBNEW 9.0.7) date 2026-03-30 15:25:08*
%MOMM*%
%LPD*%
G01*
G04 APERTURE LIST*
%ADD10C,0.100000*%
%ADD11C,0.000000*%
G04 APERTURE END LIST*
D10*
X146296115Y-25642587D02*
X146296115Y-24642587D01*
X146296115Y-24642587D02*
X145962782Y-25356872D01*
X145962782Y-25356872D02*
X145629449Y-24642587D01*
X145629449Y-24642587D02*
X145629449Y-25642587D01*
X145153258Y-25118777D02*
X144819925Y-25118777D01*
X144677068Y-25642587D02*
X145153258Y-25642587D01*
X145153258Y-25642587D02*
X145153258Y-24642587D01*
X145153258Y-24642587D02*
X144677068Y-24642587D01*
X144058020Y-24642587D02*
X143867544Y-24642587D01*
X143867544Y-24642587D02*
X143772306Y-24690206D01*
X143772306Y-24690206D02*
X143677068Y-24785444D01*
X143677068Y-24785444D02*
X143629449Y-24975920D01*
X143629449Y-24975920D02*
X143629449Y-25309253D01*
X143629449Y-25309253D02*
X143677068Y-25499729D01*
X143677068Y-25499729D02*
X143772306Y-25594968D01*
X143772306Y-25594968D02*
X143867544Y-25642587D01*
X143867544Y-25642587D02*
X144058020Y-25642587D01*
X144058020Y-25642587D02*
X144153258Y-25594968D01*
X144153258Y-25594968D02*
X144248496Y-25499729D01*
X144248496Y-25499729D02*
X144296115Y-25309253D01*
X144296115Y-25309253D02*
X144296115Y-24975920D01*
X144296115Y-24975920D02*
X144248496Y-24785444D01*
X144248496Y-24785444D02*
X144153258Y-24690206D01*
X144153258Y-24690206D02*
X144058020Y-24642587D01*
X143296115Y-24642587D02*
X143058020Y-25642587D01*
X143058020Y-25642587D02*
X142867544Y-24928301D01*
X142867544Y-24928301D02*
X142677068Y-25642587D01*
X142677068Y-25642587D02*
X142438973Y-24642587D01*
X141296115Y-25642587D02*
X141296115Y-24642587D01*
X141296115Y-24642587D02*
X140915163Y-24642587D01*
X140915163Y-24642587D02*
X140819925Y-24690206D01*
X140819925Y-24690206D02*
X140772306Y-24737825D01*
X140772306Y-24737825D02*
X140724687Y-24833063D01*
X140724687Y-24833063D02*
X140724687Y-24975920D01*
X140724687Y-24975920D02*
X140772306Y-25071158D01*
X140772306Y-25071158D02*
X140819925Y-25118777D01*
X140819925Y-25118777D02*
X140915163Y-25166396D01*
X140915163Y-25166396D02*
X141296115Y-25166396D01*
X140296115Y-25642587D02*
X140296115Y-24975920D01*
X140296115Y-25166396D02*
X140248496Y-25071158D01*
X140248496Y-25071158D02*
X140200877Y-25023539D01*
X140200877Y-25023539D02*
X140105639Y-24975920D01*
X140105639Y-24975920D02*
X140010401Y-24975920D01*
X139534210Y-25642587D02*
X139629448Y-25594968D01*
X139629448Y-25594968D02*
X139677067Y-25547348D01*
X139677067Y-25547348D02*
X139724686Y-25452110D01*
X139724686Y-25452110D02*
X139724686Y-25166396D01*
X139724686Y-25166396D02*
X139677067Y-25071158D01*
X139677067Y-25071158D02*
X139629448Y-25023539D01*
X139629448Y-25023539D02*
X139534210Y-24975920D01*
X139534210Y-24975920D02*
X139391353Y-24975920D01*
X139391353Y-24975920D02*
X139296115Y-25023539D01*
X139296115Y-25023539D02*
X139248496Y-25071158D01*
X139248496Y-25071158D02*
X139200877Y-25166396D01*
X139200877Y-25166396D02*
X139200877Y-25452110D01*
X139200877Y-25452110D02*
X139248496Y-25547348D01*
X139248496Y-25547348D02*
X139296115Y-25594968D01*
X139296115Y-25594968D02*
X139391353Y-25642587D01*
X139391353Y-25642587D02*
X139534210Y-25642587D01*
X138772305Y-24975920D02*
X138772305Y-25833063D01*
X138772305Y-25833063D02*
X138819924Y-25928301D01*
X138819924Y-25928301D02*
X138915162Y-25975920D01*
X138915162Y-25975920D02*
X138962781Y-25975920D01*
X138772305Y-24642587D02*
X138819924Y-24690206D01*
X138819924Y-24690206D02*
X138772305Y-24737825D01*
X138772305Y-24737825D02*
X138724686Y-24690206D01*
X138724686Y-24690206D02*
X138772305Y-24642587D01*
X138772305Y-24642587D02*
X138772305Y-24737825D01*
X137915163Y-25594968D02*
X138010401Y-25642587D01*
X138010401Y-25642587D02*
X138200877Y-25642587D01*
X138200877Y-25642587D02*
X138296115Y-25594968D01*
X138296115Y-25594968D02*
X138343734Y-25499729D01*
X138343734Y-25499729D02*
X138343734Y-25118777D01*
X138343734Y-25118777D02*
X138296115Y-25023539D01*
X138296115Y-25023539D02*
X138200877Y-24975920D01*
X138200877Y-24975920D02*
X138010401Y-24975920D01*
X138010401Y-24975920D02*
X137915163Y-25023539D01*
X137915163Y-25023539D02*
X137867544Y-25118777D01*
X137867544Y-25118777D02*
X137867544Y-25214015D01*
X137867544Y-25214015D02*
X138343734Y-25309253D01*
X137010401Y-25594968D02*
X137105639Y-25642587D01*
X137105639Y-25642587D02*
X137296115Y-25642587D01*
X137296115Y-25642587D02*
X137391353Y-25594968D01*
X137391353Y-25594968D02*
X137438972Y-25547348D01*
X137438972Y-25547348D02*
X137486591Y-25452110D01*
X137486591Y-25452110D02*
X137486591Y-25166396D01*
X137486591Y-25166396D02*
X137438972Y-25071158D01*
X137438972Y-25071158D02*
X137391353Y-25023539D01*
X137391353Y-25023539D02*
X137296115Y-24975920D01*
X137296115Y-24975920D02*
X137105639Y-24975920D01*
X137105639Y-24975920D02*
X137010401Y-25023539D01*
X136724686Y-24975920D02*
X136343734Y-24975920D01*
X136581829Y-24642587D02*
X136581829Y-25499729D01*
X136581829Y-25499729D02*
X136534210Y-25594968D01*
X136534210Y-25594968D02*
X136438972Y-25642587D01*
X136438972Y-25642587D02*
X136343734Y-25642587D01*
X135296114Y-24737825D02*
X135248495Y-24690206D01*
X135248495Y-24690206D02*
X135153257Y-24642587D01*
X135153257Y-24642587D02*
X134915162Y-24642587D01*
X134915162Y-24642587D02*
X134819924Y-24690206D01*
X134819924Y-24690206D02*
X134772305Y-24737825D01*
X134772305Y-24737825D02*
X134724686Y-24833063D01*
X134724686Y-24833063D02*
X134724686Y-24928301D01*
X134724686Y-24928301D02*
X134772305Y-25071158D01*
X134772305Y-25071158D02*
X135343733Y-25642587D01*
X135343733Y-25642587D02*
X134724686Y-25642587D01*
X134105638Y-24642587D02*
X134010400Y-24642587D01*
X134010400Y-24642587D02*
X133915162Y-24690206D01*
X133915162Y-24690206D02*
X133867543Y-24737825D01*
X133867543Y-24737825D02*
X133819924Y-24833063D01*
X133819924Y-24833063D02*
X133772305Y-25023539D01*
X133772305Y-25023539D02*
X133772305Y-25261634D01*
X133772305Y-25261634D02*
X133819924Y-25452110D01*
X133819924Y-25452110D02*
X133867543Y-25547348D01*
X133867543Y-25547348D02*
X133915162Y-25594968D01*
X133915162Y-25594968D02*
X134010400Y-25642587D01*
X134010400Y-25642587D02*
X134105638Y-25642587D01*
X134105638Y-25642587D02*
X134200876Y-25594968D01*
X134200876Y-25594968D02*
X134248495Y-25547348D01*
X134248495Y-25547348D02*
X134296114Y-25452110D01*
X134296114Y-25452110D02*
X134343733Y-25261634D01*
X134343733Y-25261634D02*
X134343733Y-25023539D01*
X134343733Y-25023539D02*
X134296114Y-24833063D01*
X134296114Y-24833063D02*
X134248495Y-24737825D01*
X134248495Y-24737825D02*
X134200876Y-24690206D01*
X134200876Y-24690206D02*
X134105638Y-24642587D01*
X133391352Y-24737825D02*
X133343733Y-24690206D01*
X133343733Y-24690206D02*
X133248495Y-24642587D01*
X133248495Y-24642587D02*
X133010400Y-24642587D01*
X133010400Y-24642587D02*
X132915162Y-24690206D01*
X132915162Y-24690206D02*
X132867543Y-24737825D01*
X132867543Y-24737825D02*
X132819924Y-24833063D01*
X132819924Y-24833063D02*
X132819924Y-24928301D01*
X132819924Y-24928301D02*
X132867543Y-25071158D01*
X132867543Y-25071158D02*
X133438971Y-25642587D01*
X133438971Y-25642587D02*
X132819924Y-25642587D01*
X131962781Y-24642587D02*
X132153257Y-24642587D01*
X132153257Y-24642587D02*
X132248495Y-24690206D01*
X132248495Y-24690206D02*
X132296114Y-24737825D01*
X132296114Y-24737825D02*
X132391352Y-24880682D01*
X132391352Y-24880682D02*
X132438971Y-25071158D01*
X132438971Y-25071158D02*
X132438971Y-25452110D01*
X132438971Y-25452110D02*
X132391352Y-25547348D01*
X132391352Y-25547348D02*
X132343733Y-25594968D01*
X132343733Y-25594968D02*
X132248495Y-25642587D01*
X132248495Y-25642587D02*
X132058019Y-25642587D01*
X132058019Y-25642587D02*
X131962781Y-25594968D01*
X131962781Y-25594968D02*
X131915162Y-25547348D01*
X131915162Y-25547348D02*
X131867543Y-25452110D01*
X131867543Y-25452110D02*
X131867543Y-25214015D01*
X131867543Y-25214015D02*
X131915162Y-25118777D01*
X131915162Y-25118777D02*
X131962781Y-25071158D01*
X131962781Y-25071158D02*
X132058019Y-25023539D01*
X132058019Y-25023539D02*
X132248495Y-25023539D01*
X132248495Y-25023539D02*
X132343733Y-25071158D01*
X132343733Y-25071158D02*
X132391352Y-25118777D01*
X132391352Y-25118777D02*
X132438971Y-25214015D01*
X146343734Y-27204912D02*
X146200877Y-27252531D01*
X146200877Y-27252531D02*
X145962782Y-27252531D01*
X145962782Y-27252531D02*
X145867544Y-27204912D01*
X145867544Y-27204912D02*
X145819925Y-27157292D01*
X145819925Y-27157292D02*
X145772306Y-27062054D01*
X145772306Y-27062054D02*
X145772306Y-26966816D01*
X145772306Y-26966816D02*
X145819925Y-26871578D01*
X145819925Y-26871578D02*
X145867544Y-26823959D01*
X145867544Y-26823959D02*
X145962782Y-26776340D01*
X145962782Y-26776340D02*
X146153258Y-26728721D01*
X146153258Y-26728721D02*
X146248496Y-26681102D01*
X146248496Y-26681102D02*
X146296115Y-26633483D01*
X146296115Y-26633483D02*
X146343734Y-26538245D01*
X146343734Y-26538245D02*
X146343734Y-26443007D01*
X146343734Y-26443007D02*
X146296115Y-26347769D01*
X146296115Y-26347769D02*
X146248496Y-26300150D01*
X146248496Y-26300150D02*
X146153258Y-26252531D01*
X146153258Y-26252531D02*
X145915163Y-26252531D01*
X145915163Y-26252531D02*
X145772306Y-26300150D01*
X144962782Y-27204912D02*
X145058020Y-27252531D01*
X145058020Y-27252531D02*
X145248496Y-27252531D01*
X145248496Y-27252531D02*
X145343734Y-27204912D01*
X145343734Y-27204912D02*
X145391353Y-27109673D01*
X145391353Y-27109673D02*
X145391353Y-26728721D01*
X145391353Y-26728721D02*
X145343734Y-26633483D01*
X145343734Y-26633483D02*
X145248496Y-26585864D01*
X145248496Y-26585864D02*
X145058020Y-26585864D01*
X145058020Y-26585864D02*
X144962782Y-26633483D01*
X144962782Y-26633483D02*
X144915163Y-26728721D01*
X144915163Y-26728721D02*
X144915163Y-26823959D01*
X144915163Y-26823959D02*
X145391353Y-26919197D01*
X144486591Y-26585864D02*
X144486591Y-27252531D01*
X144486591Y-26681102D02*
X144438972Y-26633483D01*
X144438972Y-26633483D02*
X144343734Y-26585864D01*
X144343734Y-26585864D02*
X144200877Y-26585864D01*
X144200877Y-26585864D02*
X144105639Y-26633483D01*
X144105639Y-26633483D02*
X144058020Y-26728721D01*
X144058020Y-26728721D02*
X144058020Y-27252531D01*
X143581829Y-27252531D02*
X143581829Y-26585864D01*
X143581829Y-26252531D02*
X143629448Y-26300150D01*
X143629448Y-26300150D02*
X143581829Y-26347769D01*
X143581829Y-26347769D02*
X143534210Y-26300150D01*
X143534210Y-26300150D02*
X143581829Y-26252531D01*
X143581829Y-26252531D02*
X143581829Y-26347769D01*
X142962782Y-27252531D02*
X143058020Y-27204912D01*
X143058020Y-27204912D02*
X143105639Y-27157292D01*
X143105639Y-27157292D02*
X143153258Y-27062054D01*
X143153258Y-27062054D02*
X143153258Y-26776340D01*
X143153258Y-26776340D02*
X143105639Y-26681102D01*
X143105639Y-26681102D02*
X143058020Y-26633483D01*
X143058020Y-26633483D02*
X142962782Y-26585864D01*
X142962782Y-26585864D02*
X142819925Y-26585864D01*
X142819925Y-26585864D02*
X142724687Y-26633483D01*
X142724687Y-26633483D02*
X142677068Y-26681102D01*
X142677068Y-26681102D02*
X142629449Y-26776340D01*
X142629449Y-26776340D02*
X142629449Y-27062054D01*
X142629449Y-27062054D02*
X142677068Y-27157292D01*
X142677068Y-27157292D02*
X142724687Y-27204912D01*
X142724687Y-27204912D02*
X142819925Y-27252531D01*
X142819925Y-27252531D02*
X142962782Y-27252531D01*
X142200877Y-27252531D02*
X142200877Y-26585864D01*
X142200877Y-26776340D02*
X142153258Y-26681102D01*
X142153258Y-26681102D02*
X142105639Y-26633483D01*
X142105639Y-26633483D02*
X142010401Y-26585864D01*
X142010401Y-26585864D02*
X141915163Y-26585864D01*
X140819924Y-27252531D02*
X140819924Y-26252531D01*
X140819924Y-26252531D02*
X140581829Y-26252531D01*
X140581829Y-26252531D02*
X140438972Y-26300150D01*
X140438972Y-26300150D02*
X140343734Y-26395388D01*
X140343734Y-26395388D02*
X140296115Y-26490626D01*
X140296115Y-26490626D02*
X140248496Y-26681102D01*
X140248496Y-26681102D02*
X140248496Y-26823959D01*
X140248496Y-26823959D02*
X140296115Y-27014435D01*
X140296115Y-27014435D02*
X140343734Y-27109673D01*
X140343734Y-27109673D02*
X140438972Y-27204912D01*
X140438972Y-27204912D02*
X140581829Y-27252531D01*
X140581829Y-27252531D02*
X140819924Y-27252531D01*
X139438972Y-27204912D02*
X139534210Y-27252531D01*
X139534210Y-27252531D02*
X139724686Y-27252531D01*
X139724686Y-27252531D02*
X139819924Y-27204912D01*
X139819924Y-27204912D02*
X139867543Y-27109673D01*
X139867543Y-27109673D02*
X139867543Y-26728721D01*
X139867543Y-26728721D02*
X139819924Y-26633483D01*
X139819924Y-26633483D02*
X139724686Y-26585864D01*
X139724686Y-26585864D02*
X139534210Y-26585864D01*
X139534210Y-26585864D02*
X139438972Y-26633483D01*
X139438972Y-26633483D02*
X139391353Y-26728721D01*
X139391353Y-26728721D02*
X139391353Y-26823959D01*
X139391353Y-26823959D02*
X139867543Y-26919197D01*
X139010400Y-27204912D02*
X138915162Y-27252531D01*
X138915162Y-27252531D02*
X138724686Y-27252531D01*
X138724686Y-27252531D02*
X138629448Y-27204912D01*
X138629448Y-27204912D02*
X138581829Y-27109673D01*
X138581829Y-27109673D02*
X138581829Y-27062054D01*
X138581829Y-27062054D02*
X138629448Y-26966816D01*
X138629448Y-26966816D02*
X138724686Y-26919197D01*
X138724686Y-26919197D02*
X138867543Y-26919197D01*
X138867543Y-26919197D02*
X138962781Y-26871578D01*
X138962781Y-26871578D02*
X139010400Y-26776340D01*
X139010400Y-26776340D02*
X139010400Y-26728721D01*
X139010400Y-26728721D02*
X138962781Y-26633483D01*
X138962781Y-26633483D02*
X138867543Y-26585864D01*
X138867543Y-26585864D02*
X138724686Y-26585864D01*
X138724686Y-26585864D02*
X138629448Y-26633483D01*
X138153257Y-27252531D02*
X138153257Y-26585864D01*
X138153257Y-26252531D02*
X138200876Y-26300150D01*
X138200876Y-26300150D02*
X138153257Y-26347769D01*
X138153257Y-26347769D02*
X138105638Y-26300150D01*
X138105638Y-26300150D02*
X138153257Y-26252531D01*
X138153257Y-26252531D02*
X138153257Y-26347769D01*
X137248496Y-26585864D02*
X137248496Y-27395388D01*
X137248496Y-27395388D02*
X137296115Y-27490626D01*
X137296115Y-27490626D02*
X137343734Y-27538245D01*
X137343734Y-27538245D02*
X137438972Y-27585864D01*
X137438972Y-27585864D02*
X137581829Y-27585864D01*
X137581829Y-27585864D02*
X137677067Y-27538245D01*
X137248496Y-27204912D02*
X137343734Y-27252531D01*
X137343734Y-27252531D02*
X137534210Y-27252531D01*
X137534210Y-27252531D02*
X137629448Y-27204912D01*
X137629448Y-27204912D02*
X137677067Y-27157292D01*
X137677067Y-27157292D02*
X137724686Y-27062054D01*
X137724686Y-27062054D02*
X137724686Y-26776340D01*
X137724686Y-26776340D02*
X137677067Y-26681102D01*
X137677067Y-26681102D02*
X137629448Y-26633483D01*
X137629448Y-26633483D02*
X137534210Y-26585864D01*
X137534210Y-26585864D02*
X137343734Y-26585864D01*
X137343734Y-26585864D02*
X137248496Y-26633483D01*
X136772305Y-26585864D02*
X136772305Y-27252531D01*
X136772305Y-26681102D02*
X136724686Y-26633483D01*
X136724686Y-26633483D02*
X136629448Y-26585864D01*
X136629448Y-26585864D02*
X136486591Y-26585864D01*
X136486591Y-26585864D02*
X136391353Y-26633483D01*
X136391353Y-26633483D02*
X136343734Y-26728721D01*
X136343734Y-26728721D02*
X136343734Y-27252531D01*
X134534210Y-27157292D02*
X134581829Y-27204912D01*
X134581829Y-27204912D02*
X134724686Y-27252531D01*
X134724686Y-27252531D02*
X134819924Y-27252531D01*
X134819924Y-27252531D02*
X134962781Y-27204912D01*
X134962781Y-27204912D02*
X135058019Y-27109673D01*
X135058019Y-27109673D02*
X135105638Y-27014435D01*
X135105638Y-27014435D02*
X135153257Y-26823959D01*
X135153257Y-26823959D02*
X135153257Y-26681102D01*
X135153257Y-26681102D02*
X135105638Y-26490626D01*
X135105638Y-26490626D02*
X135058019Y-26395388D01*
X135058019Y-26395388D02*
X134962781Y-26300150D01*
X134962781Y-26300150D02*
X134819924Y-26252531D01*
X134819924Y-26252531D02*
X134724686Y-26252531D01*
X134724686Y-26252531D02*
X134581829Y-26300150D01*
X134581829Y-26300150D02*
X134534210Y-26347769D01*
X133677067Y-27252531D02*
X133677067Y-26728721D01*
X133677067Y-26728721D02*
X133724686Y-26633483D01*
X133724686Y-26633483D02*
X133819924Y-26585864D01*
X133819924Y-26585864D02*
X134010400Y-26585864D01*
X134010400Y-26585864D02*
X134105638Y-26633483D01*
X133677067Y-27204912D02*
X133772305Y-27252531D01*
X133772305Y-27252531D02*
X134010400Y-27252531D01*
X134010400Y-27252531D02*
X134105638Y-27204912D01*
X134105638Y-27204912D02*
X134153257Y-27109673D01*
X134153257Y-27109673D02*
X134153257Y-27014435D01*
X134153257Y-27014435D02*
X134105638Y-26919197D01*
X134105638Y-26919197D02*
X134010400Y-26871578D01*
X134010400Y-26871578D02*
X133772305Y-26871578D01*
X133772305Y-26871578D02*
X133677067Y-26823959D01*
X133200876Y-26585864D02*
X133200876Y-27585864D01*
X133200876Y-26633483D02*
X133105638Y-26585864D01*
X133105638Y-26585864D02*
X132915162Y-26585864D01*
X132915162Y-26585864D02*
X132819924Y-26633483D01*
X132819924Y-26633483D02*
X132772305Y-26681102D01*
X132772305Y-26681102D02*
X132724686Y-26776340D01*
X132724686Y-26776340D02*
X132724686Y-27062054D01*
X132724686Y-27062054D02*
X132772305Y-27157292D01*
X132772305Y-27157292D02*
X132819924Y-27204912D01*
X132819924Y-27204912D02*
X132915162Y-27252531D01*
X132915162Y-27252531D02*
X133105638Y-27252531D01*
X133105638Y-27252531D02*
X133200876Y-27204912D01*
X132343733Y-27204912D02*
X132248495Y-27252531D01*
X132248495Y-27252531D02*
X132058019Y-27252531D01*
X132058019Y-27252531D02*
X131962781Y-27204912D01*
X131962781Y-27204912D02*
X131915162Y-27109673D01*
X131915162Y-27109673D02*
X131915162Y-27062054D01*
X131915162Y-27062054D02*
X131962781Y-26966816D01*
X131962781Y-26966816D02*
X132058019Y-26919197D01*
X132058019Y-26919197D02*
X132200876Y-26919197D01*
X132200876Y-26919197D02*
X132296114Y-26871578D01*
X132296114Y-26871578D02*
X132343733Y-26776340D01*
X132343733Y-26776340D02*
X132343733Y-26728721D01*
X132343733Y-26728721D02*
X132296114Y-26633483D01*
X132296114Y-26633483D02*
X132200876Y-26585864D01*
X132200876Y-26585864D02*
X132058019Y-26585864D01*
X132058019Y-26585864D02*
X131962781Y-26633483D01*
X131629447Y-26585864D02*
X131248495Y-26585864D01*
X131486590Y-26252531D02*
X131486590Y-27109673D01*
X131486590Y-27109673D02*
X131438971Y-27204912D01*
X131438971Y-27204912D02*
X131343733Y-27252531D01*
X131343733Y-27252531D02*
X131248495Y-27252531D01*
X130772304Y-27252531D02*
X130867542Y-27204912D01*
X130867542Y-27204912D02*
X130915161Y-27157292D01*
X130915161Y-27157292D02*
X130962780Y-27062054D01*
X130962780Y-27062054D02*
X130962780Y-26776340D01*
X130962780Y-26776340D02*
X130915161Y-26681102D01*
X130915161Y-26681102D02*
X130867542Y-26633483D01*
X130867542Y-26633483D02*
X130772304Y-26585864D01*
X130772304Y-26585864D02*
X130629447Y-26585864D01*
X130629447Y-26585864D02*
X130534209Y-26633483D01*
X130534209Y-26633483D02*
X130486590Y-26681102D01*
X130486590Y-26681102D02*
X130438971Y-26776340D01*
X130438971Y-26776340D02*
X130438971Y-27062054D01*
X130438971Y-27062054D02*
X130486590Y-27157292D01*
X130486590Y-27157292D02*
X130534209Y-27204912D01*
X130534209Y-27204912D02*
X130629447Y-27252531D01*
X130629447Y-27252531D02*
X130772304Y-27252531D01*
X130010399Y-26585864D02*
X130010399Y-27252531D01*
X130010399Y-26681102D02*
X129962780Y-26633483D01*
X129962780Y-26633483D02*
X129867542Y-26585864D01*
X129867542Y-26585864D02*
X129724685Y-26585864D01*
X129724685Y-26585864D02*
X129629447Y-26633483D01*
X129629447Y-26633483D02*
X129581828Y-26728721D01*
X129581828Y-26728721D02*
X129581828Y-27252531D01*
X128724685Y-27204912D02*
X128819923Y-27252531D01*
X128819923Y-27252531D02*
X129010399Y-27252531D01*
X129010399Y-27252531D02*
X129105637Y-27204912D01*
X129105637Y-27204912D02*
X129153256Y-27109673D01*
X129153256Y-27109673D02*
X129153256Y-26728721D01*
X129153256Y-26728721D02*
X129105637Y-26633483D01*
X129105637Y-26633483D02*
X129010399Y-26585864D01*
X129010399Y-26585864D02*
X128819923Y-26585864D01*
X128819923Y-26585864D02*
X128724685Y-26633483D01*
X128724685Y-26633483D02*
X128677066Y-26728721D01*
X128677066Y-26728721D02*
X128677066Y-26823959D01*
X128677066Y-26823959D02*
X129153256Y-26919197D01*
X146296115Y-28862475D02*
X146296115Y-27862475D01*
X146296115Y-27862475D02*
X146058020Y-27862475D01*
X146058020Y-27862475D02*
X145915163Y-27910094D01*
X145915163Y-27910094D02*
X145819925Y-28005332D01*
X145819925Y-28005332D02*
X145772306Y-28100570D01*
X145772306Y-28100570D02*
X145724687Y-28291046D01*
X145724687Y-28291046D02*
X145724687Y-28433903D01*
X145724687Y-28433903D02*
X145772306Y-28624379D01*
X145772306Y-28624379D02*
X145819925Y-28719617D01*
X145819925Y-28719617D02*
X145915163Y-28814856D01*
X145915163Y-28814856D02*
X146058020Y-28862475D01*
X146058020Y-28862475D02*
X146296115Y-28862475D01*
X144915163Y-28814856D02*
X145010401Y-28862475D01*
X145010401Y-28862475D02*
X145200877Y-28862475D01*
X145200877Y-28862475D02*
X145296115Y-28814856D01*
X145296115Y-28814856D02*
X145343734Y-28719617D01*
X145343734Y-28719617D02*
X145343734Y-28338665D01*
X145343734Y-28338665D02*
X145296115Y-28243427D01*
X145296115Y-28243427D02*
X145200877Y-28195808D01*
X145200877Y-28195808D02*
X145010401Y-28195808D01*
X145010401Y-28195808D02*
X144915163Y-28243427D01*
X144915163Y-28243427D02*
X144867544Y-28338665D01*
X144867544Y-28338665D02*
X144867544Y-28433903D01*
X144867544Y-28433903D02*
X145343734Y-28529141D01*
X144486591Y-28814856D02*
X144391353Y-28862475D01*
X144391353Y-28862475D02*
X144200877Y-28862475D01*
X144200877Y-28862475D02*
X144105639Y-28814856D01*
X144105639Y-28814856D02*
X144058020Y-28719617D01*
X144058020Y-28719617D02*
X144058020Y-28671998D01*
X144058020Y-28671998D02*
X144105639Y-28576760D01*
X144105639Y-28576760D02*
X144200877Y-28529141D01*
X144200877Y-28529141D02*
X144343734Y-28529141D01*
X144343734Y-28529141D02*
X144438972Y-28481522D01*
X144438972Y-28481522D02*
X144486591Y-28386284D01*
X144486591Y-28386284D02*
X144486591Y-28338665D01*
X144486591Y-28338665D02*
X144438972Y-28243427D01*
X144438972Y-28243427D02*
X144343734Y-28195808D01*
X144343734Y-28195808D02*
X144200877Y-28195808D01*
X144200877Y-28195808D02*
X144105639Y-28243427D01*
X143629448Y-28862475D02*
X143629448Y-28195808D01*
X143629448Y-27862475D02*
X143677067Y-27910094D01*
X143677067Y-27910094D02*
X143629448Y-27957713D01*
X143629448Y-27957713D02*
X143581829Y-27910094D01*
X143581829Y-27910094D02*
X143629448Y-27862475D01*
X143629448Y-27862475D02*
X143629448Y-27957713D01*
X142724687Y-28195808D02*
X142724687Y-29005332D01*
X142724687Y-29005332D02*
X142772306Y-29100570D01*
X142772306Y-29100570D02*
X142819925Y-29148189D01*
X142819925Y-29148189D02*
X142915163Y-29195808D01*
X142915163Y-29195808D02*
X143058020Y-29195808D01*
X143058020Y-29195808D02*
X143153258Y-29148189D01*
X142724687Y-28814856D02*
X142819925Y-28862475D01*
X142819925Y-28862475D02*
X143010401Y-28862475D01*
X143010401Y-28862475D02*
X143105639Y-28814856D01*
X143105639Y-28814856D02*
X143153258Y-28767236D01*
X143153258Y-28767236D02*
X143200877Y-28671998D01*
X143200877Y-28671998D02*
X143200877Y-28386284D01*
X143200877Y-28386284D02*
X143153258Y-28291046D01*
X143153258Y-28291046D02*
X143105639Y-28243427D01*
X143105639Y-28243427D02*
X143010401Y-28195808D01*
X143010401Y-28195808D02*
X142819925Y-28195808D01*
X142819925Y-28195808D02*
X142724687Y-28243427D01*
X142248496Y-28195808D02*
X142248496Y-28862475D01*
X142248496Y-28291046D02*
X142200877Y-28243427D01*
X142200877Y-28243427D02*
X142105639Y-28195808D01*
X142105639Y-28195808D02*
X141962782Y-28195808D01*
X141962782Y-28195808D02*
X141867544Y-28243427D01*
X141867544Y-28243427D02*
X141819925Y-28338665D01*
X141819925Y-28338665D02*
X141819925Y-28862475D01*
X140962782Y-28814856D02*
X141058020Y-28862475D01*
X141058020Y-28862475D02*
X141248496Y-28862475D01*
X141248496Y-28862475D02*
X141343734Y-28814856D01*
X141343734Y-28814856D02*
X141391353Y-28719617D01*
X141391353Y-28719617D02*
X141391353Y-28338665D01*
X141391353Y-28338665D02*
X141343734Y-28243427D01*
X141343734Y-28243427D02*
X141248496Y-28195808D01*
X141248496Y-28195808D02*
X141058020Y-28195808D01*
X141058020Y-28195808D02*
X140962782Y-28243427D01*
X140962782Y-28243427D02*
X140915163Y-28338665D01*
X140915163Y-28338665D02*
X140915163Y-28433903D01*
X140915163Y-28433903D02*
X141391353Y-28529141D01*
X140058020Y-28862475D02*
X140058020Y-27862475D01*
X140058020Y-28814856D02*
X140153258Y-28862475D01*
X140153258Y-28862475D02*
X140343734Y-28862475D01*
X140343734Y-28862475D02*
X140438972Y-28814856D01*
X140438972Y-28814856D02*
X140486591Y-28767236D01*
X140486591Y-28767236D02*
X140534210Y-28671998D01*
X140534210Y-28671998D02*
X140534210Y-28386284D01*
X140534210Y-28386284D02*
X140486591Y-28291046D01*
X140486591Y-28291046D02*
X140438972Y-28243427D01*
X140438972Y-28243427D02*
X140343734Y-28195808D01*
X140343734Y-28195808D02*
X140153258Y-28195808D01*
X140153258Y-28195808D02*
X140058020Y-28243427D01*
X138486591Y-28338665D02*
X138343734Y-28386284D01*
X138343734Y-28386284D02*
X138296115Y-28433903D01*
X138296115Y-28433903D02*
X138248496Y-28529141D01*
X138248496Y-28529141D02*
X138248496Y-28671998D01*
X138248496Y-28671998D02*
X138296115Y-28767236D01*
X138296115Y-28767236D02*
X138343734Y-28814856D01*
X138343734Y-28814856D02*
X138438972Y-28862475D01*
X138438972Y-28862475D02*
X138819924Y-28862475D01*
X138819924Y-28862475D02*
X138819924Y-27862475D01*
X138819924Y-27862475D02*
X138486591Y-27862475D01*
X138486591Y-27862475D02*
X138391353Y-27910094D01*
X138391353Y-27910094D02*
X138343734Y-27957713D01*
X138343734Y-27957713D02*
X138296115Y-28052951D01*
X138296115Y-28052951D02*
X138296115Y-28148189D01*
X138296115Y-28148189D02*
X138343734Y-28243427D01*
X138343734Y-28243427D02*
X138391353Y-28291046D01*
X138391353Y-28291046D02*
X138486591Y-28338665D01*
X138486591Y-28338665D02*
X138819924Y-28338665D01*
X137915162Y-28195808D02*
X137677067Y-28862475D01*
X137438972Y-28195808D02*
X137677067Y-28862475D01*
X137677067Y-28862475D02*
X137772305Y-29100570D01*
X137772305Y-29100570D02*
X137819924Y-29148189D01*
X137819924Y-29148189D02*
X137915162Y-29195808D01*
X136343733Y-28576760D02*
X135867543Y-28576760D01*
X136438971Y-28862475D02*
X136105638Y-27862475D01*
X136105638Y-27862475D02*
X135772305Y-28862475D01*
X135438971Y-28195808D02*
X135438971Y-28862475D01*
X135438971Y-28291046D02*
X135391352Y-28243427D01*
X135391352Y-28243427D02*
X135296114Y-28195808D01*
X135296114Y-28195808D02*
X135153257Y-28195808D01*
X135153257Y-28195808D02*
X135058019Y-28243427D01*
X135058019Y-28243427D02*
X135010400Y-28338665D01*
X135010400Y-28338665D02*
X135010400Y-28862475D01*
X134105638Y-28862475D02*
X134105638Y-27862475D01*
X134105638Y-28814856D02*
X134200876Y-28862475D01*
X134200876Y-28862475D02*
X134391352Y-28862475D01*
X134391352Y-28862475D02*
X134486590Y-28814856D01*
X134486590Y-28814856D02*
X134534209Y-28767236D01*
X134534209Y-28767236D02*
X134581828Y-28671998D01*
X134581828Y-28671998D02*
X134581828Y-28386284D01*
X134581828Y-28386284D02*
X134534209Y-28291046D01*
X134534209Y-28291046D02*
X134486590Y-28243427D01*
X134486590Y-28243427D02*
X134391352Y-28195808D01*
X134391352Y-28195808D02*
X134200876Y-28195808D01*
X134200876Y-28195808D02*
X134105638Y-28243427D01*
X133629447Y-28862475D02*
X133629447Y-28195808D01*
X133629447Y-28386284D02*
X133581828Y-28291046D01*
X133581828Y-28291046D02*
X133534209Y-28243427D01*
X133534209Y-28243427D02*
X133438971Y-28195808D01*
X133438971Y-28195808D02*
X133343733Y-28195808D01*
X132629447Y-28814856D02*
X132724685Y-28862475D01*
X132724685Y-28862475D02*
X132915161Y-28862475D01*
X132915161Y-28862475D02*
X133010399Y-28814856D01*
X133010399Y-28814856D02*
X133058018Y-28719617D01*
X133058018Y-28719617D02*
X133058018Y-28338665D01*
X133058018Y-28338665D02*
X133010399Y-28243427D01*
X133010399Y-28243427D02*
X132915161Y-28195808D01*
X132915161Y-28195808D02*
X132724685Y-28195808D01*
X132724685Y-28195808D02*
X132629447Y-28243427D01*
X132629447Y-28243427D02*
X132581828Y-28338665D01*
X132581828Y-28338665D02*
X132581828Y-28433903D01*
X132581828Y-28433903D02*
X133058018Y-28529141D01*
X132248494Y-28195808D02*
X132058018Y-28862475D01*
X132058018Y-28862475D02*
X131867542Y-28386284D01*
X131867542Y-28386284D02*
X131677066Y-28862475D01*
X131677066Y-28862475D02*
X131486590Y-28195808D01*
X129915161Y-28195808D02*
X129915161Y-29005332D01*
X129915161Y-29005332D02*
X129962780Y-29100570D01*
X129962780Y-29100570D02*
X130010399Y-29148189D01*
X130010399Y-29148189D02*
X130105637Y-29195808D01*
X130105637Y-29195808D02*
X130248494Y-29195808D01*
X130248494Y-29195808D02*
X130343732Y-29148189D01*
X129915161Y-28814856D02*
X130010399Y-28862475D01*
X130010399Y-28862475D02*
X130200875Y-28862475D01*
X130200875Y-28862475D02*
X130296113Y-28814856D01*
X130296113Y-28814856D02*
X130343732Y-28767236D01*
X130343732Y-28767236D02*
X130391351Y-28671998D01*
X130391351Y-28671998D02*
X130391351Y-28386284D01*
X130391351Y-28386284D02*
X130343732Y-28291046D01*
X130343732Y-28291046D02*
X130296113Y-28243427D01*
X130296113Y-28243427D02*
X130200875Y-28195808D01*
X130200875Y-28195808D02*
X130010399Y-28195808D01*
X130010399Y-28195808D02*
X129915161Y-28243427D01*
X129296113Y-28862475D02*
X129391351Y-28814856D01*
X129391351Y-28814856D02*
X129438970Y-28767236D01*
X129438970Y-28767236D02*
X129486589Y-28671998D01*
X129486589Y-28671998D02*
X129486589Y-28386284D01*
X129486589Y-28386284D02*
X129438970Y-28291046D01*
X129438970Y-28291046D02*
X129391351Y-28243427D01*
X129391351Y-28243427D02*
X129296113Y-28195808D01*
X129296113Y-28195808D02*
X129153256Y-28195808D01*
X129153256Y-28195808D02*
X129058018Y-28243427D01*
X129058018Y-28243427D02*
X129010399Y-28291046D01*
X129010399Y-28291046D02*
X128962780Y-28386284D01*
X128962780Y-28386284D02*
X128962780Y-28671998D01*
X128962780Y-28671998D02*
X129010399Y-28767236D01*
X129010399Y-28767236D02*
X129058018Y-28814856D01*
X129058018Y-28814856D02*
X129153256Y-28862475D01*
X129153256Y-28862475D02*
X129296113Y-28862475D01*
X128534208Y-28195808D02*
X128534208Y-28862475D01*
X128534208Y-28291046D02*
X128486589Y-28243427D01*
X128486589Y-28243427D02*
X128391351Y-28195808D01*
X128391351Y-28195808D02*
X128248494Y-28195808D01*
X128248494Y-28195808D02*
X128153256Y-28243427D01*
X128153256Y-28243427D02*
X128105637Y-28338665D01*
X128105637Y-28338665D02*
X128105637Y-28862475D01*
X127200875Y-28862475D02*
X127200875Y-27862475D01*
X127200875Y-28814856D02*
X127296113Y-28862475D01*
X127296113Y-28862475D02*
X127486589Y-28862475D01*
X127486589Y-28862475D02*
X127581827Y-28814856D01*
X127581827Y-28814856D02*
X127629446Y-28767236D01*
X127629446Y-28767236D02*
X127677065Y-28671998D01*
X127677065Y-28671998D02*
X127677065Y-28386284D01*
X127677065Y-28386284D02*
X127629446Y-28291046D01*
X127629446Y-28291046D02*
X127581827Y-28243427D01*
X127581827Y-28243427D02*
X127486589Y-28195808D01*
X127486589Y-28195808D02*
X127296113Y-28195808D01*
X127296113Y-28195808D02*
X127200875Y-28243427D01*
X126581827Y-28862475D02*
X126677065Y-28814856D01*
X126677065Y-28814856D02*
X126724684Y-28767236D01*
X126724684Y-28767236D02*
X126772303Y-28671998D01*
X126772303Y-28671998D02*
X126772303Y-28386284D01*
X126772303Y-28386284D02*
X126724684Y-28291046D01*
X126724684Y-28291046D02*
X126677065Y-28243427D01*
X126677065Y-28243427D02*
X126581827Y-28195808D01*
X126581827Y-28195808D02*
X126438970Y-28195808D01*
X126438970Y-28195808D02*
X126343732Y-28243427D01*
X126343732Y-28243427D02*
X126296113Y-28291046D01*
X126296113Y-28291046D02*
X126248494Y-28386284D01*
X126248494Y-28386284D02*
X126248494Y-28671998D01*
X126248494Y-28671998D02*
X126296113Y-28767236D01*
X126296113Y-28767236D02*
X126343732Y-28814856D01*
X126343732Y-28814856D02*
X126438970Y-28862475D01*
X126438970Y-28862475D02*
X126581827Y-28862475D01*
X125819922Y-28195808D02*
X125819922Y-29195808D01*
X125819922Y-28243427D02*
X125724684Y-28195808D01*
X125724684Y-28195808D02*
X125534208Y-28195808D01*
X125534208Y-28195808D02*
X125438970Y-28243427D01*
X125438970Y-28243427D02*
X125391351Y-28291046D01*
X125391351Y-28291046D02*
X125343732Y-28386284D01*
X125343732Y-28386284D02*
X125343732Y-28671998D01*
X125343732Y-28671998D02*
X125391351Y-28767236D01*
X125391351Y-28767236D02*
X125438970Y-28814856D01*
X125438970Y-28814856D02*
X125534208Y-28862475D01*
X125534208Y-28862475D02*
X125724684Y-28862475D01*
X125724684Y-28862475D02*
X125819922Y-28814856D01*
X124486589Y-28195808D02*
X124486589Y-28862475D01*
X124915160Y-28195808D02*
X124915160Y-28719617D01*
X124915160Y-28719617D02*
X124867541Y-28814856D01*
X124867541Y-28814856D02*
X124772303Y-28862475D01*
X124772303Y-28862475D02*
X124629446Y-28862475D01*
X124629446Y-28862475D02*
X124534208Y-28814856D01*
X124534208Y-28814856D02*
X124486589Y-28767236D01*
X124153255Y-28195808D02*
X123772303Y-28195808D01*
X124010398Y-27862475D02*
X124010398Y-28719617D01*
X124010398Y-28719617D02*
X123962779Y-28814856D01*
X123962779Y-28814856D02*
X123867541Y-28862475D01*
X123867541Y-28862475D02*
X123772303Y-28862475D01*
X123438969Y-28862475D02*
X123438969Y-28195808D01*
X123438969Y-28386284D02*
X123391350Y-28291046D01*
X123391350Y-28291046D02*
X123343731Y-28243427D01*
X123343731Y-28243427D02*
X123248493Y-28195808D01*
X123248493Y-28195808D02*
X123153255Y-28195808D01*
X122677064Y-28862475D02*
X122772302Y-28814856D01*
X122772302Y-28814856D02*
X122819921Y-28767236D01*
X122819921Y-28767236D02*
X122867540Y-28671998D01*
X122867540Y-28671998D02*
X122867540Y-28386284D01*
X122867540Y-28386284D02*
X122819921Y-28291046D01*
X122819921Y-28291046D02*
X122772302Y-28243427D01*
X122772302Y-28243427D02*
X122677064Y-28195808D01*
X122677064Y-28195808D02*
X122534207Y-28195808D01*
X122534207Y-28195808D02*
X122438969Y-28243427D01*
X122438969Y-28243427D02*
X122391350Y-28291046D01*
X122391350Y-28291046D02*
X122343731Y-28386284D01*
X122343731Y-28386284D02*
X122343731Y-28671998D01*
X122343731Y-28671998D02*
X122391350Y-28767236D01*
X122391350Y-28767236D02*
X122438969Y-28814856D01*
X122438969Y-28814856D02*
X122534207Y-28862475D01*
X122534207Y-28862475D02*
X122677064Y-28862475D01*
X146296115Y-30472419D02*
X146296115Y-29472419D01*
X145867544Y-30472419D02*
X145867544Y-29948609D01*
X145867544Y-29948609D02*
X145915163Y-29853371D01*
X145915163Y-29853371D02*
X146010401Y-29805752D01*
X146010401Y-29805752D02*
X146153258Y-29805752D01*
X146153258Y-29805752D02*
X146248496Y-29853371D01*
X146248496Y-29853371D02*
X146296115Y-29900990D01*
X145534210Y-29805752D02*
X145153258Y-29805752D01*
X145391353Y-29472419D02*
X145391353Y-30329561D01*
X145391353Y-30329561D02*
X145343734Y-30424800D01*
X145343734Y-30424800D02*
X145248496Y-30472419D01*
X145248496Y-30472419D02*
X145153258Y-30472419D01*
X144962781Y-29805752D02*
X144581829Y-29805752D01*
X144819924Y-29472419D02*
X144819924Y-30329561D01*
X144819924Y-30329561D02*
X144772305Y-30424800D01*
X144772305Y-30424800D02*
X144677067Y-30472419D01*
X144677067Y-30472419D02*
X144581829Y-30472419D01*
X144248495Y-29805752D02*
X144248495Y-30805752D01*
X144248495Y-29853371D02*
X144153257Y-29805752D01*
X144153257Y-29805752D02*
X143962781Y-29805752D01*
X143962781Y-29805752D02*
X143867543Y-29853371D01*
X143867543Y-29853371D02*
X143819924Y-29900990D01*
X143819924Y-29900990D02*
X143772305Y-29996228D01*
X143772305Y-29996228D02*
X143772305Y-30281942D01*
X143772305Y-30281942D02*
X143819924Y-30377180D01*
X143819924Y-30377180D02*
X143867543Y-30424800D01*
X143867543Y-30424800D02*
X143962781Y-30472419D01*
X143962781Y-30472419D02*
X144153257Y-30472419D01*
X144153257Y-30472419D02*
X144248495Y-30424800D01*
X143391352Y-30424800D02*
X143296114Y-30472419D01*
X143296114Y-30472419D02*
X143105638Y-30472419D01*
X143105638Y-30472419D02*
X143010400Y-30424800D01*
X143010400Y-30424800D02*
X142962781Y-30329561D01*
X142962781Y-30329561D02*
X142962781Y-30281942D01*
X142962781Y-30281942D02*
X143010400Y-30186704D01*
X143010400Y-30186704D02*
X143105638Y-30139085D01*
X143105638Y-30139085D02*
X143248495Y-30139085D01*
X143248495Y-30139085D02*
X143343733Y-30091466D01*
X143343733Y-30091466D02*
X143391352Y-29996228D01*
X143391352Y-29996228D02*
X143391352Y-29948609D01*
X143391352Y-29948609D02*
X143343733Y-29853371D01*
X143343733Y-29853371D02*
X143248495Y-29805752D01*
X143248495Y-29805752D02*
X143105638Y-29805752D01*
X143105638Y-29805752D02*
X143010400Y-29853371D01*
X142534209Y-30377180D02*
X142486590Y-30424800D01*
X142486590Y-30424800D02*
X142534209Y-30472419D01*
X142534209Y-30472419D02*
X142581828Y-30424800D01*
X142581828Y-30424800D02*
X142534209Y-30377180D01*
X142534209Y-30377180D02*
X142534209Y-30472419D01*
X142534209Y-29853371D02*
X142486590Y-29900990D01*
X142486590Y-29900990D02*
X142534209Y-29948609D01*
X142534209Y-29948609D02*
X142581828Y-29900990D01*
X142581828Y-29900990D02*
X142534209Y-29853371D01*
X142534209Y-29853371D02*
X142534209Y-29948609D01*
X141343734Y-29424800D02*
X142200876Y-30710514D01*
X140296115Y-29424800D02*
X141153257Y-30710514D01*
X139534210Y-29805752D02*
X139534210Y-30615276D01*
X139534210Y-30615276D02*
X139581829Y-30710514D01*
X139581829Y-30710514D02*
X139629448Y-30758133D01*
X139629448Y-30758133D02*
X139724686Y-30805752D01*
X139724686Y-30805752D02*
X139867543Y-30805752D01*
X139867543Y-30805752D02*
X139962781Y-30758133D01*
X139534210Y-30424800D02*
X139629448Y-30472419D01*
X139629448Y-30472419D02*
X139819924Y-30472419D01*
X139819924Y-30472419D02*
X139915162Y-30424800D01*
X139915162Y-30424800D02*
X139962781Y-30377180D01*
X139962781Y-30377180D02*
X140010400Y-30281942D01*
X140010400Y-30281942D02*
X140010400Y-29996228D01*
X140010400Y-29996228D02*
X139962781Y-29900990D01*
X139962781Y-29900990D02*
X139915162Y-29853371D01*
X139915162Y-29853371D02*
X139819924Y-29805752D01*
X139819924Y-29805752D02*
X139629448Y-29805752D01*
X139629448Y-29805752D02*
X139534210Y-29853371D01*
X139058019Y-30472419D02*
X139058019Y-29805752D01*
X139058019Y-29472419D02*
X139105638Y-29520038D01*
X139105638Y-29520038D02*
X139058019Y-29567657D01*
X139058019Y-29567657D02*
X139010400Y-29520038D01*
X139010400Y-29520038D02*
X139058019Y-29472419D01*
X139058019Y-29472419D02*
X139058019Y-29567657D01*
X138724686Y-29805752D02*
X138343734Y-29805752D01*
X138581829Y-29472419D02*
X138581829Y-30329561D01*
X138581829Y-30329561D02*
X138534210Y-30424800D01*
X138534210Y-30424800D02*
X138438972Y-30472419D01*
X138438972Y-30472419D02*
X138343734Y-30472419D01*
X138010400Y-30472419D02*
X138010400Y-29472419D01*
X137581829Y-30472419D02*
X137581829Y-29948609D01*
X137581829Y-29948609D02*
X137629448Y-29853371D01*
X137629448Y-29853371D02*
X137724686Y-29805752D01*
X137724686Y-29805752D02*
X137867543Y-29805752D01*
X137867543Y-29805752D02*
X137962781Y-29853371D01*
X137962781Y-29853371D02*
X138010400Y-29900990D01*
X136677067Y-29805752D02*
X136677067Y-30472419D01*
X137105638Y-29805752D02*
X137105638Y-30329561D01*
X137105638Y-30329561D02*
X137058019Y-30424800D01*
X137058019Y-30424800D02*
X136962781Y-30472419D01*
X136962781Y-30472419D02*
X136819924Y-30472419D01*
X136819924Y-30472419D02*
X136724686Y-30424800D01*
X136724686Y-30424800D02*
X136677067Y-30377180D01*
X136200876Y-30472419D02*
X136200876Y-29472419D01*
X136200876Y-29853371D02*
X136105638Y-29805752D01*
X136105638Y-29805752D02*
X135915162Y-29805752D01*
X135915162Y-29805752D02*
X135819924Y-29853371D01*
X135819924Y-29853371D02*
X135772305Y-29900990D01*
X135772305Y-29900990D02*
X135724686Y-29996228D01*
X135724686Y-29996228D02*
X135724686Y-30281942D01*
X135724686Y-30281942D02*
X135772305Y-30377180D01*
X135772305Y-30377180D02*
X135819924Y-30424800D01*
X135819924Y-30424800D02*
X135915162Y-30472419D01*
X135915162Y-30472419D02*
X136105638Y-30472419D01*
X136105638Y-30472419D02*
X136200876Y-30424800D01*
X135296114Y-30377180D02*
X135248495Y-30424800D01*
X135248495Y-30424800D02*
X135296114Y-30472419D01*
X135296114Y-30472419D02*
X135343733Y-30424800D01*
X135343733Y-30424800D02*
X135296114Y-30377180D01*
X135296114Y-30377180D02*
X135296114Y-30472419D01*
X134391353Y-30424800D02*
X134486591Y-30472419D01*
X134486591Y-30472419D02*
X134677067Y-30472419D01*
X134677067Y-30472419D02*
X134772305Y-30424800D01*
X134772305Y-30424800D02*
X134819924Y-30377180D01*
X134819924Y-30377180D02*
X134867543Y-30281942D01*
X134867543Y-30281942D02*
X134867543Y-29996228D01*
X134867543Y-29996228D02*
X134819924Y-29900990D01*
X134819924Y-29900990D02*
X134772305Y-29853371D01*
X134772305Y-29853371D02*
X134677067Y-29805752D01*
X134677067Y-29805752D02*
X134486591Y-29805752D01*
X134486591Y-29805752D02*
X134391353Y-29853371D01*
X133819924Y-30472419D02*
X133915162Y-30424800D01*
X133915162Y-30424800D02*
X133962781Y-30377180D01*
X133962781Y-30377180D02*
X134010400Y-30281942D01*
X134010400Y-30281942D02*
X134010400Y-29996228D01*
X134010400Y-29996228D02*
X133962781Y-29900990D01*
X133962781Y-29900990D02*
X133915162Y-29853371D01*
X133915162Y-29853371D02*
X133819924Y-29805752D01*
X133819924Y-29805752D02*
X133677067Y-29805752D01*
X133677067Y-29805752D02*
X133581829Y-29853371D01*
X133581829Y-29853371D02*
X133534210Y-29900990D01*
X133534210Y-29900990D02*
X133486591Y-29996228D01*
X133486591Y-29996228D02*
X133486591Y-30281942D01*
X133486591Y-30281942D02*
X133534210Y-30377180D01*
X133534210Y-30377180D02*
X133581829Y-30424800D01*
X133581829Y-30424800D02*
X133677067Y-30472419D01*
X133677067Y-30472419D02*
X133819924Y-30472419D01*
X133058019Y-30472419D02*
X133058019Y-29805752D01*
X133058019Y-29900990D02*
X133010400Y-29853371D01*
X133010400Y-29853371D02*
X132915162Y-29805752D01*
X132915162Y-29805752D02*
X132772305Y-29805752D01*
X132772305Y-29805752D02*
X132677067Y-29853371D01*
X132677067Y-29853371D02*
X132629448Y-29948609D01*
X132629448Y-29948609D02*
X132629448Y-30472419D01*
X132629448Y-29948609D02*
X132581829Y-29853371D01*
X132581829Y-29853371D02*
X132486591Y-29805752D01*
X132486591Y-29805752D02*
X132343734Y-29805752D01*
X132343734Y-29805752D02*
X132248495Y-29853371D01*
X132248495Y-29853371D02*
X132200876Y-29948609D01*
X132200876Y-29948609D02*
X132200876Y-30472419D01*
X131010401Y-29424800D02*
X131867543Y-30710514D01*
X130248496Y-30472419D02*
X130248496Y-29948609D01*
X130248496Y-29948609D02*
X130296115Y-29853371D01*
X130296115Y-29853371D02*
X130391353Y-29805752D01*
X130391353Y-29805752D02*
X130581829Y-29805752D01*
X130581829Y-29805752D02*
X130677067Y-29853371D01*
X130248496Y-30424800D02*
X130343734Y-30472419D01*
X130343734Y-30472419D02*
X130581829Y-30472419D01*
X130581829Y-30472419D02*
X130677067Y-30424800D01*
X130677067Y-30424800D02*
X130724686Y-30329561D01*
X130724686Y-30329561D02*
X130724686Y-30234323D01*
X130724686Y-30234323D02*
X130677067Y-30139085D01*
X130677067Y-30139085D02*
X130581829Y-30091466D01*
X130581829Y-30091466D02*
X130343734Y-30091466D01*
X130343734Y-30091466D02*
X130248496Y-30043847D01*
X129772305Y-29805752D02*
X129772305Y-30472419D01*
X129772305Y-29900990D02*
X129724686Y-29853371D01*
X129724686Y-29853371D02*
X129629448Y-29805752D01*
X129629448Y-29805752D02*
X129486591Y-29805752D01*
X129486591Y-29805752D02*
X129391353Y-29853371D01*
X129391353Y-29853371D02*
X129343734Y-29948609D01*
X129343734Y-29948609D02*
X129343734Y-30472419D01*
X128438972Y-30472419D02*
X128438972Y-29472419D01*
X128438972Y-30424800D02*
X128534210Y-30472419D01*
X128534210Y-30472419D02*
X128724686Y-30472419D01*
X128724686Y-30472419D02*
X128819924Y-30424800D01*
X128819924Y-30424800D02*
X128867543Y-30377180D01*
X128867543Y-30377180D02*
X128915162Y-30281942D01*
X128915162Y-30281942D02*
X128915162Y-29996228D01*
X128915162Y-29996228D02*
X128867543Y-29900990D01*
X128867543Y-29900990D02*
X128819924Y-29853371D01*
X128819924Y-29853371D02*
X128724686Y-29805752D01*
X128724686Y-29805752D02*
X128534210Y-29805752D01*
X128534210Y-29805752D02*
X128438972Y-29853371D01*
X127962781Y-30472419D02*
X127962781Y-29805752D01*
X127962781Y-29996228D02*
X127915162Y-29900990D01*
X127915162Y-29900990D02*
X127867543Y-29853371D01*
X127867543Y-29853371D02*
X127772305Y-29805752D01*
X127772305Y-29805752D02*
X127677067Y-29805752D01*
X126962781Y-30424800D02*
X127058019Y-30472419D01*
X127058019Y-30472419D02*
X127248495Y-30472419D01*
X127248495Y-30472419D02*
X127343733Y-30424800D01*
X127343733Y-30424800D02*
X127391352Y-30329561D01*
X127391352Y-30329561D02*
X127391352Y-29948609D01*
X127391352Y-29948609D02*
X127343733Y-29853371D01*
X127343733Y-29853371D02*
X127248495Y-29805752D01*
X127248495Y-29805752D02*
X127058019Y-29805752D01*
X127058019Y-29805752D02*
X126962781Y-29853371D01*
X126962781Y-29853371D02*
X126915162Y-29948609D01*
X126915162Y-29948609D02*
X126915162Y-30043847D01*
X126915162Y-30043847D02*
X127391352Y-30139085D01*
X126581828Y-29805752D02*
X126391352Y-30472419D01*
X126391352Y-30472419D02*
X126200876Y-29996228D01*
X126200876Y-29996228D02*
X126010400Y-30472419D01*
X126010400Y-30472419D02*
X125819924Y-29805752D01*
X125010400Y-29805752D02*
X125010400Y-30615276D01*
X125010400Y-30615276D02*
X125058019Y-30710514D01*
X125058019Y-30710514D02*
X125105638Y-30758133D01*
X125105638Y-30758133D02*
X125200876Y-30805752D01*
X125200876Y-30805752D02*
X125343733Y-30805752D01*
X125343733Y-30805752D02*
X125438971Y-30758133D01*
X125010400Y-30424800D02*
X125105638Y-30472419D01*
X125105638Y-30472419D02*
X125296114Y-30472419D01*
X125296114Y-30472419D02*
X125391352Y-30424800D01*
X125391352Y-30424800D02*
X125438971Y-30377180D01*
X125438971Y-30377180D02*
X125486590Y-30281942D01*
X125486590Y-30281942D02*
X125486590Y-29996228D01*
X125486590Y-29996228D02*
X125438971Y-29900990D01*
X125438971Y-29900990D02*
X125391352Y-29853371D01*
X125391352Y-29853371D02*
X125296114Y-29805752D01*
X125296114Y-29805752D02*
X125105638Y-29805752D01*
X125105638Y-29805752D02*
X125010400Y-29853371D01*
X124391352Y-30472419D02*
X124486590Y-30424800D01*
X124486590Y-30424800D02*
X124534209Y-30377180D01*
X124534209Y-30377180D02*
X124581828Y-30281942D01*
X124581828Y-30281942D02*
X124581828Y-29996228D01*
X124581828Y-29996228D02*
X124534209Y-29900990D01*
X124534209Y-29900990D02*
X124486590Y-29853371D01*
X124486590Y-29853371D02*
X124391352Y-29805752D01*
X124391352Y-29805752D02*
X124248495Y-29805752D01*
X124248495Y-29805752D02*
X124153257Y-29853371D01*
X124153257Y-29853371D02*
X124105638Y-29900990D01*
X124105638Y-29900990D02*
X124058019Y-29996228D01*
X124058019Y-29996228D02*
X124058019Y-30281942D01*
X124058019Y-30281942D02*
X124105638Y-30377180D01*
X124105638Y-30377180D02*
X124153257Y-30424800D01*
X124153257Y-30424800D02*
X124248495Y-30472419D01*
X124248495Y-30472419D02*
X124391352Y-30472419D01*
X123629447Y-29805752D02*
X123629447Y-30472419D01*
X123629447Y-29900990D02*
X123581828Y-29853371D01*
X123581828Y-29853371D02*
X123486590Y-29805752D01*
X123486590Y-29805752D02*
X123343733Y-29805752D01*
X123343733Y-29805752D02*
X123248495Y-29853371D01*
X123248495Y-29853371D02*
X123200876Y-29948609D01*
X123200876Y-29948609D02*
X123200876Y-30472419D01*
X122296114Y-30472419D02*
X122296114Y-29472419D01*
X122296114Y-30424800D02*
X122391352Y-30472419D01*
X122391352Y-30472419D02*
X122581828Y-30472419D01*
X122581828Y-30472419D02*
X122677066Y-30424800D01*
X122677066Y-30424800D02*
X122724685Y-30377180D01*
X122724685Y-30377180D02*
X122772304Y-30281942D01*
X122772304Y-30281942D02*
X122772304Y-29996228D01*
X122772304Y-29996228D02*
X122724685Y-29900990D01*
X122724685Y-29900990D02*
X122677066Y-29853371D01*
X122677066Y-29853371D02*
X122581828Y-29805752D01*
X122581828Y-29805752D02*
X122391352Y-29805752D01*
X122391352Y-29805752D02*
X122296114Y-29853371D01*
X121105638Y-29424800D02*
X121962780Y-30710514D01*
X120772304Y-30472419D02*
X120772304Y-29472419D01*
X120772304Y-29472419D02*
X120438971Y-30186704D01*
X120438971Y-30186704D02*
X120105638Y-29472419D01*
X120105638Y-29472419D02*
X120105638Y-30472419D01*
X119629447Y-30377180D02*
X119581828Y-30424800D01*
X119581828Y-30424800D02*
X119629447Y-30472419D01*
X119629447Y-30472419D02*
X119677066Y-30424800D01*
X119677066Y-30424800D02*
X119629447Y-30377180D01*
X119629447Y-30377180D02*
X119629447Y-30472419D01*
X119153257Y-29948609D02*
X118819924Y-29948609D01*
X118677067Y-30472419D02*
X119153257Y-30472419D01*
X119153257Y-30472419D02*
X119153257Y-29472419D01*
X119153257Y-29472419D02*
X118677067Y-29472419D01*
X118248495Y-30377180D02*
X118200876Y-30424800D01*
X118200876Y-30424800D02*
X118248495Y-30472419D01*
X118248495Y-30472419D02*
X118296114Y-30424800D01*
X118296114Y-30424800D02*
X118248495Y-30377180D01*
X118248495Y-30377180D02*
X118248495Y-30472419D01*
X117581829Y-29472419D02*
X117391353Y-29472419D01*
X117391353Y-29472419D02*
X117296115Y-29520038D01*
X117296115Y-29520038D02*
X117200877Y-29615276D01*
X117200877Y-29615276D02*
X117153258Y-29805752D01*
X117153258Y-29805752D02*
X117153258Y-30139085D01*
X117153258Y-30139085D02*
X117200877Y-30329561D01*
X117200877Y-30329561D02*
X117296115Y-30424800D01*
X117296115Y-30424800D02*
X117391353Y-30472419D01*
X117391353Y-30472419D02*
X117581829Y-30472419D01*
X117581829Y-30472419D02*
X117677067Y-30424800D01*
X117677067Y-30424800D02*
X117772305Y-30329561D01*
X117772305Y-30329561D02*
X117819924Y-30139085D01*
X117819924Y-30139085D02*
X117819924Y-29805752D01*
X117819924Y-29805752D02*
X117772305Y-29615276D01*
X117772305Y-29615276D02*
X117677067Y-29520038D01*
X117677067Y-29520038D02*
X117581829Y-29472419D01*
X116724686Y-30377180D02*
X116677067Y-30424800D01*
X116677067Y-30424800D02*
X116724686Y-30472419D01*
X116724686Y-30472419D02*
X116772305Y-30424800D01*
X116772305Y-30424800D02*
X116724686Y-30377180D01*
X116724686Y-30377180D02*
X116724686Y-30472419D01*
X116343734Y-29472419D02*
X116105639Y-30472419D01*
X116105639Y-30472419D02*
X115915163Y-29758133D01*
X115915163Y-29758133D02*
X115724687Y-30472419D01*
X115724687Y-30472419D02*
X115486592Y-29472419D01*
X115105639Y-30091466D02*
X114343735Y-30091466D01*
X113867544Y-30472419D02*
X113867544Y-29472419D01*
X113867544Y-29472419D02*
X113534211Y-30186704D01*
X113534211Y-30186704D02*
X113200878Y-29472419D01*
X113200878Y-29472419D02*
X113200878Y-30472419D01*
X112343735Y-30424800D02*
X112438973Y-30472419D01*
X112438973Y-30472419D02*
X112629449Y-30472419D01*
X112629449Y-30472419D02*
X112724687Y-30424800D01*
X112724687Y-30424800D02*
X112772306Y-30329561D01*
X112772306Y-30329561D02*
X112772306Y-29948609D01*
X112772306Y-29948609D02*
X112724687Y-29853371D01*
X112724687Y-29853371D02*
X112629449Y-29805752D01*
X112629449Y-29805752D02*
X112438973Y-29805752D01*
X112438973Y-29805752D02*
X112343735Y-29853371D01*
X112343735Y-29853371D02*
X112296116Y-29948609D01*
X112296116Y-29948609D02*
X112296116Y-30043847D01*
X112296116Y-30043847D02*
X112772306Y-30139085D01*
X111438973Y-30472419D02*
X111438973Y-29948609D01*
X111438973Y-29948609D02*
X111486592Y-29853371D01*
X111486592Y-29853371D02*
X111581830Y-29805752D01*
X111581830Y-29805752D02*
X111772306Y-29805752D01*
X111772306Y-29805752D02*
X111867544Y-29853371D01*
X111438973Y-30424800D02*
X111534211Y-30472419D01*
X111534211Y-30472419D02*
X111772306Y-30472419D01*
X111772306Y-30472419D02*
X111867544Y-30424800D01*
X111867544Y-30424800D02*
X111915163Y-30329561D01*
X111915163Y-30329561D02*
X111915163Y-30234323D01*
X111915163Y-30234323D02*
X111867544Y-30139085D01*
X111867544Y-30139085D02*
X111772306Y-30091466D01*
X111772306Y-30091466D02*
X111534211Y-30091466D01*
X111534211Y-30091466D02*
X111438973Y-30043847D01*
X110819925Y-30472419D02*
X110915163Y-30424800D01*
X110915163Y-30424800D02*
X110962782Y-30329561D01*
X110962782Y-30329561D02*
X110962782Y-29472419D01*
X110581829Y-29805752D02*
X110200877Y-29805752D01*
X110438972Y-29472419D02*
X110438972Y-30329561D01*
X110438972Y-30329561D02*
X110391353Y-30424800D01*
X110391353Y-30424800D02*
X110296115Y-30472419D01*
X110296115Y-30472419D02*
X110200877Y-30472419D01*
X109867543Y-30472419D02*
X109867543Y-29805752D01*
X109867543Y-29472419D02*
X109915162Y-29520038D01*
X109915162Y-29520038D02*
X109867543Y-29567657D01*
X109867543Y-29567657D02*
X109819924Y-29520038D01*
X109819924Y-29520038D02*
X109867543Y-29472419D01*
X109867543Y-29472419D02*
X109867543Y-29567657D01*
X109391353Y-30472419D02*
X109391353Y-29805752D01*
X109391353Y-29900990D02*
X109343734Y-29853371D01*
X109343734Y-29853371D02*
X109248496Y-29805752D01*
X109248496Y-29805752D02*
X109105639Y-29805752D01*
X109105639Y-29805752D02*
X109010401Y-29853371D01*
X109010401Y-29853371D02*
X108962782Y-29948609D01*
X108962782Y-29948609D02*
X108962782Y-30472419D01*
X108962782Y-29948609D02*
X108915163Y-29853371D01*
X108915163Y-29853371D02*
X108819925Y-29805752D01*
X108819925Y-29805752D02*
X108677068Y-29805752D01*
X108677068Y-29805752D02*
X108581829Y-29853371D01*
X108581829Y-29853371D02*
X108534210Y-29948609D01*
X108534210Y-29948609D02*
X108534210Y-30472419D01*
X107677068Y-30424800D02*
X107772306Y-30472419D01*
X107772306Y-30472419D02*
X107962782Y-30472419D01*
X107962782Y-30472419D02*
X108058020Y-30424800D01*
X108058020Y-30424800D02*
X108105639Y-30329561D01*
X108105639Y-30329561D02*
X108105639Y-29948609D01*
X108105639Y-29948609D02*
X108058020Y-29853371D01*
X108058020Y-29853371D02*
X107962782Y-29805752D01*
X107962782Y-29805752D02*
X107772306Y-29805752D01*
X107772306Y-29805752D02*
X107677068Y-29853371D01*
X107677068Y-29853371D02*
X107629449Y-29948609D01*
X107629449Y-29948609D02*
X107629449Y-30043847D01*
X107629449Y-30043847D02*
X108105639Y-30139085D01*
X107200877Y-30091466D02*
X106438973Y-30091466D01*
X105962782Y-29948609D02*
X105629449Y-29948609D01*
X105486592Y-30472419D02*
X105962782Y-30472419D01*
X105962782Y-30472419D02*
X105962782Y-29472419D01*
X105962782Y-29472419D02*
X105486592Y-29472419D01*
X104915163Y-30472419D02*
X105010401Y-30424800D01*
X105010401Y-30424800D02*
X105058020Y-30329561D01*
X105058020Y-30329561D02*
X105058020Y-29472419D01*
X104153258Y-30424800D02*
X104248496Y-30472419D01*
X104248496Y-30472419D02*
X104438972Y-30472419D01*
X104438972Y-30472419D02*
X104534210Y-30424800D01*
X104534210Y-30424800D02*
X104581829Y-30329561D01*
X104581829Y-30329561D02*
X104581829Y-29948609D01*
X104581829Y-29948609D02*
X104534210Y-29853371D01*
X104534210Y-29853371D02*
X104438972Y-29805752D01*
X104438972Y-29805752D02*
X104248496Y-29805752D01*
X104248496Y-29805752D02*
X104153258Y-29853371D01*
X104153258Y-29853371D02*
X104105639Y-29948609D01*
X104105639Y-29948609D02*
X104105639Y-30043847D01*
X104105639Y-30043847D02*
X104581829Y-30139085D01*
X103248496Y-30424800D02*
X103343734Y-30472419D01*
X103343734Y-30472419D02*
X103534210Y-30472419D01*
X103534210Y-30472419D02*
X103629448Y-30424800D01*
X103629448Y-30424800D02*
X103677067Y-30377180D01*
X103677067Y-30377180D02*
X103724686Y-30281942D01*
X103724686Y-30281942D02*
X103724686Y-29996228D01*
X103724686Y-29996228D02*
X103677067Y-29900990D01*
X103677067Y-29900990D02*
X103629448Y-29853371D01*
X103629448Y-29853371D02*
X103534210Y-29805752D01*
X103534210Y-29805752D02*
X103343734Y-29805752D01*
X103343734Y-29805752D02*
X103248496Y-29853371D01*
X102962781Y-29805752D02*
X102581829Y-29805752D01*
X102819924Y-29472419D02*
X102819924Y-30329561D01*
X102819924Y-30329561D02*
X102772305Y-30424800D01*
X102772305Y-30424800D02*
X102677067Y-30472419D01*
X102677067Y-30472419D02*
X102581829Y-30472419D01*
X102248495Y-30472419D02*
X102248495Y-29805752D01*
X102248495Y-29996228D02*
X102200876Y-29900990D01*
X102200876Y-29900990D02*
X102153257Y-29853371D01*
X102153257Y-29853371D02*
X102058019Y-29805752D01*
X102058019Y-29805752D02*
X101962781Y-29805752D01*
X101486590Y-30472419D02*
X101581828Y-30424800D01*
X101581828Y-30424800D02*
X101629447Y-30377180D01*
X101629447Y-30377180D02*
X101677066Y-30281942D01*
X101677066Y-30281942D02*
X101677066Y-29996228D01*
X101677066Y-29996228D02*
X101629447Y-29900990D01*
X101629447Y-29900990D02*
X101581828Y-29853371D01*
X101581828Y-29853371D02*
X101486590Y-29805752D01*
X101486590Y-29805752D02*
X101343733Y-29805752D01*
X101343733Y-29805752D02*
X101248495Y-29853371D01*
X101248495Y-29853371D02*
X101200876Y-29900990D01*
X101200876Y-29900990D02*
X101153257Y-29996228D01*
X101153257Y-29996228D02*
X101153257Y-30281942D01*
X101153257Y-30281942D02*
X101200876Y-30377180D01*
X101200876Y-30377180D02*
X101248495Y-30424800D01*
X101248495Y-30424800D02*
X101343733Y-30472419D01*
X101343733Y-30472419D02*
X101486590Y-30472419D01*
X100724685Y-29805752D02*
X100724685Y-30472419D01*
X100724685Y-29900990D02*
X100677066Y-29853371D01*
X100677066Y-29853371D02*
X100581828Y-29805752D01*
X100581828Y-29805752D02*
X100438971Y-29805752D01*
X100438971Y-29805752D02*
X100343733Y-29853371D01*
X100343733Y-29853371D02*
X100296114Y-29948609D01*
X100296114Y-29948609D02*
X100296114Y-30472419D01*
X99819923Y-30472419D02*
X99819923Y-29805752D01*
X99819923Y-29472419D02*
X99867542Y-29520038D01*
X99867542Y-29520038D02*
X99819923Y-29567657D01*
X99819923Y-29567657D02*
X99772304Y-29520038D01*
X99772304Y-29520038D02*
X99819923Y-29472419D01*
X99819923Y-29472419D02*
X99819923Y-29567657D01*
X98915162Y-30424800D02*
X99010400Y-30472419D01*
X99010400Y-30472419D02*
X99200876Y-30472419D01*
X99200876Y-30472419D02*
X99296114Y-30424800D01*
X99296114Y-30424800D02*
X99343733Y-30377180D01*
X99343733Y-30377180D02*
X99391352Y-30281942D01*
X99391352Y-30281942D02*
X99391352Y-29996228D01*
X99391352Y-29996228D02*
X99343733Y-29900990D01*
X99343733Y-29900990D02*
X99296114Y-29853371D01*
X99296114Y-29853371D02*
X99200876Y-29805752D01*
X99200876Y-29805752D02*
X99010400Y-29805752D01*
X99010400Y-29805752D02*
X98915162Y-29853371D01*
X98486590Y-30091466D02*
X97724686Y-30091466D01*
X97058019Y-29472419D02*
X96867543Y-29472419D01*
X96867543Y-29472419D02*
X96772305Y-29520038D01*
X96772305Y-29520038D02*
X96677067Y-29615276D01*
X96677067Y-29615276D02*
X96629448Y-29805752D01*
X96629448Y-29805752D02*
X96629448Y-30139085D01*
X96629448Y-30139085D02*
X96677067Y-30329561D01*
X96677067Y-30329561D02*
X96772305Y-30424800D01*
X96772305Y-30424800D02*
X96867543Y-30472419D01*
X96867543Y-30472419D02*
X97058019Y-30472419D01*
X97058019Y-30472419D02*
X97153257Y-30424800D01*
X97153257Y-30424800D02*
X97248495Y-30329561D01*
X97248495Y-30329561D02*
X97296114Y-30139085D01*
X97296114Y-30139085D02*
X97296114Y-29805752D01*
X97296114Y-29805752D02*
X97248495Y-29615276D01*
X97248495Y-29615276D02*
X97153257Y-29520038D01*
X97153257Y-29520038D02*
X97058019Y-29472419D01*
X96200876Y-30472419D02*
X96200876Y-29472419D01*
X96200876Y-29853371D02*
X96105638Y-29805752D01*
X96105638Y-29805752D02*
X95915162Y-29805752D01*
X95915162Y-29805752D02*
X95819924Y-29853371D01*
X95819924Y-29853371D02*
X95772305Y-29900990D01*
X95772305Y-29900990D02*
X95724686Y-29996228D01*
X95724686Y-29996228D02*
X95724686Y-30281942D01*
X95724686Y-30281942D02*
X95772305Y-30377180D01*
X95772305Y-30377180D02*
X95819924Y-30424800D01*
X95819924Y-30424800D02*
X95915162Y-30472419D01*
X95915162Y-30472419D02*
X96105638Y-30472419D01*
X96105638Y-30472419D02*
X96200876Y-30424800D01*
X95343733Y-30424800D02*
X95248495Y-30472419D01*
X95248495Y-30472419D02*
X95058019Y-30472419D01*
X95058019Y-30472419D02*
X94962781Y-30424800D01*
X94962781Y-30424800D02*
X94915162Y-30329561D01*
X94915162Y-30329561D02*
X94915162Y-30281942D01*
X94915162Y-30281942D02*
X94962781Y-30186704D01*
X94962781Y-30186704D02*
X95058019Y-30139085D01*
X95058019Y-30139085D02*
X95200876Y-30139085D01*
X95200876Y-30139085D02*
X95296114Y-30091466D01*
X95296114Y-30091466D02*
X95343733Y-29996228D01*
X95343733Y-29996228D02*
X95343733Y-29948609D01*
X95343733Y-29948609D02*
X95296114Y-29853371D01*
X95296114Y-29853371D02*
X95200876Y-29805752D01*
X95200876Y-29805752D02*
X95058019Y-29805752D01*
X95058019Y-29805752D02*
X94962781Y-29853371D01*
X94105638Y-30424800D02*
X94200876Y-30472419D01*
X94200876Y-30472419D02*
X94391352Y-30472419D01*
X94391352Y-30472419D02*
X94486590Y-30424800D01*
X94486590Y-30424800D02*
X94534209Y-30329561D01*
X94534209Y-30329561D02*
X94534209Y-29948609D01*
X94534209Y-29948609D02*
X94486590Y-29853371D01*
X94486590Y-29853371D02*
X94391352Y-29805752D01*
X94391352Y-29805752D02*
X94200876Y-29805752D01*
X94200876Y-29805752D02*
X94105638Y-29853371D01*
X94105638Y-29853371D02*
X94058019Y-29948609D01*
X94058019Y-29948609D02*
X94058019Y-30043847D01*
X94058019Y-30043847D02*
X94534209Y-30139085D01*
X93629447Y-30472419D02*
X93629447Y-29805752D01*
X93629447Y-29996228D02*
X93581828Y-29900990D01*
X93581828Y-29900990D02*
X93534209Y-29853371D01*
X93534209Y-29853371D02*
X93438971Y-29805752D01*
X93438971Y-29805752D02*
X93343733Y-29805752D01*
X93105637Y-29805752D02*
X92867542Y-30472419D01*
X92867542Y-30472419D02*
X92629447Y-29805752D01*
X91819923Y-30472419D02*
X91819923Y-29948609D01*
X91819923Y-29948609D02*
X91867542Y-29853371D01*
X91867542Y-29853371D02*
X91962780Y-29805752D01*
X91962780Y-29805752D02*
X92153256Y-29805752D01*
X92153256Y-29805752D02*
X92248494Y-29853371D01*
X91819923Y-30424800D02*
X91915161Y-30472419D01*
X91915161Y-30472419D02*
X92153256Y-30472419D01*
X92153256Y-30472419D02*
X92248494Y-30424800D01*
X92248494Y-30424800D02*
X92296113Y-30329561D01*
X92296113Y-30329561D02*
X92296113Y-30234323D01*
X92296113Y-30234323D02*
X92248494Y-30139085D01*
X92248494Y-30139085D02*
X92153256Y-30091466D01*
X92153256Y-30091466D02*
X91915161Y-30091466D01*
X91915161Y-30091466D02*
X91819923Y-30043847D01*
X91486589Y-29805752D02*
X91105637Y-29805752D01*
X91343732Y-29472419D02*
X91343732Y-30329561D01*
X91343732Y-30329561D02*
X91296113Y-30424800D01*
X91296113Y-30424800D02*
X91200875Y-30472419D01*
X91200875Y-30472419D02*
X91105637Y-30472419D01*
X90772303Y-30472419D02*
X90772303Y-29805752D01*
X90772303Y-29472419D02*
X90819922Y-29520038D01*
X90819922Y-29520038D02*
X90772303Y-29567657D01*
X90772303Y-29567657D02*
X90724684Y-29520038D01*
X90724684Y-29520038D02*
X90772303Y-29472419D01*
X90772303Y-29472419D02*
X90772303Y-29567657D01*
X90153256Y-30472419D02*
X90248494Y-30424800D01*
X90248494Y-30424800D02*
X90296113Y-30377180D01*
X90296113Y-30377180D02*
X90343732Y-30281942D01*
X90343732Y-30281942D02*
X90343732Y-29996228D01*
X90343732Y-29996228D02*
X90296113Y-29900990D01*
X90296113Y-29900990D02*
X90248494Y-29853371D01*
X90248494Y-29853371D02*
X90153256Y-29805752D01*
X90153256Y-29805752D02*
X90010399Y-29805752D01*
X90010399Y-29805752D02*
X89915161Y-29853371D01*
X89915161Y-29853371D02*
X89867542Y-29900990D01*
X89867542Y-29900990D02*
X89819923Y-29996228D01*
X89819923Y-29996228D02*
X89819923Y-30281942D01*
X89819923Y-30281942D02*
X89867542Y-30377180D01*
X89867542Y-30377180D02*
X89915161Y-30424800D01*
X89915161Y-30424800D02*
X90010399Y-30472419D01*
X90010399Y-30472419D02*
X90153256Y-30472419D01*
X89391351Y-29805752D02*
X89391351Y-30472419D01*
X89391351Y-29900990D02*
X89343732Y-29853371D01*
X89343732Y-29853371D02*
X89248494Y-29805752D01*
X89248494Y-29805752D02*
X89105637Y-29805752D01*
X89105637Y-29805752D02*
X89010399Y-29853371D01*
X89010399Y-29853371D02*
X88962780Y-29948609D01*
X88962780Y-29948609D02*
X88962780Y-30472419D01*
X88486589Y-30091466D02*
X87724685Y-30091466D01*
X86819923Y-30472419D02*
X86819923Y-29948609D01*
X86819923Y-29948609D02*
X86867542Y-29853371D01*
X86867542Y-29853371D02*
X86962780Y-29805752D01*
X86962780Y-29805752D02*
X87153256Y-29805752D01*
X87153256Y-29805752D02*
X87248494Y-29853371D01*
X86819923Y-30424800D02*
X86915161Y-30472419D01*
X86915161Y-30472419D02*
X87153256Y-30472419D01*
X87153256Y-30472419D02*
X87248494Y-30424800D01*
X87248494Y-30424800D02*
X87296113Y-30329561D01*
X87296113Y-30329561D02*
X87296113Y-30234323D01*
X87296113Y-30234323D02*
X87248494Y-30139085D01*
X87248494Y-30139085D02*
X87153256Y-30091466D01*
X87153256Y-30091466D02*
X86915161Y-30091466D01*
X86915161Y-30091466D02*
X86819923Y-30043847D01*
X86343732Y-29805752D02*
X86343732Y-30472419D01*
X86343732Y-29900990D02*
X86296113Y-29853371D01*
X86296113Y-29853371D02*
X86200875Y-29805752D01*
X86200875Y-29805752D02*
X86058018Y-29805752D01*
X86058018Y-29805752D02*
X85962780Y-29853371D01*
X85962780Y-29853371D02*
X85915161Y-29948609D01*
X85915161Y-29948609D02*
X85915161Y-30472419D01*
X85010399Y-30472419D02*
X85010399Y-29472419D01*
X85010399Y-30424800D02*
X85105637Y-30472419D01*
X85105637Y-30472419D02*
X85296113Y-30472419D01*
X85296113Y-30472419D02*
X85391351Y-30424800D01*
X85391351Y-30424800D02*
X85438970Y-30377180D01*
X85438970Y-30377180D02*
X85486589Y-30281942D01*
X85486589Y-30281942D02*
X85486589Y-29996228D01*
X85486589Y-29996228D02*
X85438970Y-29900990D01*
X85438970Y-29900990D02*
X85391351Y-29853371D01*
X85391351Y-29853371D02*
X85296113Y-29805752D01*
X85296113Y-29805752D02*
X85105637Y-29805752D01*
X85105637Y-29805752D02*
X85010399Y-29853371D01*
X84534208Y-30091466D02*
X83772304Y-30091466D01*
X83391351Y-29472419D02*
X83153256Y-30472419D01*
X83153256Y-30472419D02*
X82962780Y-29758133D01*
X82962780Y-29758133D02*
X82772304Y-30472419D01*
X82772304Y-30472419D02*
X82534209Y-29472419D01*
X81772304Y-30424800D02*
X81867542Y-30472419D01*
X81867542Y-30472419D02*
X82058018Y-30472419D01*
X82058018Y-30472419D02*
X82153256Y-30424800D01*
X82153256Y-30424800D02*
X82200875Y-30329561D01*
X82200875Y-30329561D02*
X82200875Y-29948609D01*
X82200875Y-29948609D02*
X82153256Y-29853371D01*
X82153256Y-29853371D02*
X82058018Y-29805752D01*
X82058018Y-29805752D02*
X81867542Y-29805752D01*
X81867542Y-29805752D02*
X81772304Y-29853371D01*
X81772304Y-29853371D02*
X81724685Y-29948609D01*
X81724685Y-29948609D02*
X81724685Y-30043847D01*
X81724685Y-30043847D02*
X82200875Y-30139085D01*
X81296113Y-30472419D02*
X81296113Y-29805752D01*
X81296113Y-29472419D02*
X81343732Y-29520038D01*
X81343732Y-29520038D02*
X81296113Y-29567657D01*
X81296113Y-29567657D02*
X81248494Y-29520038D01*
X81248494Y-29520038D02*
X81296113Y-29472419D01*
X81296113Y-29472419D02*
X81296113Y-29567657D01*
X80391352Y-29805752D02*
X80391352Y-30615276D01*
X80391352Y-30615276D02*
X80438971Y-30710514D01*
X80438971Y-30710514D02*
X80486590Y-30758133D01*
X80486590Y-30758133D02*
X80581828Y-30805752D01*
X80581828Y-30805752D02*
X80724685Y-30805752D01*
X80724685Y-30805752D02*
X80819923Y-30758133D01*
X80391352Y-30424800D02*
X80486590Y-30472419D01*
X80486590Y-30472419D02*
X80677066Y-30472419D01*
X80677066Y-30472419D02*
X80772304Y-30424800D01*
X80772304Y-30424800D02*
X80819923Y-30377180D01*
X80819923Y-30377180D02*
X80867542Y-30281942D01*
X80867542Y-30281942D02*
X80867542Y-29996228D01*
X80867542Y-29996228D02*
X80819923Y-29900990D01*
X80819923Y-29900990D02*
X80772304Y-29853371D01*
X80772304Y-29853371D02*
X80677066Y-29805752D01*
X80677066Y-29805752D02*
X80486590Y-29805752D01*
X80486590Y-29805752D02*
X80391352Y-29853371D01*
X79915161Y-30472419D02*
X79915161Y-29472419D01*
X79486590Y-30472419D02*
X79486590Y-29948609D01*
X79486590Y-29948609D02*
X79534209Y-29853371D01*
X79534209Y-29853371D02*
X79629447Y-29805752D01*
X79629447Y-29805752D02*
X79772304Y-29805752D01*
X79772304Y-29805752D02*
X79867542Y-29853371D01*
X79867542Y-29853371D02*
X79915161Y-29900990D01*
X79010399Y-30472419D02*
X79010399Y-29805752D01*
X79010399Y-29472419D02*
X79058018Y-29520038D01*
X79058018Y-29520038D02*
X79010399Y-29567657D01*
X79010399Y-29567657D02*
X78962780Y-29520038D01*
X78962780Y-29520038D02*
X79010399Y-29472419D01*
X79010399Y-29472419D02*
X79010399Y-29567657D01*
X78534209Y-29805752D02*
X78534209Y-30472419D01*
X78534209Y-29900990D02*
X78486590Y-29853371D01*
X78486590Y-29853371D02*
X78391352Y-29805752D01*
X78391352Y-29805752D02*
X78248495Y-29805752D01*
X78248495Y-29805752D02*
X78153257Y-29853371D01*
X78153257Y-29853371D02*
X78105638Y-29948609D01*
X78105638Y-29948609D02*
X78105638Y-30472419D01*
X77200876Y-29805752D02*
X77200876Y-30615276D01*
X77200876Y-30615276D02*
X77248495Y-30710514D01*
X77248495Y-30710514D02*
X77296114Y-30758133D01*
X77296114Y-30758133D02*
X77391352Y-30805752D01*
X77391352Y-30805752D02*
X77534209Y-30805752D01*
X77534209Y-30805752D02*
X77629447Y-30758133D01*
X77200876Y-30424800D02*
X77296114Y-30472419D01*
X77296114Y-30472419D02*
X77486590Y-30472419D01*
X77486590Y-30472419D02*
X77581828Y-30424800D01*
X77581828Y-30424800D02*
X77629447Y-30377180D01*
X77629447Y-30377180D02*
X77677066Y-30281942D01*
X77677066Y-30281942D02*
X77677066Y-29996228D01*
X77677066Y-29996228D02*
X77629447Y-29900990D01*
X77629447Y-29900990D02*
X77581828Y-29853371D01*
X77581828Y-29853371D02*
X77486590Y-29805752D01*
X77486590Y-29805752D02*
X77296114Y-29805752D01*
X77296114Y-29805752D02*
X77200876Y-29853371D01*
D11*
%TO.C,G\u002A\u002A\u002A*%
G36*
X61332695Y-24072100D02*
G01*
X61347453Y-24093945D01*
X61335177Y-24109472D01*
X61298241Y-24116040D01*
X61293138Y-24116102D01*
X61261532Y-24112082D01*
X61252620Y-24097350D01*
X61253430Y-24090339D01*
X61270466Y-24066083D01*
X61301112Y-24059197D01*
X61332695Y-24072100D01*
G37*
G36*
X62391847Y-24057255D02*
G01*
X62403713Y-24075350D01*
X62403695Y-24092103D01*
X62390663Y-24098131D01*
X62358206Y-24094875D01*
X62335289Y-24090713D01*
X62309990Y-24079362D01*
X62309330Y-24064451D01*
X62330081Y-24052510D01*
X62355699Y-24049416D01*
X62391847Y-24057255D01*
G37*
G36*
X59277465Y-24802775D02*
G01*
X59270470Y-24821784D01*
X59235626Y-24847063D01*
X59235239Y-24847292D01*
X59205502Y-24863763D01*
X59193279Y-24864356D01*
X59190795Y-24848652D01*
X59190781Y-24844892D01*
X59201692Y-24811302D01*
X59227569Y-24789617D01*
X59257279Y-24788250D01*
X59277465Y-24802775D01*
G37*
G36*
X58118269Y-25803642D02*
G01*
X58146789Y-25828538D01*
X58153442Y-25861479D01*
X58143457Y-25907392D01*
X58117960Y-25933597D01*
X58083641Y-25937006D01*
X58047190Y-25914529D01*
X58044595Y-25911756D01*
X58023127Y-25872162D01*
X58025183Y-25834944D01*
X58046026Y-25807052D01*
X58080917Y-25795438D01*
X58118269Y-25803642D01*
G37*
G36*
X58481221Y-25444733D02*
G01*
X58499180Y-25476410D01*
X58496077Y-25519829D01*
X58491506Y-25531505D01*
X58466936Y-25561943D01*
X58432682Y-25564974D01*
X58393002Y-25544718D01*
X58367148Y-25512699D01*
X58367652Y-25477174D01*
X58393624Y-25446296D01*
X58404429Y-25440040D01*
X58447778Y-25430656D01*
X58481221Y-25444733D01*
G37*
G36*
X59656023Y-24595564D02*
G01*
X59674995Y-24624473D01*
X59684409Y-24670665D01*
X59667106Y-24704101D01*
X59635706Y-24721344D01*
X59600776Y-24728513D01*
X59576625Y-24717072D01*
X59569885Y-24710211D01*
X59548624Y-24669016D01*
X59554051Y-24627982D01*
X59581400Y-24597730D01*
X59622837Y-24582475D01*
X59656023Y-24595564D01*
G37*
G36*
X61085802Y-24115474D02*
G01*
X61105612Y-24141526D01*
X61108934Y-24150227D01*
X61113960Y-24195219D01*
X61098817Y-24228464D01*
X61070232Y-24245386D01*
X61034930Y-24241410D01*
X61006310Y-24220040D01*
X60986949Y-24181847D01*
X60991314Y-24144727D01*
X61015901Y-24117491D01*
X61050583Y-24108693D01*
X61085802Y-24115474D01*
G37*
G36*
X60049719Y-24308119D02*
G01*
X60074899Y-24332026D01*
X60088086Y-24348095D01*
X60112402Y-24381639D01*
X60119806Y-24400735D01*
X60111904Y-24414083D01*
X60101721Y-24422047D01*
X60065273Y-24440441D01*
X60041077Y-24432355D01*
X60029993Y-24408780D01*
X60021721Y-24360034D01*
X60023690Y-24321051D01*
X60033823Y-24302360D01*
X60049719Y-24308119D01*
G37*
G36*
X60713253Y-24199967D02*
G01*
X60737146Y-24229903D01*
X60745399Y-24266291D01*
X60731885Y-24301446D01*
X60731812Y-24301534D01*
X60699479Y-24320394D01*
X60659438Y-24320678D01*
X60631202Y-24305787D01*
X60614988Y-24272507D01*
X60615757Y-24232233D01*
X60632092Y-24198784D01*
X60643057Y-24190198D01*
X60679847Y-24184170D01*
X60713253Y-24199967D01*
G37*
G36*
X57385335Y-26926187D02*
G01*
X57415265Y-26943751D01*
X57422127Y-26954442D01*
X57425177Y-26985117D01*
X57421210Y-27013277D01*
X57406138Y-27041656D01*
X57374733Y-27050241D01*
X57370709Y-27050291D01*
X57333767Y-27044245D01*
X57311715Y-27032508D01*
X57295662Y-26998438D01*
X57298758Y-26958537D01*
X57315968Y-26931898D01*
X57347456Y-26921221D01*
X57385335Y-26926187D01*
G37*
G36*
X57797508Y-26206356D02*
G01*
X57828396Y-26229599D01*
X57842166Y-26267846D01*
X57842240Y-26271137D01*
X57830710Y-26311413D01*
X57801891Y-26334993D01*
X57764436Y-26336878D01*
X57744429Y-26327631D01*
X57725167Y-26306715D01*
X57710747Y-26283741D01*
X57701638Y-26255408D01*
X57713527Y-26231190D01*
X57723011Y-26221095D01*
X57759160Y-26202171D01*
X57797508Y-26206356D01*
G37*
G36*
X57957296Y-25998741D02*
G01*
X57993651Y-26030229D01*
X58001644Y-26066387D01*
X57982024Y-26102969D01*
X57960360Y-26124276D01*
X57941385Y-26128567D01*
X57910833Y-26118439D01*
X57906525Y-26116706D01*
X57872380Y-26090195D01*
X57862717Y-26053304D01*
X57879177Y-26014543D01*
X57885459Y-26007604D01*
X57910030Y-25986903D01*
X57931455Y-25986040D01*
X57957296Y-25998741D01*
G37*
G36*
X61848043Y-24048129D02*
G01*
X61867982Y-24077402D01*
X61868905Y-24112449D01*
X61846261Y-24146350D01*
X61843999Y-24148241D01*
X61814720Y-24169388D01*
X61793574Y-24172652D01*
X61766689Y-24160002D01*
X61765606Y-24159373D01*
X61745208Y-24133706D01*
X61738497Y-24096624D01*
X61745117Y-24060198D01*
X61764707Y-24036496D01*
X61769311Y-24034597D01*
X61813636Y-24031553D01*
X61848043Y-24048129D01*
G37*
G36*
X62693264Y-24045711D02*
G01*
X62682078Y-24128879D01*
X62669184Y-24184507D01*
X62654811Y-24211690D01*
X62650369Y-24214131D01*
X62627061Y-24211910D01*
X62599601Y-24203287D01*
X62565423Y-24184540D01*
X62547288Y-24157265D01*
X62540615Y-24112746D01*
X62540133Y-24090169D01*
X62550328Y-24028406D01*
X62580838Y-23987708D01*
X62630774Y-23969060D01*
X62650352Y-23967911D01*
X62701520Y-23967911D01*
X62693264Y-24045711D01*
G37*
G36*
X61919605Y-23142141D02*
G01*
X61924276Y-23149135D01*
X61921876Y-23178434D01*
X61893016Y-23212047D01*
X61836781Y-23250828D01*
X61784130Y-23279717D01*
X61735147Y-23306780D01*
X61713409Y-23323567D01*
X61719124Y-23329915D01*
X61720274Y-23329959D01*
X61752570Y-23336797D01*
X61759188Y-23354061D01*
X61741450Y-23379945D01*
X61700673Y-23412643D01*
X61638178Y-23450348D01*
X61628529Y-23455523D01*
X61589576Y-23476957D01*
X61575305Y-23487694D01*
X61583715Y-23489935D01*
X61598891Y-23488106D01*
X61633924Y-23480640D01*
X61687073Y-23466786D01*
X61748233Y-23449216D01*
X61763271Y-23444654D01*
X61830047Y-23425754D01*
X61896447Y-23409583D01*
X61949614Y-23399233D01*
X61955920Y-23398339D01*
X62160541Y-23365237D01*
X62370144Y-23319728D01*
X62443582Y-23300917D01*
X62552371Y-23273971D01*
X62661323Y-23250911D01*
X62766480Y-23232197D01*
X62863884Y-23218291D01*
X62949579Y-23209656D01*
X63019608Y-23206752D01*
X63070012Y-23210041D01*
X63096834Y-23219985D01*
X63099704Y-23224374D01*
X63094772Y-23252813D01*
X63061897Y-23285228D01*
X63000558Y-23322069D01*
X62966254Y-23338935D01*
X62918759Y-23362022D01*
X62882805Y-23380972D01*
X62866025Y-23391761D01*
X62865927Y-23391878D01*
X62843523Y-23407856D01*
X62799570Y-23430295D01*
X62740709Y-23456498D01*
X62673582Y-23483772D01*
X62604828Y-23509419D01*
X62541089Y-23530744D01*
X62489004Y-23545053D01*
X62488039Y-23545268D01*
X62373111Y-23576401D01*
X62265732Y-23616064D01*
X62175088Y-23660666D01*
X62145242Y-23679309D01*
X62094762Y-23713566D01*
X62187667Y-23721804D01*
X62250957Y-23727112D01*
X62327204Y-23733077D01*
X62399125Y-23738352D01*
X62470998Y-23745366D01*
X62545510Y-23755771D01*
X62606540Y-23767314D01*
X62606592Y-23767326D01*
X62674858Y-23782695D01*
X62749300Y-23798733D01*
X62784422Y-23806004D01*
X62842174Y-23819660D01*
X62921345Y-23841157D01*
X63015377Y-23868553D01*
X63117712Y-23899908D01*
X63221792Y-23933279D01*
X63280863Y-23952960D01*
X63371613Y-23984532D01*
X63438722Y-24010618D01*
X63487004Y-24034034D01*
X63521270Y-24057595D01*
X63546332Y-24084116D01*
X63567002Y-24116413D01*
X63570187Y-24122238D01*
X63587500Y-24157875D01*
X63589815Y-24177474D01*
X63578053Y-24189994D01*
X63577213Y-24190532D01*
X63565215Y-24202246D01*
X63573541Y-24204790D01*
X63589957Y-24216954D01*
X63592065Y-24227246D01*
X63584063Y-24246967D01*
X63577246Y-24249475D01*
X63564099Y-24261477D01*
X63562427Y-24271703D01*
X63552477Y-24291397D01*
X63543903Y-24293944D01*
X63544602Y-24299563D01*
X63566848Y-24313895D01*
X63587462Y-24324686D01*
X63635884Y-24351241D01*
X63664257Y-24376399D01*
X63680337Y-24409029D01*
X63688180Y-24439894D01*
X63693367Y-24472692D01*
X63687446Y-24483921D01*
X63671367Y-24481572D01*
X63644007Y-24476668D01*
X63596393Y-24470886D01*
X63537843Y-24465328D01*
X63525379Y-24464320D01*
X63447313Y-24456606D01*
X63360044Y-24445602D01*
X63288273Y-24434635D01*
X63217015Y-24423218D01*
X63143033Y-24412696D01*
X63082057Y-24405304D01*
X63080805Y-24405175D01*
X63025841Y-24398995D01*
X62977744Y-24392606D01*
X62954842Y-24388852D01*
X62933844Y-24385860D01*
X62935277Y-24391332D01*
X62960623Y-24408305D01*
X62965956Y-24411642D01*
X63004761Y-24440525D01*
X63015182Y-24461006D01*
X62997272Y-24473051D01*
X62951079Y-24476622D01*
X62880746Y-24472105D01*
X62794677Y-24467240D01*
X62736220Y-24472841D01*
X62705247Y-24488933D01*
X62700234Y-24509772D01*
X62708762Y-24574400D01*
X62714060Y-24640701D01*
X62715642Y-24698988D01*
X62713023Y-24739572D01*
X62712000Y-24744524D01*
X62702779Y-24781261D01*
X62625048Y-24746082D01*
X62570887Y-24724201D01*
X62518001Y-24706987D01*
X62493803Y-24701213D01*
X62457291Y-24697154D01*
X62439523Y-24704957D01*
X62432243Y-24722295D01*
X62427032Y-24737938D01*
X62417548Y-24744467D01*
X62397262Y-24741510D01*
X62359644Y-24728695D01*
X62326458Y-24716279D01*
X62268179Y-24697137D01*
X62207158Y-24681621D01*
X62149944Y-24670794D01*
X62103084Y-24665722D01*
X62073128Y-24667472D01*
X62065694Y-24673855D01*
X62075645Y-24689235D01*
X62102553Y-24720253D01*
X62142003Y-24762019D01*
X62177875Y-24798153D01*
X62225760Y-24846483D01*
X62266332Y-24889368D01*
X62294424Y-24921236D01*
X62303995Y-24934180D01*
X62309163Y-24948455D01*
X62300016Y-24954511D01*
X62270839Y-24953812D01*
X62239977Y-24950609D01*
X62186316Y-24940534D01*
X62132953Y-24924049D01*
X62087623Y-24904358D01*
X62058058Y-24884670D01*
X62050875Y-24872202D01*
X62039121Y-24857460D01*
X62009006Y-24834775D01*
X61984189Y-24819228D01*
X61946547Y-24795127D01*
X61922366Y-24775726D01*
X61917503Y-24768534D01*
X61905288Y-24755499D01*
X61875626Y-24739595D01*
X61873045Y-24738506D01*
X61842488Y-24722264D01*
X61828658Y-24707832D01*
X61828588Y-24707070D01*
X61815895Y-24697278D01*
X61791540Y-24694049D01*
X61763690Y-24688976D01*
X61754492Y-24679229D01*
X61741345Y-24669950D01*
X61708503Y-24664788D01*
X61695216Y-24664410D01*
X61654776Y-24661079D01*
X61637610Y-24649556D01*
X61635939Y-24640852D01*
X61630785Y-24622220D01*
X61613002Y-24599645D01*
X61579112Y-24569928D01*
X61525634Y-24529868D01*
X61480800Y-24498216D01*
X61388294Y-24448162D01*
X61296199Y-24427489D01*
X61203435Y-24435977D01*
X61191365Y-24439183D01*
X61139498Y-24453978D01*
X61187660Y-24473528D01*
X61225223Y-24494758D01*
X61234263Y-24517742D01*
X61218236Y-24542697D01*
X61210533Y-24560786D01*
X61224342Y-24585053D01*
X61233055Y-24594778D01*
X61255795Y-24623916D01*
X61265458Y-24646085D01*
X61265461Y-24646320D01*
X61252541Y-24667470D01*
X61221137Y-24685331D01*
X61182280Y-24693924D01*
X61177418Y-24694049D01*
X61165756Y-24697374D01*
X61167039Y-24709848D01*
X61183325Y-24735212D01*
X61216674Y-24777212D01*
X61235680Y-24800018D01*
X61278606Y-24853063D01*
X61303262Y-24889070D01*
X61312057Y-24912231D01*
X61308063Y-24925981D01*
X61288816Y-24941234D01*
X61263237Y-24943250D01*
X61226146Y-24930778D01*
X61172363Y-24902570D01*
X61145179Y-24886697D01*
X61096971Y-24858712D01*
X61058933Y-24837848D01*
X61037876Y-24827809D01*
X61036166Y-24827421D01*
X61019835Y-24820008D01*
X60986231Y-24800643D01*
X60945850Y-24775554D01*
X60891530Y-24742593D01*
X60857293Y-24726721D01*
X60839831Y-24726825D01*
X60835706Y-24738506D01*
X60821736Y-24745603D01*
X60783190Y-24751062D01*
X60725109Y-24754285D01*
X60698629Y-24754802D01*
X60615685Y-24756696D01*
X60557782Y-24761202D01*
X60520348Y-24769691D01*
X60498809Y-24783535D01*
X60488596Y-24804106D01*
X60486176Y-24818534D01*
X60491534Y-24858663D01*
X60517562Y-24906946D01*
X60532717Y-24927818D01*
X60567972Y-24978435D01*
X60582544Y-25011512D01*
X60575761Y-25027156D01*
X60546953Y-25025475D01*
X60495448Y-25006575D01*
X60420574Y-24970564D01*
X60384269Y-24951572D01*
X60296057Y-24906578D01*
X60223998Y-24875241D01*
X60159553Y-24854826D01*
X60094183Y-24842595D01*
X60024024Y-24836100D01*
X59923426Y-24838415D01*
X59843677Y-24858987D01*
X59786064Y-24897347D01*
X59760634Y-24932478D01*
X59739792Y-24958979D01*
X59701722Y-24987666D01*
X59642193Y-25021430D01*
X59598028Y-25043574D01*
X59523959Y-25081410D01*
X59477492Y-25109490D01*
X59458324Y-25128061D01*
X59466157Y-25137365D01*
X59481173Y-25138623D01*
X59512008Y-25146626D01*
X59554312Y-25166492D01*
X59596067Y-25192006D01*
X59618000Y-25209394D01*
X59631433Y-25234159D01*
X59619977Y-25255895D01*
X59588357Y-25272714D01*
X59541300Y-25282731D01*
X59483532Y-25284058D01*
X59442675Y-25279399D01*
X59396785Y-25279408D01*
X59331256Y-25289560D01*
X59253560Y-25308024D01*
X59171170Y-25332969D01*
X59091558Y-25362563D01*
X59075430Y-25369397D01*
X59038526Y-25383616D01*
X59012570Y-25390443D01*
X59010730Y-25390548D01*
X58991026Y-25398637D01*
X58955763Y-25419697D01*
X58918613Y-25444938D01*
X58836162Y-25507745D01*
X58780650Y-25559154D01*
X58751818Y-25599546D01*
X58749407Y-25629303D01*
X58773160Y-25648807D01*
X58779264Y-25650968D01*
X58823957Y-25671793D01*
X58863405Y-25701204D01*
X58889100Y-25731957D01*
X58894399Y-25748994D01*
X58889291Y-25771680D01*
X58883284Y-25776111D01*
X58846584Y-25779550D01*
X58792301Y-25787581D01*
X58729109Y-25798572D01*
X58665683Y-25810890D01*
X58610699Y-25822901D01*
X58572830Y-25832974D01*
X58564289Y-25836153D01*
X58534682Y-25854669D01*
X58532011Y-25872366D01*
X58557115Y-25891440D01*
X58591240Y-25906620D01*
X58632922Y-25925777D01*
X58664278Y-25944777D01*
X58669465Y-25949176D01*
X58694952Y-25965932D01*
X58706513Y-25968731D01*
X58726540Y-25977794D01*
X58757121Y-25999563D01*
X58789023Y-26026384D01*
X58813012Y-26050601D01*
X58820303Y-26063065D01*
X58806898Y-26068084D01*
X58772319Y-26071413D01*
X58738798Y-26072228D01*
X58687163Y-26075575D01*
X58660177Y-26084922D01*
X58659705Y-26099234D01*
X58672112Y-26109276D01*
X58687699Y-26125926D01*
X58675542Y-26138177D01*
X58637326Y-26145137D01*
X58601721Y-26146407D01*
X58543093Y-26149171D01*
X58487282Y-26156141D01*
X58462709Y-26161434D01*
X58415368Y-26181001D01*
X58371464Y-26209791D01*
X58337683Y-26241965D01*
X58320707Y-26271681D01*
X58321080Y-26285201D01*
X58317033Y-26309907D01*
X58293792Y-26333207D01*
X58261262Y-26348077D01*
X58231968Y-26348371D01*
X58209578Y-26351842D01*
X58180214Y-26376085D01*
X58146032Y-26416477D01*
X58105250Y-26467127D01*
X58055376Y-26526794D01*
X58007340Y-26582407D01*
X57917838Y-26701094D01*
X57854039Y-26824257D01*
X57834440Y-26879871D01*
X57828066Y-26903597D01*
X57826032Y-26925028D01*
X57830026Y-26949296D01*
X57841735Y-26981537D01*
X57862846Y-27026885D01*
X57895047Y-27090475D01*
X57918700Y-27136252D01*
X57964929Y-27225361D01*
X58000007Y-27292524D01*
X58026280Y-27342180D01*
X58046097Y-27378768D01*
X58060419Y-27404312D01*
X58072956Y-27399966D01*
X58100410Y-27382148D01*
X58112286Y-27373433D01*
X58191580Y-27327902D01*
X58275694Y-27304499D01*
X58309043Y-27302217D01*
X58359270Y-27296949D01*
X58402370Y-27286222D01*
X58451655Y-27278176D01*
X58473808Y-27284527D01*
X58487988Y-27295894D01*
X58480615Y-27307474D01*
X58456070Y-27321771D01*
X58419474Y-27346402D01*
X58381647Y-27379711D01*
X58350187Y-27414003D01*
X58332690Y-27441581D01*
X58331272Y-27448203D01*
X58341535Y-27469778D01*
X58369750Y-27471035D01*
X58409342Y-27453368D01*
X58470738Y-27425164D01*
X58526960Y-27414872D01*
X58572821Y-27421809D01*
X58603134Y-27445296D01*
X58612835Y-27480106D01*
X58625283Y-27505115D01*
X58653378Y-27520452D01*
X58683249Y-27519103D01*
X58686492Y-27517365D01*
X58711893Y-27515258D01*
X58737619Y-27529599D01*
X58751795Y-27551926D01*
X58750906Y-27563273D01*
X58753280Y-27589010D01*
X58774491Y-27604742D01*
X58799019Y-27603596D01*
X58816023Y-27588679D01*
X58843911Y-27555821D01*
X58877073Y-27511705D01*
X58881868Y-27504938D01*
X58920283Y-27445261D01*
X58942359Y-27394021D01*
X58952252Y-27338247D01*
X58954191Y-27279331D01*
X58962519Y-27240146D01*
X58992382Y-27211728D01*
X58996963Y-27208941D01*
X59046668Y-27186649D01*
X59082019Y-27185635D01*
X59100112Y-27205597D01*
X59101867Y-27219747D01*
X59108752Y-27271548D01*
X59126783Y-27311180D01*
X59152023Y-27330929D01*
X59159088Y-27331855D01*
X59185817Y-27317927D01*
X59211092Y-27279644D01*
X59232070Y-27222257D01*
X59241690Y-27179277D01*
X59258025Y-27132159D01*
X59284200Y-27110269D01*
X59315971Y-27097644D01*
X59362824Y-27078835D01*
X59396547Y-27065220D01*
X59458820Y-27044766D01*
X59508896Y-27040552D01*
X59529920Y-27043356D01*
X59645713Y-27053548D01*
X59780509Y-27043409D01*
X59826740Y-27035440D01*
X59851647Y-27024710D01*
X59863449Y-27006125D01*
X59867583Y-26989473D01*
X59882969Y-26954541D01*
X59916935Y-26935814D01*
X59922488Y-26934263D01*
X59974394Y-26933103D01*
X60032271Y-26949772D01*
X60083141Y-26979309D01*
X60107671Y-27005046D01*
X60139060Y-27031189D01*
X60178649Y-27029551D01*
X60224981Y-27000376D01*
X60243738Y-26982447D01*
X60278092Y-26949450D01*
X60311971Y-26925030D01*
X60350542Y-26907933D01*
X60398970Y-26896899D01*
X60462422Y-26890674D01*
X60546064Y-26887999D01*
X60633752Y-26887574D01*
X60724644Y-26888636D01*
X60814126Y-26891360D01*
X60893988Y-26895383D01*
X60956020Y-26900341D01*
X60975470Y-26902714D01*
X61029736Y-26909966D01*
X61064739Y-26910940D01*
X61090546Y-26903620D01*
X61117223Y-26885991D01*
X61136864Y-26870406D01*
X61187401Y-26839884D01*
X61245264Y-26819921D01*
X61301258Y-26812302D01*
X61346193Y-26818809D01*
X61360585Y-26827008D01*
X61393779Y-26837589D01*
X61435004Y-26834601D01*
X61476770Y-26832836D01*
X61520709Y-26839791D01*
X61557003Y-26852785D01*
X61575833Y-26869138D01*
X61576662Y-26873261D01*
X61588862Y-26886838D01*
X61606301Y-26894690D01*
X61630476Y-26914613D01*
X61635939Y-26933202D01*
X61645729Y-26961197D01*
X61657787Y-26970691D01*
X61677368Y-26971840D01*
X61699423Y-26957444D01*
X61728544Y-26923612D01*
X61752873Y-26890159D01*
X61778393Y-26858760D01*
X61801693Y-26847738D01*
X61833890Y-26851232D01*
X61875066Y-26864053D01*
X61926333Y-26885078D01*
X61950353Y-26896516D01*
X61994418Y-26916651D01*
X62030211Y-26929400D01*
X62042973Y-26931738D01*
X62062967Y-26941880D01*
X62065694Y-26951003D01*
X62074778Y-26983414D01*
X62101726Y-26992454D01*
X62146080Y-26978047D01*
X62165948Y-26967267D01*
X62215026Y-26943099D01*
X62252537Y-26937021D01*
X62270630Y-26940153D01*
X62307430Y-26949877D01*
X62330011Y-26955161D01*
X62354084Y-26965331D01*
X62390549Y-26986029D01*
X62404107Y-26994633D01*
X62467606Y-27030422D01*
X62514587Y-27044361D01*
X62543975Y-27036383D01*
X62554698Y-27006419D01*
X62554725Y-27004248D01*
X62566972Y-26983467D01*
X62600105Y-26976294D01*
X62648713Y-26982663D01*
X62707387Y-27002512D01*
X62715649Y-27006159D01*
X62758471Y-27023656D01*
X62792357Y-27034138D01*
X62801673Y-27035472D01*
X62825914Y-27044247D01*
X62869159Y-27068747D01*
X62927228Y-27106236D01*
X62995938Y-27153976D01*
X63071109Y-27209231D01*
X63095624Y-27227883D01*
X63173394Y-27285500D01*
X63233943Y-27325170D01*
X63281613Y-27349280D01*
X63320747Y-27360218D01*
X63338660Y-27361493D01*
X63384076Y-27367693D01*
X63434044Y-27382893D01*
X63440645Y-27385654D01*
X63483562Y-27399258D01*
X63543194Y-27411731D01*
X63606659Y-27420381D01*
X63606884Y-27420402D01*
X63710277Y-27436256D01*
X63803821Y-27465085D01*
X63897901Y-27510739D01*
X63969953Y-27554977D01*
X64028427Y-27591087D01*
X64087305Y-27623816D01*
X64135075Y-27646814D01*
X64140373Y-27648955D01*
X64184181Y-27670483D01*
X64240383Y-27704206D01*
X64298352Y-27743648D01*
X64310793Y-27752830D01*
X64383652Y-27807051D01*
X64439298Y-27846704D01*
X64483899Y-27875431D01*
X64523623Y-27896879D01*
X64564638Y-27914691D01*
X64613111Y-27932511D01*
X64617467Y-27934036D01*
X64689281Y-27953873D01*
X64756303Y-27962965D01*
X64812003Y-27961192D01*
X64849854Y-27948429D01*
X64859630Y-27938583D01*
X64877131Y-27932861D01*
X64917751Y-27928260D01*
X64974974Y-27925328D01*
X65026691Y-27924552D01*
X65104743Y-27923417D01*
X65162522Y-27919183D01*
X65209342Y-27910481D01*
X65254519Y-27895946D01*
X65274029Y-27888269D01*
X65329525Y-27862324D01*
X65367964Y-27833458D01*
X65401167Y-27792077D01*
X65411106Y-27776987D01*
X65437237Y-27732369D01*
X65455060Y-27694510D01*
X65460084Y-27676193D01*
X65472138Y-27654314D01*
X65502337Y-27625148D01*
X65530475Y-27604345D01*
X65570211Y-27576344D01*
X65590357Y-27554377D01*
X65596700Y-27529166D01*
X65595679Y-27499813D01*
X65597796Y-27452230D01*
X65615381Y-27420077D01*
X65621612Y-27413971D01*
X65644126Y-27387903D01*
X65651925Y-27369400D01*
X65653801Y-27359366D01*
X65661519Y-27345535D01*
X65678217Y-27324074D01*
X65707029Y-27291150D01*
X65751093Y-27242929D01*
X65787998Y-27203075D01*
X65830577Y-27152782D01*
X65853110Y-27113640D01*
X65859393Y-27080817D01*
X65855178Y-27049220D01*
X65844994Y-27035490D01*
X65844574Y-27035472D01*
X65830288Y-27030298D01*
X65839451Y-27014117D01*
X65872995Y-26985942D01*
X65926886Y-26948109D01*
X65999599Y-26892297D01*
X66044281Y-26840944D01*
X66061967Y-26792734D01*
X66062004Y-26776693D01*
X66069804Y-26754193D01*
X66101418Y-26738431D01*
X66111318Y-26735660D01*
X66152920Y-26718921D01*
X66183911Y-26696397D01*
X66185414Y-26694632D01*
X66214833Y-26672140D01*
X66256244Y-26654824D01*
X66259487Y-26653964D01*
X66300388Y-26636318D01*
X66316070Y-26613387D01*
X66305330Y-26590008D01*
X66279112Y-26575051D01*
X66237281Y-26559118D01*
X66298941Y-26503258D01*
X66342735Y-26467697D01*
X66386389Y-26438651D01*
X66406379Y-26428435D01*
X66438561Y-26408047D01*
X66452141Y-26384879D01*
X66452158Y-26384136D01*
X66464265Y-26360071D01*
X66492911Y-26338306D01*
X66559375Y-26300065D01*
X66596986Y-26266771D01*
X66605662Y-26238567D01*
X66585324Y-26215600D01*
X66566334Y-26206881D01*
X66550747Y-26198646D01*
X66552546Y-26187547D01*
X66574598Y-26168107D01*
X66594329Y-26153391D01*
X66639276Y-26118919D01*
X66681529Y-26084135D01*
X66692265Y-26074676D01*
X66717920Y-26048872D01*
X66723772Y-26028652D01*
X66712715Y-26000543D01*
X66709529Y-25994335D01*
X66696849Y-25966080D01*
X66697716Y-25945472D01*
X66715043Y-25921513D01*
X66734128Y-25901389D01*
X66760673Y-25869719D01*
X66773553Y-25845585D01*
X66773311Y-25839233D01*
X66777914Y-25821639D01*
X66799807Y-25794341D01*
X66831944Y-25764560D01*
X66867282Y-25739516D01*
X66874504Y-25735507D01*
X66907443Y-25723580D01*
X66954190Y-25712398D01*
X66970828Y-25709456D01*
X67037491Y-25692635D01*
X67082909Y-25667725D01*
X67103400Y-25636944D01*
X67104200Y-25629127D01*
X67111517Y-25600583D01*
X67136561Y-25581267D01*
X67183975Y-25568562D01*
X67220618Y-25563517D01*
X67282703Y-25552060D01*
X67323224Y-25535432D01*
X67340210Y-25515865D01*
X67331687Y-25495590D01*
X67296849Y-25477242D01*
X67266205Y-25463842D01*
X67252680Y-25452540D01*
X67252645Y-25452080D01*
X67265773Y-25441366D01*
X67300342Y-25424138D01*
X67349647Y-25403162D01*
X67406980Y-25381200D01*
X67465633Y-25361016D01*
X67496907Y-25351418D01*
X67548180Y-25341123D01*
X67615746Y-25333616D01*
X67686290Y-25330304D01*
X67696966Y-25330258D01*
X67778005Y-25328023D01*
X67830301Y-25320707D01*
X67854343Y-25308132D01*
X67850617Y-25290124D01*
X67838620Y-25279123D01*
X67801797Y-25262354D01*
X67768229Y-25257176D01*
X67738275Y-25251776D01*
X67726604Y-25239607D01*
X67717215Y-25217263D01*
X67694602Y-25187974D01*
X67694276Y-25187626D01*
X67674214Y-25163640D01*
X67670075Y-25143414D01*
X67680771Y-25113901D01*
X67687019Y-25100636D01*
X67719568Y-25055486D01*
X67754271Y-25033355D01*
X67799449Y-25003025D01*
X67826542Y-24953266D01*
X67832096Y-24890425D01*
X67832094Y-24890402D01*
X67818409Y-24873917D01*
X67808109Y-24871878D01*
X67794124Y-24863939D01*
X67787298Y-24836455D01*
X67785881Y-24797858D01*
X67787184Y-24753358D01*
X67795744Y-24727502D01*
X67818532Y-24709313D01*
X67852897Y-24692337D01*
X67898617Y-24666486D01*
X67936257Y-24637782D01*
X67946839Y-24626605D01*
X67972719Y-24599929D01*
X68012014Y-24570650D01*
X68069897Y-24535195D01*
X68119311Y-24507489D01*
X68160274Y-24481746D01*
X68193407Y-24456110D01*
X68235100Y-24435199D01*
X68301072Y-24424710D01*
X68304550Y-24424500D01*
X68351925Y-24420341D01*
X68376573Y-24412839D01*
X68385402Y-24399108D01*
X68386056Y-24390459D01*
X68373430Y-24363229D01*
X68356417Y-24355678D01*
X68319553Y-24343132D01*
X68311212Y-24323297D01*
X68331188Y-24295176D01*
X68341903Y-24285619D01*
X68377244Y-24258602D01*
X68413487Y-24238491D01*
X68458517Y-24222177D01*
X68520219Y-24206554D01*
X68568959Y-24196129D01*
X68637410Y-24180439D01*
X68682698Y-24164982D01*
X68711079Y-24146380D01*
X68728809Y-24121254D01*
X68735199Y-24106343D01*
X68761267Y-24076585D01*
X68811455Y-24056194D01*
X68856493Y-24040914D01*
X68891823Y-24023291D01*
X68898885Y-24018035D01*
X68925696Y-24004261D01*
X68971061Y-23990096D01*
X69014520Y-23980644D01*
X69072614Y-23967431D01*
X69108811Y-23950714D01*
X69129503Y-23929141D01*
X69157082Y-23902813D01*
X69184289Y-23893312D01*
X69217194Y-23886663D01*
X69260994Y-23870658D01*
X69275204Y-23864177D01*
X69314856Y-23846533D01*
X69344197Y-23836151D01*
X69350330Y-23835042D01*
X69366268Y-23822440D01*
X69384715Y-23792169D01*
X69387378Y-23786376D01*
X69408098Y-23752394D01*
X69431960Y-23743042D01*
X69438214Y-23743806D01*
X69482487Y-23749627D01*
X69508498Y-23743286D01*
X69526353Y-23721211D01*
X69531752Y-23710738D01*
X69551058Y-23681457D01*
X69575596Y-23674185D01*
X69594071Y-23676766D01*
X69633891Y-23675391D01*
X69658264Y-23656685D01*
X69660744Y-23626018D01*
X69659470Y-23622316D01*
X69642557Y-23599054D01*
X69611262Y-23569448D01*
X69599938Y-23560407D01*
X69565500Y-23528392D01*
X69551209Y-23495386D01*
X69549358Y-23469741D01*
X69557676Y-23409617D01*
X69582161Y-23374262D01*
X69622105Y-23364081D01*
X69676803Y-23379477D01*
X69693178Y-23387625D01*
X69732567Y-23400612D01*
X69768672Y-23404784D01*
X69812067Y-23414103D01*
X69849784Y-23434422D01*
X69896496Y-23460085D01*
X69935670Y-23459543D01*
X69963984Y-23433005D01*
X69966990Y-23427012D01*
X69986746Y-23397730D01*
X70011763Y-23392962D01*
X70047615Y-23412342D01*
X70059010Y-23420986D01*
X70097399Y-23441570D01*
X70153593Y-23460860D01*
X70216918Y-23476343D01*
X70276696Y-23485507D01*
X70322252Y-23485838D01*
X70329050Y-23484541D01*
X70363620Y-23469130D01*
X70380436Y-23455197D01*
X70405640Y-23441658D01*
X70445926Y-23434678D01*
X70455140Y-23434422D01*
X70492791Y-23432054D01*
X70509197Y-23421757D01*
X70512602Y-23400981D01*
X70508478Y-23363234D01*
X70498527Y-23318472D01*
X70498205Y-23317342D01*
X70491535Y-23272675D01*
X70503791Y-23233745D01*
X70508802Y-23224833D01*
X70533653Y-23195599D01*
X70556542Y-23189037D01*
X70584994Y-23196887D01*
X70627188Y-23208228D01*
X70638564Y-23211249D01*
X70692346Y-23227990D01*
X70723219Y-23247169D01*
X70737565Y-23275735D01*
X70741769Y-23320641D01*
X70741833Y-23323692D01*
X70748836Y-23379653D01*
X70766820Y-23410284D01*
X70766921Y-23410358D01*
X70790042Y-23439436D01*
X70796311Y-23456850D01*
X70813042Y-23486159D01*
X70847217Y-23491723D01*
X70898611Y-23473596D01*
X70967000Y-23431828D01*
X70996683Y-23410305D01*
X71053451Y-23377587D01*
X71101541Y-23372503D01*
X71143393Y-23395213D01*
X71165909Y-23421379D01*
X71191885Y-23450072D01*
X71215255Y-23463849D01*
X71217520Y-23464060D01*
X71234926Y-23467622D01*
X71235077Y-23481795D01*
X71217160Y-23511810D01*
X71208114Y-23524723D01*
X71185516Y-23573001D01*
X71184322Y-23618463D01*
X71203844Y-23653318D01*
X71220419Y-23664015D01*
X71244695Y-23683756D01*
X71244525Y-23701063D01*
X71231090Y-23753074D01*
X71229536Y-23809884D01*
X71238246Y-23863995D01*
X71255602Y-23907906D01*
X71279987Y-23934117D01*
X71295674Y-23938273D01*
X71323614Y-23948334D01*
X71333013Y-23960501D01*
X71352589Y-23980452D01*
X71382618Y-23976425D01*
X71414820Y-23951556D01*
X71436690Y-23932271D01*
X71459526Y-23928114D01*
X71495975Y-23937186D01*
X71500607Y-23938668D01*
X71544935Y-23954360D01*
X71572210Y-23971206D01*
X71585932Y-23996091D01*
X71589603Y-24035898D01*
X71586723Y-24097511D01*
X71586099Y-24106761D01*
X71583052Y-24195613D01*
X71588271Y-24257942D01*
X71602311Y-24295842D01*
X71625723Y-24311404D01*
X71640180Y-24311591D01*
X71740470Y-24299612D01*
X71844543Y-24289132D01*
X71874091Y-24286439D01*
X71931452Y-24278476D01*
X71982845Y-24266558D01*
X72010432Y-24256317D01*
X72044098Y-24241076D01*
X72066609Y-24234656D01*
X72066726Y-24234655D01*
X72081943Y-24248715D01*
X72096909Y-24287893D01*
X72110327Y-24347688D01*
X72120788Y-24422524D01*
X72130033Y-24481057D01*
X72143196Y-24514121D01*
X72155151Y-24524156D01*
X72184833Y-24530893D01*
X72230689Y-24535658D01*
X72283985Y-24538259D01*
X72335987Y-24538504D01*
X72377960Y-24536200D01*
X72401171Y-24531156D01*
X72402929Y-24529602D01*
X72422015Y-24520495D01*
X72457415Y-24516258D01*
X72461254Y-24516219D01*
X72495698Y-24519232D01*
X72510744Y-24534190D01*
X72515951Y-24564381D01*
X72523185Y-24598381D01*
X72542475Y-24613011D01*
X72567653Y-24617105D01*
X72596429Y-24621523D01*
X72617898Y-24631876D01*
X72637858Y-24653801D01*
X72662108Y-24692936D01*
X72681622Y-24727917D01*
X72707286Y-24777272D01*
X72717617Y-24810210D01*
X72712599Y-24835691D01*
X72692214Y-24862675D01*
X72681346Y-24874236D01*
X72656816Y-24903596D01*
X72652440Y-24923479D01*
X72660932Y-24938029D01*
X72688245Y-24954015D01*
X72727707Y-24960791D01*
X72728292Y-24960793D01*
X72768540Y-24967934D01*
X72785657Y-24983983D01*
X72805515Y-25000886D01*
X72842815Y-25002507D01*
X72876255Y-25002149D01*
X72890660Y-25015170D01*
X72895485Y-25042893D01*
X72887418Y-25096166D01*
X72865207Y-25139218D01*
X72840752Y-25175740D01*
X72822755Y-25203277D01*
X72819907Y-25207819D01*
X72820057Y-25231113D01*
X72840619Y-25254128D01*
X72873228Y-25269484D01*
X72892653Y-25271995D01*
X72932882Y-25280208D01*
X72964965Y-25295453D01*
X73006711Y-25310899D01*
X73032222Y-25308926D01*
X73078806Y-25307984D01*
X73124166Y-25328461D01*
X73156090Y-25364249D01*
X73159801Y-25372742D01*
X73166217Y-25404002D01*
X73156799Y-25433535D01*
X73137668Y-25461928D01*
X73114296Y-25498967D01*
X73109351Y-25528463D01*
X73114914Y-25550842D01*
X73120434Y-25588610D01*
X73114471Y-25642926D01*
X73103224Y-25693965D01*
X73089205Y-25768989D01*
X73080743Y-25861278D01*
X73077368Y-25976358D01*
X73077265Y-25999373D01*
X73076501Y-26075546D01*
X73074605Y-26142351D01*
X73071842Y-26193519D01*
X73068480Y-26222778D01*
X73067641Y-26225773D01*
X73062756Y-26264369D01*
X73073264Y-26299971D01*
X73094913Y-26321741D01*
X73106233Y-26324154D01*
X73130160Y-26317894D01*
X73135589Y-26309334D01*
X73146866Y-26294946D01*
X73150408Y-26294515D01*
X73163730Y-26306441D01*
X73165227Y-26315686D01*
X73174984Y-26343277D01*
X73186308Y-26357936D01*
X73204400Y-26383311D01*
X73226841Y-26424622D01*
X73250146Y-26473920D01*
X73270830Y-26523255D01*
X73285409Y-26564677D01*
X73290397Y-26590237D01*
X73289572Y-26593516D01*
X73291944Y-26613558D01*
X73308262Y-26638266D01*
X73338850Y-26667548D01*
X73381537Y-26702405D01*
X73428847Y-26737455D01*
X73473305Y-26767314D01*
X73507437Y-26786598D01*
X73520203Y-26790890D01*
X73557186Y-26801219D01*
X73605373Y-26823395D01*
X73652507Y-26851147D01*
X73681495Y-26873404D01*
X73708169Y-26894695D01*
X73748930Y-26921191D01*
X73807285Y-26954953D01*
X73886737Y-26998046D01*
X73948546Y-27030570D01*
X74009107Y-27065646D01*
X74077387Y-27110373D01*
X74138630Y-27155083D01*
X74138765Y-27155189D01*
X74203808Y-27202856D01*
X74269243Y-27244858D01*
X74328791Y-27277649D01*
X74376179Y-27297682D01*
X74399004Y-27302217D01*
X74424514Y-27310059D01*
X74460895Y-27329543D01*
X74470948Y-27336040D01*
X74553081Y-27384245D01*
X74626204Y-27413075D01*
X74676050Y-27420770D01*
X74723572Y-27427939D01*
X74767541Y-27443954D01*
X74805281Y-27456926D01*
X74860447Y-27468334D01*
X74918702Y-27475471D01*
X75001591Y-27487403D01*
X75064920Y-27507843D01*
X75076896Y-27514114D01*
X75121174Y-27543245D01*
X75171013Y-27580955D01*
X75219879Y-27621657D01*
X75261235Y-27659760D01*
X75288548Y-27689676D01*
X75295328Y-27700924D01*
X75311240Y-27730290D01*
X75329140Y-27754200D01*
X75359563Y-27810267D01*
X75374913Y-27888605D01*
X75376630Y-27932030D01*
X75377560Y-27967204D01*
X75380206Y-28025271D01*
X75384219Y-28099560D01*
X75389250Y-28183398D01*
X75392314Y-28231033D01*
X75398055Y-28322553D01*
X75401205Y-28391403D01*
X75401460Y-28444465D01*
X75398515Y-28488620D01*
X75392066Y-28530747D01*
X75381808Y-28577728D01*
X75375882Y-28602227D01*
X75361340Y-28665962D01*
X75350207Y-28723207D01*
X75344212Y-28764706D01*
X75343640Y-28774725D01*
X75335976Y-28805859D01*
X75310961Y-28844939D01*
X75265564Y-28896570D01*
X75258748Y-28903677D01*
X75217455Y-28944361D01*
X75182464Y-28975062D01*
X75159765Y-28990641D01*
X75156249Y-28991598D01*
X75135987Y-28999391D01*
X75133702Y-29002713D01*
X75120435Y-29015984D01*
X75088899Y-29042435D01*
X75044593Y-29077541D01*
X75017048Y-29098691D01*
X74964631Y-29139281D01*
X74930739Y-29169338D01*
X74910037Y-29195915D01*
X74897191Y-29226061D01*
X74886865Y-29266826D01*
X74885628Y-29272380D01*
X74876369Y-29322948D01*
X74872442Y-29363564D01*
X74873941Y-29382101D01*
X74873281Y-29404290D01*
X74865207Y-29447879D01*
X74851169Y-29505986D01*
X74837588Y-29554979D01*
X74803289Y-29658981D01*
X74760995Y-29766252D01*
X74713913Y-29870071D01*
X74665249Y-29963721D01*
X74618207Y-30040482D01*
X74585413Y-30083505D01*
X74562110Y-30119669D01*
X74550542Y-30147491D01*
X74527223Y-30194921D01*
X74482998Y-30248566D01*
X74415496Y-30311088D01*
X74375733Y-30343755D01*
X74330441Y-30381654D01*
X74293911Y-30415439D01*
X74272908Y-30438783D01*
X74271234Y-30441508D01*
X74253869Y-30465310D01*
X74219630Y-30504957D01*
X74172925Y-30555667D01*
X74118163Y-30612661D01*
X74059753Y-30671157D01*
X74056507Y-30674337D01*
X74017578Y-30706353D01*
X73979112Y-30728726D01*
X73967592Y-30732778D01*
X73925409Y-30746431D01*
X73882498Y-30764250D01*
X73860058Y-30772045D01*
X73828174Y-30777484D01*
X73782627Y-30780769D01*
X73719198Y-30782103D01*
X73633667Y-30781689D01*
X73549068Y-30780286D01*
X73447771Y-30778075D01*
X73368601Y-30775276D01*
X73304047Y-30770844D01*
X73246601Y-30763732D01*
X73188753Y-30752897D01*
X73122996Y-30737292D01*
X73041819Y-30715871D01*
X72994807Y-30703118D01*
X72936819Y-30690585D01*
X72868312Y-30680262D01*
X72827937Y-30676246D01*
X72774875Y-30669565D01*
X72731497Y-30659054D01*
X72710811Y-30649322D01*
X72692464Y-30641006D01*
X72658182Y-30635120D01*
X72604296Y-30631378D01*
X72527136Y-30629488D01*
X72454432Y-30629113D01*
X72222404Y-30629113D01*
X72241443Y-30592416D01*
X72251760Y-30556255D01*
X72239980Y-30537180D01*
X72209550Y-30539109D01*
X72198578Y-30543742D01*
X72159997Y-30557734D01*
X72113836Y-30568795D01*
X72113068Y-30568927D01*
X72069979Y-30584353D01*
X72036699Y-30609508D01*
X72035598Y-30610881D01*
X72019377Y-30630332D01*
X72011991Y-30629769D01*
X72009868Y-30605344D01*
X72009664Y-30582927D01*
X72015474Y-30532723D01*
X72030606Y-30474072D01*
X72040746Y-30446338D01*
X72060873Y-30389709D01*
X72063391Y-30354114D01*
X72046809Y-30335715D01*
X72009639Y-30330676D01*
X71996014Y-30331101D01*
X71955752Y-30335396D01*
X71929316Y-30342296D01*
X71926002Y-30344437D01*
X71907801Y-30345181D01*
X71895222Y-30337675D01*
X71872345Y-30328394D01*
X71857551Y-30337804D01*
X71834199Y-30352727D01*
X71808409Y-30347989D01*
X71774312Y-30321596D01*
X71755786Y-30303250D01*
X71718089Y-30271511D01*
X71682840Y-30253318D01*
X71671678Y-30251383D01*
X71633699Y-30243138D01*
X71602012Y-30227767D01*
X71559497Y-30212229D01*
X71534346Y-30214423D01*
X71518337Y-30221664D01*
X71509479Y-30235147D01*
X71506427Y-30261590D01*
X71507840Y-30307711D01*
X71509652Y-30337910D01*
X71514546Y-30397518D01*
X71520772Y-30449145D01*
X71527068Y-30482534D01*
X71527702Y-30484626D01*
X71531305Y-30510141D01*
X71515765Y-30517884D01*
X71512084Y-30517969D01*
X71479873Y-30508433D01*
X71460886Y-30495614D01*
X71436869Y-30485564D01*
X71394066Y-30476846D01*
X71341772Y-30470308D01*
X71289282Y-30466802D01*
X71245890Y-30467177D01*
X71220892Y-30472284D01*
X71219302Y-30473512D01*
X71213487Y-30491714D01*
X71208029Y-30527807D01*
X71206861Y-30539563D01*
X71206550Y-30580706D01*
X71217523Y-30603641D01*
X71232913Y-30613967D01*
X71254544Y-30631306D01*
X71253741Y-30657170D01*
X71250757Y-30665893D01*
X71245681Y-30696611D01*
X71262098Y-30720755D01*
X71271403Y-30728410D01*
X71305426Y-30754765D01*
X71246995Y-30804572D01*
X71188564Y-30854379D01*
X71228471Y-30880527D01*
X71261121Y-30911046D01*
X71264349Y-30942034D01*
X71238313Y-30975840D01*
X71235035Y-30978682D01*
X71212722Y-30999653D01*
X71212236Y-31013218D01*
X71230457Y-31029220D01*
X71265715Y-31047097D01*
X71289734Y-31051685D01*
X71332814Y-31058190D01*
X71350292Y-31078606D01*
X71343757Y-31115544D01*
X71337408Y-31130117D01*
X71321477Y-31167048D01*
X71313175Y-31192852D01*
X71312835Y-31195888D01*
X71302887Y-31215444D01*
X71284037Y-31235937D01*
X71259840Y-31269532D01*
X71245126Y-31308039D01*
X71229023Y-31355047D01*
X71209557Y-31391713D01*
X71165161Y-31458116D01*
X71134750Y-31506978D01*
X71115354Y-31545072D01*
X71104004Y-31579165D01*
X71097730Y-31616030D01*
X71094152Y-31654834D01*
X71083118Y-31731212D01*
X71064329Y-31782494D01*
X71058770Y-31790709D01*
X71038505Y-31827524D01*
X71031272Y-31859101D01*
X71022314Y-31894980D01*
X71003788Y-31927494D01*
X70981112Y-31965298D01*
X70960485Y-32013131D01*
X70957457Y-32022112D01*
X70940642Y-32065565D01*
X70922475Y-32099293D01*
X70918430Y-32104589D01*
X70901688Y-32134983D01*
X70888858Y-32176705D01*
X70888466Y-32178685D01*
X70872397Y-32228259D01*
X70849397Y-32271506D01*
X70829377Y-32315373D01*
X70814005Y-32379147D01*
X70808960Y-32415046D01*
X70794167Y-32496570D01*
X70770501Y-32550984D01*
X70766347Y-32556653D01*
X70744135Y-32597206D01*
X70734889Y-32638573D01*
X70734889Y-32638594D01*
X70727671Y-32671912D01*
X70708665Y-32720337D01*
X70681844Y-32773877D01*
X70679317Y-32778368D01*
X70649600Y-32830698D01*
X70623490Y-32876704D01*
X70606289Y-32907046D01*
X70605440Y-32908546D01*
X70592599Y-32946064D01*
X70586927Y-32991879D01*
X70586916Y-32993172D01*
X70580586Y-33038375D01*
X70565588Y-33075560D01*
X70564918Y-33076541D01*
X70547014Y-33109363D01*
X70527183Y-33155997D01*
X70519594Y-33176985D01*
X70484052Y-33245702D01*
X70437640Y-33299103D01*
X70404778Y-33331297D01*
X70383591Y-33356864D01*
X70379230Y-33366236D01*
X70372965Y-33386856D01*
X70355925Y-33428132D01*
X70330737Y-33484284D01*
X70300030Y-33549534D01*
X70266430Y-33618103D01*
X70249167Y-33652217D01*
X70223034Y-33700818D01*
X70196125Y-33744233D01*
X70163335Y-33789648D01*
X70119557Y-33844248D01*
X70075437Y-33896732D01*
X70008207Y-33979720D01*
X69949145Y-34060150D01*
X69900952Y-34133760D01*
X69866328Y-34196285D01*
X69847977Y-34243463D01*
X69845741Y-34259261D01*
X69834174Y-34294443D01*
X69801301Y-34343179D01*
X69749862Y-34401699D01*
X69721572Y-34430043D01*
X69619272Y-34530531D01*
X69537037Y-34614760D01*
X69472261Y-34685560D01*
X69422338Y-34745762D01*
X69389795Y-34790480D01*
X69341890Y-34861462D01*
X69341890Y-35140284D01*
X69341718Y-35238154D01*
X69340891Y-35310956D01*
X69338940Y-35363263D01*
X69335397Y-35399644D01*
X69329795Y-35424671D01*
X69321667Y-35442915D01*
X69310543Y-35458947D01*
X69309080Y-35460818D01*
X69286061Y-35502958D01*
X69273372Y-35561401D01*
X69270413Y-35594493D01*
X69269007Y-35651878D01*
X69275573Y-35693876D01*
X69292981Y-35734296D01*
X69303224Y-35752436D01*
X69319716Y-35782696D01*
X69330721Y-35811228D01*
X69337337Y-35845008D01*
X69340664Y-35891009D01*
X69341800Y-35956206D01*
X69341890Y-35997863D01*
X69342428Y-36076039D01*
X69344752Y-36131753D01*
X69349929Y-36172173D01*
X69359024Y-36204467D01*
X69373103Y-36235801D01*
X69378938Y-36246989D01*
X69409817Y-36330028D01*
X69415986Y-36392479D01*
X69424982Y-36467755D01*
X69445171Y-36522745D01*
X69455737Y-36545641D01*
X69463614Y-36572483D01*
X69469290Y-36608089D01*
X69473256Y-36657280D01*
X69476000Y-36724872D01*
X69478013Y-36815685D01*
X69478603Y-36851776D01*
X69482849Y-37126353D01*
X69550546Y-37197220D01*
X69607598Y-37260596D01*
X69654459Y-37322679D01*
X69690140Y-37377603D01*
X69708073Y-37400042D01*
X69740174Y-37434949D01*
X69775350Y-37470639D01*
X69811187Y-37507931D01*
X69836539Y-37538267D01*
X69845741Y-37554589D01*
X69856625Y-37572453D01*
X69885242Y-37602593D01*
X69925542Y-37639603D01*
X69971473Y-37678074D01*
X70016984Y-37712599D01*
X70040003Y-37728177D01*
X70091388Y-37755187D01*
X70146937Y-37776537D01*
X70153747Y-37778486D01*
X70202192Y-37798840D01*
X70262006Y-37834190D01*
X70324120Y-37878069D01*
X70379464Y-37924010D01*
X70418969Y-37965546D01*
X70422211Y-37969922D01*
X70440556Y-38001316D01*
X70465669Y-38051664D01*
X70493366Y-38112377D01*
X70506475Y-38142976D01*
X70534676Y-38214444D01*
X70551603Y-38270273D01*
X70559773Y-38321055D01*
X70561712Y-38375424D01*
X70558624Y-38434645D01*
X70550726Y-38479170D01*
X70542441Y-38497832D01*
X70518344Y-38514271D01*
X70476066Y-38532730D01*
X70440272Y-38544560D01*
X70381519Y-38563805D01*
X70323977Y-38586330D01*
X70298527Y-38598059D01*
X70263482Y-38616982D01*
X70251628Y-38629399D01*
X70259294Y-38641325D01*
X70268016Y-38648047D01*
X70302038Y-38662229D01*
X70345985Y-38668480D01*
X70347978Y-38668494D01*
X70380187Y-38671384D01*
X70385928Y-38680408D01*
X70364626Y-38696095D01*
X70315702Y-38718974D01*
X70274854Y-38735587D01*
X70163137Y-38768727D01*
X70040354Y-38783708D01*
X69903288Y-38780497D01*
X69748722Y-38759058D01*
X69608634Y-38728343D01*
X69539936Y-38711643D01*
X69471864Y-38695762D01*
X69417135Y-38683651D01*
X69408576Y-38681874D01*
X69279679Y-38649352D01*
X69167846Y-38608494D01*
X69077092Y-38561080D01*
X69011431Y-38508891D01*
X69006466Y-38503552D01*
X68975931Y-38466055D01*
X68938605Y-38414860D01*
X68897816Y-38355223D01*
X68856896Y-38292402D01*
X68819172Y-38231652D01*
X68787975Y-38178232D01*
X68766634Y-38137399D01*
X68758480Y-38114408D01*
X68758724Y-38112415D01*
X68758651Y-38086057D01*
X68748546Y-38045585D01*
X68742196Y-38028154D01*
X68727725Y-37989071D01*
X68725152Y-37967448D01*
X68734470Y-37953603D01*
X68742147Y-37947618D01*
X68760090Y-37927943D01*
X68761787Y-37917362D01*
X68749234Y-37892858D01*
X68725489Y-37849801D01*
X68694531Y-37795100D01*
X68660334Y-37735666D01*
X68626875Y-37678408D01*
X68598131Y-37630237D01*
X68578079Y-37598063D01*
X68577762Y-37597582D01*
X68540935Y-37541781D01*
X68578940Y-37527331D01*
X68604930Y-37512793D01*
X68606347Y-37494087D01*
X68602893Y-37486808D01*
X68578683Y-37450920D01*
X68539310Y-37401891D01*
X68490811Y-37346313D01*
X68439221Y-37290774D01*
X68390575Y-37241866D01*
X68350911Y-37206178D01*
X68335429Y-37194773D01*
X68276693Y-37150140D01*
X68238036Y-37104597D01*
X68222750Y-37062509D01*
X68224049Y-37047075D01*
X68220043Y-37007941D01*
X68201847Y-36976380D01*
X68171565Y-36937881D01*
X68223238Y-36928187D01*
X68262428Y-36916848D01*
X68272199Y-36903773D01*
X68252635Y-36890025D01*
X68219340Y-36880047D01*
X68163769Y-36866952D01*
X68155452Y-36771136D01*
X68145119Y-36704221D01*
X68128188Y-36649988D01*
X68118746Y-36632036D01*
X68099685Y-36587511D01*
X68085508Y-36523583D01*
X68081066Y-36487405D01*
X68070981Y-36419542D01*
X68055744Y-36372342D01*
X68046671Y-36358318D01*
X68025707Y-36325149D01*
X68007986Y-36281156D01*
X68006589Y-36276336D01*
X67987601Y-36226903D01*
X67960639Y-36176666D01*
X67956505Y-36170361D01*
X67933546Y-36135623D01*
X67918660Y-36111418D01*
X67916620Y-36107465D01*
X67902363Y-36092407D01*
X67873104Y-36069228D01*
X67865098Y-36063496D01*
X67799747Y-36033630D01*
X67728988Y-36032347D01*
X67652104Y-36059709D01*
X67607968Y-36086295D01*
X67557489Y-36121683D01*
X67500790Y-36163057D01*
X67442814Y-36206597D01*
X67388504Y-36248485D01*
X67342805Y-36284901D01*
X67310659Y-36312028D01*
X67297009Y-36326044D01*
X67296849Y-36326648D01*
X67288580Y-36341245D01*
X67266409Y-36373787D01*
X67234293Y-36418560D01*
X67215344Y-36444287D01*
X67133839Y-36554006D01*
X67133839Y-37120220D01*
X67133809Y-37264572D01*
X67133612Y-37382261D01*
X67133084Y-37476266D01*
X67132063Y-37549562D01*
X67130384Y-37605127D01*
X67127886Y-37645936D01*
X67124404Y-37674967D01*
X67119777Y-37695196D01*
X67113840Y-37709600D01*
X67106431Y-37721155D01*
X67100496Y-37728871D01*
X67076261Y-37779500D01*
X67065275Y-37845251D01*
X67067535Y-37914749D01*
X67083040Y-37976616D01*
X67100524Y-38007735D01*
X67113335Y-38025837D01*
X67122368Y-38045729D01*
X67128277Y-38072683D01*
X67131720Y-38111976D01*
X67133350Y-38168881D01*
X67133824Y-38248674D01*
X67133839Y-38275787D01*
X67134106Y-38362915D01*
X67135345Y-38425680D01*
X67138213Y-38469357D01*
X67143365Y-38499222D01*
X67151457Y-38520547D01*
X67163146Y-38538608D01*
X67167182Y-38543835D01*
X67175868Y-38555550D01*
X67182947Y-38568443D01*
X67188631Y-38585571D01*
X67193133Y-38609992D01*
X67196668Y-38644761D01*
X67199448Y-38692936D01*
X67201687Y-38757573D01*
X67203599Y-38841729D01*
X67205397Y-38948461D01*
X67207293Y-39080826D01*
X67207934Y-39127485D01*
X67215344Y-39668786D01*
X67264414Y-39738967D01*
X67302223Y-39783982D01*
X67357221Y-39838368D01*
X67421688Y-39895435D01*
X67487902Y-39948496D01*
X67548141Y-39990864D01*
X67571003Y-40004526D01*
X67626101Y-40030654D01*
X67691721Y-40055583D01*
X67757648Y-40076015D01*
X67813672Y-40088654D01*
X67839292Y-40091131D01*
X67874157Y-40096515D01*
X67884263Y-40110387D01*
X67893878Y-40127520D01*
X67921515Y-40159176D01*
X67962713Y-40200568D01*
X68004463Y-40239296D01*
X68053743Y-40284825D01*
X68093521Y-40324103D01*
X68119264Y-40352490D01*
X68126728Y-40364528D01*
X68137213Y-40381516D01*
X68164619Y-40410730D01*
X68200824Y-40443908D01*
X68248363Y-40488940D01*
X68271022Y-40521605D01*
X68269763Y-40544044D01*
X68251381Y-40556383D01*
X68242872Y-40564358D01*
X68243695Y-40581548D01*
X68255392Y-40612434D01*
X68279504Y-40661492D01*
X68302746Y-40705585D01*
X68343589Y-40780372D01*
X68389063Y-40861056D01*
X68431652Y-40934385D01*
X68447224Y-40960383D01*
X68476351Y-41011134D01*
X68496367Y-41051532D01*
X68504535Y-41075738D01*
X68503298Y-41079953D01*
X68483061Y-41089155D01*
X68446678Y-41107043D01*
X68423871Y-41118585D01*
X68382345Y-41143129D01*
X68358508Y-41170032D01*
X68342855Y-41211281D01*
X68339018Y-41225581D01*
X68328847Y-41270515D01*
X68328311Y-41296273D01*
X68337813Y-41311839D01*
X68343061Y-41316153D01*
X68364017Y-41346631D01*
X68359218Y-41384695D01*
X68330913Y-41428227D01*
X68281352Y-41475108D01*
X68212786Y-41523221D01*
X68127462Y-41570449D01*
X68027633Y-41614673D01*
X68024715Y-41615822D01*
X67963015Y-41632320D01*
X67881831Y-41643209D01*
X67789607Y-41648463D01*
X67694785Y-41648056D01*
X67605807Y-41641961D01*
X67531118Y-41630150D01*
X67489498Y-41617503D01*
X67438222Y-41600157D01*
X67388675Y-41589841D01*
X67373914Y-41588692D01*
X67324320Y-41580832D01*
X67280497Y-41564843D01*
X67238819Y-41549443D01*
X67184391Y-41536874D01*
X67158975Y-41533168D01*
X67112331Y-41526373D01*
X67077625Y-41518502D01*
X67067153Y-41514234D01*
X67047033Y-41504885D01*
X67006426Y-41488980D01*
X66952922Y-41469452D01*
X66933780Y-41462730D01*
X66826248Y-41424869D01*
X66741883Y-41393693D01*
X66675645Y-41366797D01*
X66622490Y-41341777D01*
X66577378Y-41316228D01*
X66535265Y-41287748D01*
X66491110Y-41253930D01*
X66484013Y-41248260D01*
X66451531Y-41217725D01*
X66413136Y-41175147D01*
X66374007Y-41127184D01*
X66339323Y-41080495D01*
X66314260Y-41041736D01*
X66303999Y-41017566D01*
X66303967Y-41016773D01*
X66295675Y-40999596D01*
X66275593Y-40971121D01*
X66274329Y-40969504D01*
X66253237Y-40933998D01*
X66244690Y-40902768D01*
X66236415Y-40870264D01*
X66217109Y-40834376D01*
X66194140Y-40793574D01*
X66173292Y-40744051D01*
X66170497Y-40735764D01*
X66151243Y-40688185D01*
X66128192Y-40646931D01*
X66123982Y-40641146D01*
X66102987Y-40594979D01*
X66096499Y-40543115D01*
X66084445Y-40474506D01*
X66064107Y-40439247D01*
X66046410Y-40409922D01*
X66034400Y-40370682D01*
X66026210Y-40313912D01*
X66022419Y-40269181D01*
X66015919Y-40200266D01*
X66007164Y-40153937D01*
X65994409Y-40123148D01*
X65982319Y-40107230D01*
X65958405Y-40073132D01*
X65934015Y-40025688D01*
X65925429Y-40004848D01*
X65908704Y-39963990D01*
X65882669Y-39904558D01*
X65850938Y-39834653D01*
X65818429Y-39765110D01*
X65766272Y-39653496D01*
X65726695Y-39564319D01*
X65698314Y-39493876D01*
X65679743Y-39438462D01*
X65669600Y-39394371D01*
X65666500Y-39358479D01*
X65652970Y-39285989D01*
X65616826Y-39215566D01*
X65563886Y-39157647D01*
X65547965Y-39145841D01*
X65492884Y-39097536D01*
X65464798Y-39043425D01*
X65459801Y-39005154D01*
X65453278Y-38957871D01*
X65433158Y-38906579D01*
X65396828Y-38846310D01*
X65341671Y-38772097D01*
X65328195Y-38755200D01*
X65289263Y-38705348D01*
X65258615Y-38663315D01*
X65240330Y-38634850D01*
X65236989Y-38626622D01*
X65249418Y-38612977D01*
X65281830Y-38592473D01*
X65322199Y-38571959D01*
X65391602Y-38539194D01*
X65438826Y-38514910D01*
X65468970Y-38495999D01*
X65487135Y-38479353D01*
X65496324Y-38465841D01*
X65515731Y-38435789D01*
X65542675Y-38399319D01*
X65544486Y-38397025D01*
X65567461Y-38356636D01*
X65577786Y-38315871D01*
X65577829Y-38313697D01*
X65568640Y-38273608D01*
X65546333Y-38232429D01*
X65544486Y-38230020D01*
X65535207Y-38217388D01*
X65527765Y-38203409D01*
X65521896Y-38184757D01*
X65517334Y-38158104D01*
X65513814Y-38120124D01*
X65511069Y-38067490D01*
X65508835Y-37996874D01*
X65506846Y-37904952D01*
X65504836Y-37788394D01*
X65503734Y-37719375D01*
X65501479Y-37587021D01*
X65499222Y-37481201D01*
X65496765Y-37398807D01*
X65493907Y-37336736D01*
X65490452Y-37291882D01*
X65486198Y-37261140D01*
X65480948Y-37241405D01*
X65474502Y-37229572D01*
X65472176Y-37226969D01*
X65453266Y-37196423D01*
X65438874Y-37153520D01*
X65437702Y-37147809D01*
X65422016Y-37098540D01*
X65396657Y-37047960D01*
X65391459Y-37039908D01*
X65369066Y-37002225D01*
X65356518Y-36971930D01*
X65355542Y-36965514D01*
X65346030Y-36940366D01*
X65323057Y-36909422D01*
X65322199Y-36908502D01*
X65308669Y-36891891D01*
X65299134Y-36872064D01*
X65292704Y-36843512D01*
X65288483Y-36800727D01*
X65285579Y-36738202D01*
X65283611Y-36670573D01*
X65281081Y-36584895D01*
X65276675Y-36522536D01*
X65267440Y-36477197D01*
X65250424Y-36442578D01*
X65222676Y-36412379D01*
X65181241Y-36380301D01*
X65131349Y-36345677D01*
X65079056Y-36301140D01*
X65045325Y-36248293D01*
X65036899Y-36227955D01*
X65010818Y-36165277D01*
X64985580Y-36123732D01*
X64954671Y-36095739D01*
X64911574Y-36073722D01*
X64900377Y-36069153D01*
X64855304Y-36049757D01*
X64820002Y-36031997D01*
X64809114Y-36025071D01*
X64794805Y-36005843D01*
X64771542Y-35965810D01*
X64742721Y-35911108D01*
X64716078Y-35857008D01*
X64675664Y-35777208D01*
X64641077Y-35721385D01*
X64608813Y-35685386D01*
X64575367Y-35665056D01*
X64547899Y-35657676D01*
X64527790Y-35659415D01*
X64517657Y-35678161D01*
X64513645Y-35708647D01*
X64513776Y-35741434D01*
X64523026Y-35770854D01*
X64545431Y-35805367D01*
X64579867Y-35847409D01*
X64650704Y-35930325D01*
X64615329Y-35958970D01*
X64579955Y-35987615D01*
X64613936Y-36083870D01*
X64630102Y-36132346D01*
X64640325Y-36168351D01*
X64642483Y-36184378D01*
X64642366Y-36184502D01*
X64614066Y-36198950D01*
X64568719Y-36215052D01*
X64518438Y-36229162D01*
X64475336Y-36237638D01*
X64462389Y-36238640D01*
X64421177Y-36243926D01*
X64367269Y-36256959D01*
X64333022Y-36267794D01*
X64300748Y-36277851D01*
X64265887Y-36285314D01*
X64223467Y-36290562D01*
X64168520Y-36293974D01*
X64096074Y-36295929D01*
X64001158Y-36296806D01*
X63950839Y-36296949D01*
X63847283Y-36296875D01*
X63768762Y-36296027D01*
X63710676Y-36294029D01*
X63668423Y-36290509D01*
X63637403Y-36285093D01*
X63613016Y-36277406D01*
X63592065Y-36267794D01*
X63549817Y-36249301D01*
X63514533Y-36238952D01*
X63506704Y-36238156D01*
X63475976Y-36231597D01*
X63465361Y-36225127D01*
X63443130Y-36212657D01*
X63404952Y-36197534D01*
X63392007Y-36193214D01*
X63310665Y-36158389D01*
X63240425Y-36111457D01*
X63193541Y-36062563D01*
X63172919Y-36031169D01*
X63162587Y-36010675D01*
X63162310Y-36008993D01*
X63155779Y-35990494D01*
X63136316Y-35945853D01*
X63104119Y-35875497D01*
X63059383Y-35779858D01*
X63004038Y-35663006D01*
X62982659Y-35619619D01*
X62968358Y-35598925D01*
X62955771Y-35596718D01*
X62939533Y-35608793D01*
X62937376Y-35610738D01*
X62919717Y-35624496D01*
X62904772Y-35624867D01*
X62885383Y-35608603D01*
X62855205Y-35573431D01*
X62816416Y-35532571D01*
X62763975Y-35484808D01*
X62708708Y-35439955D01*
X62704422Y-35436736D01*
X62651867Y-35397539D01*
X62602633Y-35360800D01*
X62566178Y-35333578D01*
X62562135Y-35330556D01*
X62522207Y-35297057D01*
X62480482Y-35256855D01*
X62473220Y-35249160D01*
X62438144Y-35211538D01*
X62393868Y-35164545D01*
X62361557Y-35130516D01*
X62315599Y-35077857D01*
X62269717Y-35018278D01*
X62245751Y-34983150D01*
X62218572Y-34941887D01*
X62196961Y-34912206D01*
X62186995Y-34901645D01*
X62175435Y-34891309D01*
X62153024Y-34864986D01*
X62118106Y-34820577D01*
X62069025Y-34755983D01*
X62013823Y-34682147D01*
X61972377Y-34626549D01*
X61944832Y-34591053D01*
X61927209Y-34572124D01*
X61915528Y-34566226D01*
X61905811Y-34569824D01*
X61896199Y-34577645D01*
X61877700Y-34586403D01*
X61855322Y-34578598D01*
X61825194Y-34555602D01*
X61787724Y-34519631D01*
X61756928Y-34482749D01*
X61752568Y-34476234D01*
X61727937Y-34443847D01*
X61691313Y-34403122D01*
X61667344Y-34379052D01*
X61633998Y-34344285D01*
X61611826Y-34315866D01*
X61606301Y-34303548D01*
X61596244Y-34281769D01*
X61576662Y-34259801D01*
X61554220Y-34230729D01*
X61547024Y-34207845D01*
X61540348Y-34180940D01*
X61523282Y-34139744D01*
X61509976Y-34113033D01*
X61488315Y-34064810D01*
X61476897Y-34015704D01*
X61475455Y-33992270D01*
X62954842Y-33992270D01*
X62955241Y-34081042D01*
X62956792Y-34145245D01*
X62960027Y-34189940D01*
X62965476Y-34220190D01*
X62973672Y-34241057D01*
X62982330Y-34254098D01*
X63000894Y-34290736D01*
X63014676Y-34340504D01*
X63017474Y-34359086D01*
X63025750Y-34401723D01*
X63043356Y-34441677D01*
X63074940Y-34487877D01*
X63102359Y-34522097D01*
X63164967Y-34590402D01*
X63238748Y-34659395D01*
X63315948Y-34722623D01*
X63388816Y-34773631D01*
X63436464Y-34800224D01*
X63481673Y-34827735D01*
X63531040Y-34866831D01*
X63555017Y-34889658D01*
X63605896Y-34936970D01*
X63668636Y-34987418D01*
X63734664Y-35034800D01*
X63795411Y-35072913D01*
X63836581Y-35093423D01*
X63904827Y-35117088D01*
X63976943Y-35136586D01*
X64044781Y-35150240D01*
X64100196Y-35156371D01*
X64131948Y-35154283D01*
X64181925Y-35152233D01*
X64205572Y-35160899D01*
X64291373Y-35213885D01*
X64352807Y-35260183D01*
X64393536Y-35302742D01*
X64407016Y-35323074D01*
X64438652Y-35378646D01*
X64400656Y-35378646D01*
X64371458Y-35382455D01*
X64365709Y-35395810D01*
X64383689Y-35421599D01*
X64407118Y-35445332D01*
X64435344Y-35478849D01*
X64450662Y-35509635D01*
X64451575Y-35516208D01*
X64459889Y-35547317D01*
X64480077Y-35584472D01*
X64481803Y-35586942D01*
X64502906Y-35614407D01*
X64517311Y-35619982D01*
X64535382Y-35606008D01*
X64541079Y-35600344D01*
X64573284Y-35578404D01*
X64599766Y-35571295D01*
X64624664Y-35565724D01*
X64625574Y-35547076D01*
X64607647Y-35518555D01*
X64587819Y-35482349D01*
X64591733Y-35459569D01*
X64614585Y-35452742D01*
X64639155Y-35443973D01*
X64640229Y-35419438D01*
X64621524Y-35386928D01*
X64602083Y-35350736D01*
X64605877Y-35327045D01*
X64629405Y-35319369D01*
X64651445Y-35315023D01*
X64657492Y-35298343D01*
X64648163Y-35263864D01*
X64638458Y-35239512D01*
X64594334Y-35170955D01*
X64522822Y-35109185D01*
X64462689Y-35073576D01*
X64423382Y-35051191D01*
X64397832Y-35032548D01*
X64392298Y-35024881D01*
X64404961Y-35012797D01*
X64435811Y-35000012D01*
X64439438Y-34998936D01*
X64486577Y-34985416D01*
X64428324Y-34926401D01*
X64385605Y-34887509D01*
X64341732Y-34854232D01*
X64321907Y-34842142D01*
X64284453Y-34811199D01*
X64273858Y-34774527D01*
X64291257Y-34736941D01*
X64295974Y-34731897D01*
X64312372Y-34701203D01*
X64318203Y-34665902D01*
X64310659Y-34629356D01*
X64283524Y-34608978D01*
X64281155Y-34608051D01*
X64253586Y-34590605D01*
X64244107Y-34573098D01*
X64231727Y-34552675D01*
X64215616Y-34544781D01*
X64190817Y-34523954D01*
X64182273Y-34494890D01*
X64173925Y-34464516D01*
X64151783Y-34451180D01*
X64129259Y-34447806D01*
X64093946Y-34439323D01*
X64081415Y-34420462D01*
X64081097Y-34415037D01*
X64089386Y-34395008D01*
X64117746Y-34377889D01*
X64157882Y-34364109D01*
X64212236Y-34350754D01*
X64263713Y-34342546D01*
X64283845Y-34341306D01*
X64317043Y-34337396D01*
X64332816Y-34327845D01*
X64333022Y-34326487D01*
X64320367Y-34315251D01*
X64296849Y-34311668D01*
X64263506Y-34305757D01*
X64248945Y-34284539D01*
X64250309Y-34242789D01*
X64252447Y-34230415D01*
X64266551Y-34190549D01*
X64286509Y-34177126D01*
X64295722Y-34175341D01*
X64290587Y-34170655D01*
X64267831Y-34161857D01*
X64224181Y-34147739D01*
X64156365Y-34127091D01*
X64128619Y-34118786D01*
X64057027Y-34094154D01*
X63979840Y-34062641D01*
X63923779Y-34036083D01*
X63868900Y-34010761D01*
X63817432Y-33992548D01*
X63780374Y-33985327D01*
X63779932Y-33985322D01*
X63737024Y-33978834D01*
X63685712Y-33962951D01*
X63668247Y-33955683D01*
X63627677Y-33938380D01*
X63598303Y-33927855D01*
X63591099Y-33926371D01*
X63572363Y-33919359D01*
X63537101Y-33901255D01*
X63505546Y-33883326D01*
X63446906Y-33855058D01*
X63379159Y-33831176D01*
X63345588Y-33822741D01*
X63282351Y-33805653D01*
X63212500Y-33780425D01*
X63171057Y-33762052D01*
X63104730Y-33735008D01*
X63045096Y-33721028D01*
X62997833Y-33720652D01*
X62968620Y-33734421D01*
X62963837Y-33742343D01*
X62960700Y-33764810D01*
X62958040Y-33811115D01*
X62956064Y-33875459D01*
X62954983Y-33952044D01*
X62954842Y-33992270D01*
X61475455Y-33992270D01*
X61473032Y-33952876D01*
X61472928Y-33936293D01*
X61477009Y-33858630D01*
X61489153Y-33808306D01*
X61495012Y-33797703D01*
X61510921Y-33764970D01*
X61526777Y-33716816D01*
X61533676Y-33688862D01*
X61548914Y-33636457D01*
X61567602Y-33609406D01*
X61578279Y-33604221D01*
X61601496Y-33587971D01*
X61606301Y-33573855D01*
X61615490Y-33543955D01*
X61626539Y-33527421D01*
X61645367Y-33495211D01*
X61656460Y-33463273D01*
X61659979Y-33433776D01*
X61648105Y-33423270D01*
X61637456Y-33422520D01*
X61610372Y-33430880D01*
X61601827Y-33441044D01*
X61590396Y-33446507D01*
X61573188Y-33431424D01*
X61555536Y-33402727D01*
X61542769Y-33367347D01*
X61541831Y-33363041D01*
X61524733Y-33319763D01*
X61496433Y-33285673D01*
X61463298Y-33264403D01*
X61431693Y-33259585D01*
X61407986Y-33274851D01*
X61403315Y-33284023D01*
X61401470Y-33312366D01*
X61407688Y-33355644D01*
X61412802Y-33376643D01*
X61427440Y-33432813D01*
X61432417Y-33466453D01*
X61427039Y-33483279D01*
X61410614Y-33489011D01*
X61399125Y-33489497D01*
X61363839Y-33503222D01*
X61337389Y-33538614D01*
X61325213Y-33587897D01*
X61324956Y-33595586D01*
X61316405Y-33630922D01*
X61305725Y-33647453D01*
X61285378Y-33671851D01*
X61258326Y-33708267D01*
X61250868Y-33718903D01*
X61226525Y-33752745D01*
X61208791Y-33774950D01*
X61205523Y-33778179D01*
X61196384Y-33796555D01*
X61187210Y-33830965D01*
X61186774Y-33833160D01*
X61174852Y-33865516D01*
X61150139Y-33914578D01*
X61116701Y-33972676D01*
X61091824Y-34012249D01*
X61054941Y-34067006D01*
X61021390Y-34110873D01*
X60985274Y-34149776D01*
X60940697Y-34189642D01*
X60881760Y-34236398D01*
X60829499Y-34275879D01*
X60736957Y-34346199D01*
X60665861Y-34403374D01*
X60613061Y-34450798D01*
X60575412Y-34491868D01*
X60549764Y-34529980D01*
X60532970Y-34568529D01*
X60522740Y-34606796D01*
X60507680Y-34662608D01*
X60488613Y-34713989D01*
X60477768Y-34735763D01*
X60459092Y-34782961D01*
X60450475Y-34835612D01*
X60450408Y-34839769D01*
X60439721Y-34899033D01*
X60407541Y-34977767D01*
X60392000Y-35008440D01*
X60360446Y-35069114D01*
X60330400Y-35128208D01*
X60307601Y-35174409D01*
X60304846Y-35180195D01*
X60273902Y-35228067D01*
X60231852Y-35273050D01*
X60218768Y-35283718D01*
X60111473Y-35365968D01*
X60027507Y-35436043D01*
X59964335Y-35496237D01*
X59919419Y-35548843D01*
X59908829Y-35563934D01*
X59881682Y-35608788D01*
X59863123Y-35647022D01*
X59857643Y-35666865D01*
X59849790Y-35697258D01*
X59831709Y-35732081D01*
X59808255Y-35768115D01*
X59790956Y-35795272D01*
X59771793Y-35824428D01*
X59748359Y-35858403D01*
X59729574Y-35897759D01*
X59715702Y-35949381D01*
X59712959Y-35967921D01*
X59701379Y-36021301D01*
X59681600Y-36070170D01*
X59674051Y-36082555D01*
X59661861Y-36102289D01*
X59653304Y-36124678D01*
X59647748Y-36155110D01*
X59644561Y-36198973D01*
X59643111Y-36261655D01*
X59642765Y-36348543D01*
X59642765Y-36349299D01*
X59642765Y-36571587D01*
X59698165Y-36655816D01*
X59728122Y-36699648D01*
X59753027Y-36733023D01*
X59767266Y-36748513D01*
X59778328Y-36767409D01*
X59788653Y-36803715D01*
X59790681Y-36814474D01*
X59804185Y-36860303D01*
X59824629Y-36897652D01*
X59827948Y-36901543D01*
X59846259Y-36925880D01*
X59843473Y-36946803D01*
X59832628Y-36963774D01*
X59819848Y-36991967D01*
X59822585Y-37008628D01*
X59843433Y-37019829D01*
X59885792Y-37037032D01*
X59942743Y-37057853D01*
X60007371Y-37079906D01*
X60072757Y-37100808D01*
X60131986Y-37118173D01*
X60165185Y-37126738D01*
X60210172Y-37139313D01*
X60242071Y-37151880D01*
X60251270Y-37158431D01*
X60270035Y-37166883D01*
X60306591Y-37171481D01*
X60318868Y-37171762D01*
X60369766Y-37177664D01*
X60427445Y-37192501D01*
X60447661Y-37199839D01*
X60500168Y-37220802D01*
X60550352Y-37240416D01*
X60565823Y-37246329D01*
X60602937Y-37265901D01*
X60627224Y-37288561D01*
X60628167Y-37290182D01*
X60645162Y-37315710D01*
X60673839Y-37353348D01*
X60694014Y-37378141D01*
X60732111Y-37431559D01*
X60758726Y-37484393D01*
X60771707Y-37530350D01*
X60768900Y-37563135D01*
X60760600Y-37572816D01*
X60730239Y-37583048D01*
X60698163Y-37586470D01*
X60662440Y-37595170D01*
X60648931Y-37618010D01*
X60656493Y-37650887D01*
X60683984Y-37689694D01*
X60730264Y-37730327D01*
X60740102Y-37737246D01*
X60778400Y-37771888D01*
X60791115Y-37808123D01*
X60791147Y-37810078D01*
X60786765Y-37845852D01*
X60775121Y-37897348D01*
X60758671Y-37956650D01*
X60739872Y-38015846D01*
X60721178Y-38067020D01*
X60705045Y-38102259D01*
X60697221Y-38112777D01*
X60682215Y-38136270D01*
X60670135Y-38175405D01*
X60668466Y-38184466D01*
X60644466Y-38249643D01*
X60597554Y-38312941D01*
X60534278Y-38369239D01*
X60461185Y-38413416D01*
X60384825Y-38440352D01*
X60333770Y-38446207D01*
X60287884Y-38451210D01*
X60229932Y-38464083D01*
X60191073Y-38475846D01*
X60110473Y-38495091D01*
X60013646Y-38505332D01*
X59910950Y-38506575D01*
X59812744Y-38498828D01*
X59729387Y-38482099D01*
X59709242Y-38475485D01*
X59632120Y-38454916D01*
X59556930Y-38448159D01*
X59552730Y-38448278D01*
X59508298Y-38447695D01*
X59473056Y-38439274D01*
X59435670Y-38418882D01*
X59397129Y-38391566D01*
X59338851Y-38350839D01*
X59274293Y-38309258D01*
X59235239Y-38286034D01*
X59183224Y-38250213D01*
X59121978Y-38197990D01*
X59059989Y-38136722D01*
X59048064Y-38123827D01*
X58969854Y-38044910D01*
X58897214Y-37987462D01*
X58848005Y-37958055D01*
X58788853Y-37925431D01*
X58726748Y-37888623D01*
X58667023Y-37851120D01*
X58615010Y-37816409D01*
X58576043Y-37787980D01*
X58555455Y-37769321D01*
X58553559Y-37765454D01*
X58541458Y-37753208D01*
X58509683Y-37732109D01*
X58465019Y-37706648D01*
X58463437Y-37705803D01*
X58405219Y-37671740D01*
X58351272Y-37634854D01*
X58307360Y-37599672D01*
X58279248Y-37570716D01*
X58271995Y-37555524D01*
X58285522Y-37548808D01*
X58320960Y-37544031D01*
X58369905Y-37542240D01*
X58422000Y-37541428D01*
X58450138Y-37537873D01*
X58459981Y-37529897D01*
X58457388Y-37516306D01*
X58446702Y-37484281D01*
X58443831Y-37471927D01*
X58432206Y-37450102D01*
X58407217Y-37418815D01*
X58399186Y-37410150D01*
X58371847Y-37373291D01*
X58371094Y-37348258D01*
X58396742Y-37335941D01*
X58414886Y-37334772D01*
X58440982Y-37330009D01*
X58447355Y-37320360D01*
X58436753Y-37303261D01*
X58411955Y-37268308D01*
X58376967Y-37221038D01*
X58346091Y-37180370D01*
X58297957Y-37119785D01*
X58259394Y-37077819D01*
X58223639Y-37048366D01*
X58183926Y-37025314D01*
X58163860Y-37015809D01*
X58077954Y-36976826D01*
X58107681Y-36929807D01*
X58135603Y-36884355D01*
X58161485Y-36840316D01*
X58161820Y-36839725D01*
X58188423Y-36798907D01*
X58214294Y-36766540D01*
X58235123Y-36739023D01*
X58242458Y-36720688D01*
X58255879Y-36697936D01*
X58291189Y-36672443D01*
X58341352Y-36647919D01*
X58399329Y-36628075D01*
X58432828Y-36620343D01*
X58509101Y-36598488D01*
X58559151Y-36565349D01*
X58584751Y-36519367D01*
X58589125Y-36483004D01*
X58582382Y-36439906D01*
X58566110Y-36406205D01*
X58565594Y-36405608D01*
X58544682Y-36375756D01*
X58516630Y-36327448D01*
X58484609Y-36267185D01*
X58451791Y-36201470D01*
X58421347Y-36136803D01*
X58396449Y-36079686D01*
X58380268Y-36036620D01*
X58375729Y-36016402D01*
X58370674Y-35981410D01*
X58357679Y-35932063D01*
X58346091Y-35897316D01*
X58327180Y-35828469D01*
X58317949Y-35747659D01*
X58316452Y-35686352D01*
X58316452Y-35556476D01*
X58368319Y-35556476D01*
X58402595Y-35552295D01*
X58419736Y-35542013D01*
X58420186Y-35539820D01*
X58412429Y-35519991D01*
X58392015Y-35483472D01*
X58363233Y-35437889D01*
X58360910Y-35434398D01*
X58324972Y-35377598D01*
X58306956Y-35339436D01*
X58306153Y-35315497D01*
X58321855Y-35301367D01*
X58338681Y-35295817D01*
X58366470Y-35282606D01*
X58375729Y-35268202D01*
X58366523Y-35248867D01*
X58342199Y-35214578D01*
X58307697Y-35172202D01*
X58301633Y-35165212D01*
X58266106Y-35123044D01*
X58239877Y-35088923D01*
X58227826Y-35069262D01*
X58227538Y-35067810D01*
X58233098Y-35047969D01*
X58247343Y-35010969D01*
X58259039Y-34983463D01*
X58284063Y-34924427D01*
X58309231Y-34861825D01*
X58316782Y-34842153D01*
X58339990Y-34793493D01*
X58374520Y-34735627D01*
X58408869Y-34686552D01*
X58446148Y-34637637D01*
X58480118Y-34592592D01*
X58503023Y-34561716D01*
X58524776Y-34532353D01*
X58558546Y-34487382D01*
X58598360Y-34434747D01*
X58614488Y-34413524D01*
X58701976Y-34294640D01*
X58770254Y-34191605D01*
X58821294Y-34099535D01*
X58857064Y-34013547D01*
X58879535Y-33928756D01*
X58890678Y-33840278D01*
X58892462Y-33743230D01*
X58891979Y-33725619D01*
X58888702Y-33653190D01*
X58883722Y-33603911D01*
X58875822Y-33571297D01*
X58863786Y-33548865D01*
X58857351Y-33541081D01*
X58845121Y-33524407D01*
X58836464Y-33502251D01*
X58830577Y-33469189D01*
X58826657Y-33419798D01*
X58823902Y-33348654D01*
X58822819Y-33307707D01*
X58821119Y-33226412D01*
X58821121Y-33168946D01*
X58823521Y-33129516D01*
X58829014Y-33102329D01*
X58838298Y-33081593D01*
X58852067Y-33061515D01*
X58852458Y-33060994D01*
X58861998Y-33047660D01*
X58869631Y-33033626D01*
X58875605Y-33015569D01*
X58880171Y-32990167D01*
X58883578Y-32954099D01*
X58886076Y-32904043D01*
X58887914Y-32836675D01*
X58889342Y-32748676D01*
X58890610Y-32636722D01*
X58891550Y-32540781D01*
X58896111Y-32066569D01*
X58856282Y-31985064D01*
X58828516Y-31928614D01*
X58800556Y-31872345D01*
X58786459Y-31844282D01*
X58770018Y-31801471D01*
X58758221Y-31744487D01*
X58749938Y-31667015D01*
X58747117Y-31624841D01*
X58741925Y-31558651D01*
X58735129Y-31503768D01*
X58727693Y-31466747D01*
X58721977Y-31454421D01*
X58693179Y-31418913D01*
X58676275Y-31359480D01*
X58672112Y-31298947D01*
X58667873Y-31239742D01*
X58652969Y-31197153D01*
X58638769Y-31176091D01*
X58624585Y-31154805D01*
X58614302Y-31128980D01*
X58606809Y-31092743D01*
X58600996Y-31040220D01*
X58595754Y-30965538D01*
X58594285Y-30940691D01*
X58588414Y-30830289D01*
X58585222Y-30745848D01*
X58584772Y-30683807D01*
X58587130Y-30640602D01*
X58592358Y-30612673D01*
X58600452Y-30596539D01*
X58607906Y-30571971D01*
X58611421Y-30525577D01*
X58610539Y-30467634D01*
X58602440Y-30391774D01*
X58585128Y-30339645D01*
X58555527Y-30305984D01*
X58510562Y-30285526D01*
X58502897Y-30283424D01*
X58473617Y-30272279D01*
X58458048Y-30252266D01*
X58449389Y-30213722D01*
X58448280Y-30205848D01*
X58444912Y-30161487D01*
X58451781Y-30135526D01*
X58466804Y-30120717D01*
X58488671Y-30098948D01*
X58494282Y-30085303D01*
X58504972Y-30064374D01*
X58520216Y-30049932D01*
X58536702Y-30034681D01*
X58536609Y-30018050D01*
X58520408Y-29989022D01*
X58499414Y-29952287D01*
X58472803Y-29902052D01*
X58455006Y-29866717D01*
X58422962Y-29811311D01*
X58384410Y-29757940D01*
X58362580Y-29733345D01*
X58332362Y-29702228D01*
X58321528Y-29685959D01*
X58328171Y-29678768D01*
X58343571Y-29675848D01*
X58376434Y-29657429D01*
X58395770Y-29616474D01*
X58399850Y-29557632D01*
X58397085Y-29531844D01*
X58394325Y-29485305D01*
X58402366Y-29460486D01*
X58403979Y-29459259D01*
X58413617Y-29437692D01*
X58412456Y-29398332D01*
X58402174Y-29350267D01*
X58384452Y-29302587D01*
X58370301Y-29276958D01*
X58339970Y-29242965D01*
X58295364Y-29216727D01*
X58249766Y-29199542D01*
X58173916Y-29181129D01*
X58107763Y-29182519D01*
X58039139Y-29204732D01*
X58007891Y-29219875D01*
X57963495Y-29233722D01*
X57931445Y-29225676D01*
X57916752Y-29197381D01*
X57916336Y-29189842D01*
X57907349Y-29171480D01*
X57890759Y-29173605D01*
X57884228Y-29183939D01*
X57868031Y-29192835D01*
X57830754Y-29201562D01*
X57786940Y-29207497D01*
X57727789Y-29210363D01*
X57686670Y-29201945D01*
X57656283Y-29177470D01*
X57629330Y-29132165D01*
X57611754Y-29092963D01*
X57581326Y-29021486D01*
X57521402Y-29077365D01*
X57472984Y-29115861D01*
X57419005Y-29149346D01*
X57396229Y-29160266D01*
X57350800Y-29179714D01*
X57313197Y-29196882D01*
X57303299Y-29201804D01*
X57272762Y-29207966D01*
X57254076Y-29187742D01*
X57246862Y-29140624D01*
X57246785Y-29125999D01*
X57244546Y-29085424D01*
X57231202Y-29061214D01*
X57199010Y-29040634D01*
X57192976Y-29037531D01*
X57152490Y-29019329D01*
X57094988Y-28996429D01*
X57031655Y-28973250D01*
X57019778Y-28969142D01*
X56928238Y-28936317D01*
X56862887Y-28908602D01*
X56821175Y-28883856D01*
X56800554Y-28859932D01*
X56798477Y-28834689D01*
X56812393Y-28805981D01*
X56817415Y-28798898D01*
X56849406Y-28755627D01*
X56696965Y-28603164D01*
X56638646Y-28542519D01*
X56585167Y-28482687D01*
X56541638Y-28429676D01*
X56513167Y-28389494D01*
X56508856Y-28381879D01*
X56464979Y-28319676D01*
X56413052Y-28281968D01*
X56317605Y-28231915D01*
X56245197Y-28192046D01*
X56192047Y-28159933D01*
X56154373Y-28133148D01*
X56128394Y-28109262D01*
X56112287Y-28088838D01*
X56089603Y-28042897D01*
X56090809Y-28002169D01*
X56117010Y-27958876D01*
X56133381Y-27940523D01*
X56167107Y-27902115D01*
X56183152Y-27871077D01*
X56182521Y-27837895D01*
X56166217Y-27793053D01*
X56152159Y-27762560D01*
X56125302Y-27702393D01*
X56112418Y-27660331D01*
X56113127Y-27628549D01*
X56127049Y-27599221D01*
X56143176Y-27577551D01*
X56177805Y-27534274D01*
X56120889Y-27417805D01*
X56091827Y-27358064D01*
X56065088Y-27302625D01*
X56045386Y-27261280D01*
X56041797Y-27253614D01*
X56017307Y-27205199D01*
X55992574Y-27161435D01*
X55972337Y-27124410D01*
X55945285Y-27069675D01*
X55913829Y-27002711D01*
X55908740Y-26991496D01*
X57256394Y-26991496D01*
X57275936Y-27032739D01*
X57291759Y-27050399D01*
X57335390Y-27084594D01*
X57374914Y-27091946D01*
X57416928Y-27073247D01*
X57426067Y-27066560D01*
X57451677Y-27037944D01*
X57459902Y-26998768D01*
X57459764Y-26982774D01*
X57454669Y-26936958D01*
X57438606Y-26910552D01*
X57403771Y-26893623D01*
X57385270Y-26887976D01*
X57346910Y-26881922D01*
X57317373Y-26894135D01*
X57302257Y-26906758D01*
X57265075Y-26950770D01*
X57256394Y-26991496D01*
X55908740Y-26991496D01*
X55880381Y-26929000D01*
X55847351Y-26854026D01*
X55832677Y-26819645D01*
X57331498Y-26819645D01*
X57337242Y-26828329D01*
X57355786Y-26820702D01*
X57381151Y-26796751D01*
X57382800Y-26794744D01*
X57409732Y-26761484D01*
X57477214Y-26794269D01*
X57517220Y-26810523D01*
X57545497Y-26816101D01*
X57553158Y-26813361D01*
X57548126Y-26795642D01*
X57518185Y-26771919D01*
X57466826Y-26744676D01*
X57440024Y-26732912D01*
X57404803Y-26719606D01*
X57387394Y-26719306D01*
X57378770Y-26732436D01*
X57377587Y-26735856D01*
X57362417Y-26767085D01*
X57344537Y-26794661D01*
X57331498Y-26819645D01*
X55832677Y-26819645D01*
X55817151Y-26783269D01*
X55792192Y-26722212D01*
X55774884Y-26676337D01*
X55767640Y-26651126D01*
X55767561Y-26649832D01*
X55781260Y-26620113D01*
X55808314Y-26601868D01*
X55844853Y-26582408D01*
X55868649Y-26565137D01*
X55888807Y-26552950D01*
X57386217Y-26552950D01*
X57387730Y-26568670D01*
X57401394Y-26582629D01*
X57422762Y-26612083D01*
X57427304Y-26633284D01*
X57433145Y-26658468D01*
X57442123Y-26664994D01*
X57456512Y-26653717D01*
X57456942Y-26650175D01*
X57466848Y-26636335D01*
X57494735Y-26643106D01*
X57532455Y-26666003D01*
X57561480Y-26694206D01*
X57575307Y-26722464D01*
X57575496Y-26725279D01*
X57582757Y-26750120D01*
X57598463Y-26749752D01*
X57610958Y-26730468D01*
X57618135Y-26704709D01*
X57612958Y-26684498D01*
X57591000Y-26662561D01*
X57552962Y-26635146D01*
X57516382Y-26606108D01*
X57496968Y-26582540D01*
X57496003Y-26572823D01*
X57493913Y-26562700D01*
X57471145Y-26565715D01*
X57436300Y-26566652D01*
X57416603Y-26558528D01*
X57394612Y-26549766D01*
X57386217Y-26552950D01*
X55888807Y-26552950D01*
X55895522Y-26548890D01*
X55907685Y-26546441D01*
X55916179Y-26539083D01*
X55922626Y-26514678D01*
X55924032Y-26501629D01*
X57516219Y-26501629D01*
X57528679Y-26517894D01*
X57559580Y-26538379D01*
X57599203Y-26558056D01*
X57637831Y-26571900D01*
X57658891Y-26575424D01*
X57691808Y-26567656D01*
X57706196Y-26557069D01*
X57723039Y-26529442D01*
X57737520Y-26497167D01*
X57744897Y-26467936D01*
X57737038Y-26444216D01*
X57709959Y-26414136D01*
X57709495Y-26413682D01*
X57667231Y-26379337D01*
X57628151Y-26359542D01*
X57599335Y-26357460D01*
X57592903Y-26361586D01*
X57595660Y-26376091D01*
X57610972Y-26388873D01*
X57669334Y-26429641D01*
X57699585Y-26465694D01*
X57702793Y-26497778D01*
X57681192Y-26530636D01*
X57645688Y-26537413D01*
X57596543Y-26518061D01*
X57594896Y-26517097D01*
X57549350Y-26493420D01*
X57523911Y-26488614D01*
X57516219Y-26501629D01*
X55924032Y-26501629D01*
X55927468Y-26469724D01*
X55931150Y-26400722D01*
X55932975Y-26346708D01*
X55936195Y-26273232D01*
X57668987Y-26273232D01*
X57677917Y-26316462D01*
X57714533Y-26351981D01*
X57727184Y-26358913D01*
X57764687Y-26376481D01*
X57787969Y-26380590D01*
X57809580Y-26370504D01*
X57832832Y-26352716D01*
X57859910Y-26323385D01*
X57871850Y-26294554D01*
X57871878Y-26293440D01*
X57877625Y-26269253D01*
X57896701Y-26268974D01*
X57924618Y-26286634D01*
X57956113Y-26304306D01*
X57981074Y-26308301D01*
X57990330Y-26298220D01*
X57979015Y-26284039D01*
X57950572Y-26261174D01*
X57934758Y-26250190D01*
X57899612Y-26226102D01*
X57876063Y-26208669D01*
X57871878Y-26204951D01*
X57854253Y-26191234D01*
X57823705Y-26171755D01*
X57789666Y-26151991D01*
X57761570Y-26137416D01*
X57748848Y-26133507D01*
X57748841Y-26133519D01*
X57730606Y-26163486D01*
X57703063Y-26204984D01*
X57688710Y-26225643D01*
X57668987Y-26273232D01*
X55936195Y-26273232D01*
X55937178Y-26250800D01*
X55943341Y-26181496D01*
X55951338Y-26139949D01*
X55956920Y-26128867D01*
X55973681Y-26103501D01*
X55964481Y-26079296D01*
X55955625Y-26069582D01*
X55938322Y-26046410D01*
X55929747Y-26032643D01*
X57831086Y-26032643D01*
X57831652Y-26080999D01*
X57858890Y-26123934D01*
X57866467Y-26130429D01*
X57913607Y-26156760D01*
X57955907Y-26154956D01*
X57998485Y-26124798D01*
X57998515Y-26124769D01*
X58028571Y-26078489D01*
X58031138Y-26030846D01*
X58006061Y-25987394D01*
X58002456Y-25983891D01*
X57956271Y-25958256D01*
X57906149Y-25957673D01*
X57861697Y-25981994D01*
X57857636Y-25986108D01*
X57831086Y-26032643D01*
X55929747Y-26032643D01*
X55913538Y-26006619D01*
X55892977Y-25970332D01*
X55864003Y-25923428D01*
X55834210Y-25885262D01*
X55816056Y-25868598D01*
X55789133Y-25839760D01*
X55786369Y-25809201D01*
X55802855Y-25780970D01*
X55833678Y-25759115D01*
X55873927Y-25747683D01*
X55918691Y-25750724D01*
X55946104Y-25761408D01*
X55976724Y-25772850D01*
X56023335Y-25785197D01*
X56050995Y-25791019D01*
X56104341Y-25803613D01*
X56152215Y-25818975D01*
X56168982Y-25826142D01*
X56198745Y-25838605D01*
X56213097Y-25835186D01*
X56218598Y-25824835D01*
X56229614Y-25777865D01*
X57848841Y-25777865D01*
X57851359Y-25793722D01*
X57852618Y-25795943D01*
X57870679Y-25817246D01*
X57904284Y-25849737D01*
X57947281Y-25888202D01*
X57993517Y-25927425D01*
X58036839Y-25962193D01*
X58071094Y-25987289D01*
X58090128Y-25997500D01*
X58090461Y-25997524D01*
X58106839Y-25986185D01*
X58108984Y-25975904D01*
X58120416Y-25956247D01*
X58130373Y-25953675D01*
X58156368Y-25941003D01*
X58180814Y-25910309D01*
X58196069Y-25872576D01*
X58197899Y-25856637D01*
X58185987Y-25823336D01*
X58156549Y-25788268D01*
X58119038Y-25761939D01*
X58108984Y-25757772D01*
X58067873Y-25757737D01*
X58028225Y-25780467D01*
X58000136Y-25819850D01*
X57981422Y-25864359D01*
X57930355Y-25820705D01*
X57893355Y-25792954D01*
X57864512Y-25778142D01*
X57848841Y-25777865D01*
X56229614Y-25777865D01*
X56230940Y-25772213D01*
X56237042Y-25701673D01*
X56236799Y-25666438D01*
X58150872Y-25666438D01*
X58169861Y-25709857D01*
X58198831Y-25745400D01*
X58233050Y-25777662D01*
X58260816Y-25795909D01*
X58273120Y-25797379D01*
X58273797Y-25781390D01*
X58252342Y-25750453D01*
X58232905Y-25729297D01*
X58200316Y-25693081D01*
X58187202Y-25668799D01*
X58190188Y-25649508D01*
X58192323Y-25645791D01*
X58222911Y-25620103D01*
X58263471Y-25620488D01*
X58310087Y-25646840D01*
X58312843Y-25649120D01*
X58350180Y-25675920D01*
X58377913Y-25687168D01*
X58390351Y-25680722D01*
X58390548Y-25678372D01*
X58380497Y-25664535D01*
X58354497Y-25637595D01*
X58327567Y-25612082D01*
X58279244Y-25572313D01*
X58246213Y-25555261D01*
X58229483Y-25561327D01*
X58227538Y-25572273D01*
X58215538Y-25592341D01*
X58195541Y-25605616D01*
X58159440Y-25632043D01*
X58150872Y-25666438D01*
X56236799Y-25666438D01*
X56236509Y-25624353D01*
X56228944Y-25551390D01*
X56228421Y-25548325D01*
X56223840Y-25493160D01*
X58331743Y-25493160D01*
X58343562Y-25542468D01*
X58372902Y-25577184D01*
X58412672Y-25596172D01*
X58455782Y-25598299D01*
X58495141Y-25582431D01*
X58523657Y-25547432D01*
X58531082Y-25525047D01*
X58529992Y-25470639D01*
X58505465Y-25425616D01*
X58463012Y-25397020D01*
X58425820Y-25390548D01*
X58390020Y-25403179D01*
X58356568Y-25434107D01*
X58335041Y-25472887D01*
X58331743Y-25493160D01*
X56223840Y-25493160D01*
X56221158Y-25460869D01*
X56234047Y-25393113D01*
X56267805Y-25342382D01*
X56288015Y-25325762D01*
X56322569Y-25301559D01*
X56293324Y-25247254D01*
X56275296Y-25218916D01*
X58455649Y-25218916D01*
X58457024Y-25238729D01*
X58470468Y-25242357D01*
X58490379Y-25230203D01*
X58494282Y-25215513D01*
X58507680Y-25175297D01*
X58542217Y-25142916D01*
X58589412Y-25125243D01*
X58607467Y-25123804D01*
X58652845Y-25131426D01*
X58692141Y-25158563D01*
X58703214Y-25169828D01*
X58736568Y-25215513D01*
X58744152Y-25258963D01*
X58727370Y-25309772D01*
X58724527Y-25315392D01*
X58697361Y-25352982D01*
X58660070Y-25371386D01*
X58611158Y-25375729D01*
X58571988Y-25366864D01*
X58556439Y-25344446D01*
X58566905Y-25314736D01*
X58582047Y-25299584D01*
X58604531Y-25275462D01*
X58610416Y-25257327D01*
X58597657Y-25257477D01*
X58570249Y-25274060D01*
X58546836Y-25292709D01*
X58513243Y-25323819D01*
X58499874Y-25344111D01*
X58503148Y-25360427D01*
X58507983Y-25366973D01*
X58550191Y-25396542D01*
X58606021Y-25407612D01*
X58666127Y-25400414D01*
X58721160Y-25375179D01*
X58738401Y-25361283D01*
X58765302Y-25317735D01*
X58774763Y-25261437D01*
X58766378Y-25203888D01*
X58745382Y-25163168D01*
X58697565Y-25119803D01*
X58640499Y-25093823D01*
X58583816Y-25088915D01*
X58563639Y-25093597D01*
X58526845Y-25113037D01*
X58492216Y-25141422D01*
X58469099Y-25170202D01*
X58464644Y-25184136D01*
X58459844Y-25206666D01*
X58455649Y-25218916D01*
X56275296Y-25218916D01*
X56266553Y-25205173D01*
X56229209Y-25155417D01*
X56203658Y-25125033D01*
X56169685Y-25084447D01*
X56143855Y-25049201D01*
X56133695Y-25031184D01*
X56118052Y-25010738D01*
X58871139Y-25010738D01*
X58871419Y-25022956D01*
X58891352Y-25049430D01*
X58923537Y-25080544D01*
X58972883Y-25120342D01*
X59005057Y-25137155D01*
X59021502Y-25131059D01*
X59023664Y-25102130D01*
X59021142Y-25085703D01*
X59012258Y-25044235D01*
X59003819Y-25013611D01*
X59003088Y-25011608D01*
X59002403Y-24993176D01*
X59019933Y-24994211D01*
X59052308Y-25013872D01*
X59070788Y-25028541D01*
X59110125Y-25054904D01*
X59134739Y-25056835D01*
X59144015Y-25035966D01*
X59137341Y-24993928D01*
X59114103Y-24932353D01*
X59110180Y-24923745D01*
X59089166Y-24882495D01*
X59075270Y-24866552D01*
X59066024Y-24873181D01*
X59065560Y-24874245D01*
X59065031Y-24903333D01*
X59077507Y-24941676D01*
X59079658Y-24946014D01*
X59094033Y-24978750D01*
X59097990Y-24998558D01*
X59097287Y-24999950D01*
X59082232Y-24996473D01*
X59051840Y-24979918D01*
X59034316Y-24968573D01*
X58998442Y-24948366D01*
X58972068Y-24940946D01*
X58965606Y-24942935D01*
X58962531Y-24963307D01*
X58969457Y-24999960D01*
X58974960Y-25017393D01*
X58986217Y-25054428D01*
X58989456Y-25076570D01*
X58987760Y-25079346D01*
X58971421Y-25071134D01*
X58941205Y-25050522D01*
X58928167Y-25040802D01*
X58890169Y-25015709D01*
X58871139Y-25010738D01*
X56118052Y-25010738D01*
X56116735Y-25009016D01*
X56105161Y-25004748D01*
X56080860Y-24998342D01*
X56042485Y-24982861D01*
X56026896Y-24975612D01*
X55986521Y-24957905D01*
X55955734Y-24947542D01*
X55949095Y-24946477D01*
X55931437Y-24938960D01*
X55935706Y-24922858D01*
X55958783Y-24905430D01*
X55968584Y-24901150D01*
X56018275Y-24889972D01*
X56083615Y-24889238D01*
X56167492Y-24899291D01*
X56272794Y-24920477D01*
X56401295Y-24952840D01*
X56523769Y-24985860D01*
X56607388Y-24888116D01*
X56635881Y-24850479D01*
X59161143Y-24850479D01*
X59165225Y-24890961D01*
X59179923Y-24906701D01*
X59208918Y-24898989D01*
X59241911Y-24878832D01*
X59286378Y-24854567D01*
X59314164Y-24852968D01*
X59324141Y-24874083D01*
X59324154Y-24875291D01*
X59312109Y-24904088D01*
X59284030Y-24931206D01*
X59251999Y-24945590D01*
X59246887Y-24945974D01*
X59227883Y-24952067D01*
X59227829Y-24960793D01*
X59251454Y-24974803D01*
X59288251Y-24963073D01*
X59314746Y-24944898D01*
X59346997Y-24903491D01*
X59352720Y-24855157D01*
X59331805Y-24806410D01*
X59317418Y-24789699D01*
X59277857Y-24759921D01*
X59239920Y-24756802D01*
X59197670Y-24777258D01*
X59169084Y-24807545D01*
X59161143Y-24850479D01*
X56635881Y-24850479D01*
X56678838Y-24793737D01*
X56723567Y-24712930D01*
X59325381Y-24712930D01*
X59345604Y-24719193D01*
X59367795Y-24716457D01*
X59396193Y-24713394D01*
X59417163Y-24723390D01*
X59439771Y-24752069D01*
X59449486Y-24767146D01*
X59476363Y-24803861D01*
X59499524Y-24825551D01*
X59514141Y-24828439D01*
X59516802Y-24819787D01*
X59510065Y-24803879D01*
X59492507Y-24770006D01*
X59470930Y-24730872D01*
X59440625Y-24682282D01*
X59416934Y-24654359D01*
X59402142Y-24649241D01*
X59398249Y-24662804D01*
X59385690Y-24675850D01*
X59361202Y-24685315D01*
X59330046Y-24699117D01*
X59325381Y-24712930D01*
X56723567Y-24712930D01*
X56728388Y-24704220D01*
X56754484Y-24622860D01*
X56757748Y-24569422D01*
X56757199Y-24529243D01*
X56767556Y-24506516D01*
X56794367Y-24489544D01*
X56796008Y-24488748D01*
X56830632Y-24479556D01*
X56885569Y-24472972D01*
X56952423Y-24469128D01*
X57022799Y-24468152D01*
X57088301Y-24470173D01*
X57140534Y-24475321D01*
X57169780Y-24482996D01*
X57214182Y-24501273D01*
X57251936Y-24509013D01*
X57262313Y-24507303D01*
X59427888Y-24507303D01*
X59434225Y-24528626D01*
X59451320Y-24569661D01*
X59476302Y-24623806D01*
X59496655Y-24665396D01*
X59528073Y-24726733D01*
X59549892Y-24764754D01*
X59564895Y-24783067D01*
X59575866Y-24785283D01*
X59583499Y-24778046D01*
X59612408Y-24757593D01*
X59633284Y-24753325D01*
X59668739Y-24742128D01*
X59702137Y-24715239D01*
X59722356Y-24682711D01*
X59724270Y-24671084D01*
X59713330Y-24626975D01*
X59686160Y-24585185D01*
X59651238Y-24557705D01*
X59641713Y-24554327D01*
X59605337Y-24554448D01*
X59567525Y-24567363D01*
X59539491Y-24587861D01*
X59531622Y-24605475D01*
X59526388Y-24621529D01*
X59513104Y-24614046D01*
X59495394Y-24586732D01*
X59480542Y-24553267D01*
X59477993Y-24547778D01*
X59746318Y-24547778D01*
X59760364Y-24597288D01*
X59779282Y-24636452D01*
X59798594Y-24660638D01*
X59806941Y-24664410D01*
X59817547Y-24659593D01*
X59816918Y-24641134D01*
X59804509Y-24603025D01*
X59800414Y-24592115D01*
X59784109Y-24532041D01*
X59788323Y-24492257D01*
X59812921Y-24473350D01*
X59827732Y-24471762D01*
X59855360Y-24484242D01*
X59886176Y-24516134D01*
X59912917Y-24559114D01*
X59921452Y-24579200D01*
X59936243Y-24599939D01*
X59953208Y-24604501D01*
X59961376Y-24589968D01*
X59961377Y-24589822D01*
X59954745Y-24565475D01*
X59938117Y-24528398D01*
X59916392Y-24487522D01*
X59894470Y-24451778D01*
X59877251Y-24430097D01*
X59872212Y-24427304D01*
X59858064Y-24438589D01*
X59857643Y-24442123D01*
X59844758Y-24452500D01*
X59813683Y-24456940D01*
X59812867Y-24456942D01*
X59769918Y-24467640D01*
X59747509Y-24498522D01*
X59746318Y-24547778D01*
X59477993Y-24547778D01*
X59461220Y-24511656D01*
X59443799Y-24489102D01*
X59431621Y-24488521D01*
X59427888Y-24507303D01*
X57262313Y-24507303D01*
X57275258Y-24505170D01*
X57279113Y-24497668D01*
X57287147Y-24472617D01*
X57308475Y-24430352D01*
X57318409Y-24413151D01*
X59990908Y-24413151D01*
X59993154Y-24472592D01*
X59997716Y-24524242D01*
X60004466Y-24560927D01*
X60013276Y-24575475D01*
X60013640Y-24575496D01*
X60029213Y-24562156D01*
X60038183Y-24527895D01*
X60038238Y-24527333D01*
X60044951Y-24495740D01*
X60062871Y-24475919D01*
X60100335Y-24459343D01*
X60106951Y-24457024D01*
X60146926Y-24444436D01*
X60168541Y-24443075D01*
X60181042Y-24453377D01*
X60185488Y-24460729D01*
X60203963Y-24479048D01*
X60226415Y-24487016D01*
X60241126Y-24481590D01*
X60242254Y-24475466D01*
X60231953Y-24456679D01*
X60205796Y-24424524D01*
X60168980Y-24384197D01*
X60126703Y-24340894D01*
X60084163Y-24299810D01*
X60046558Y-24266143D01*
X60036723Y-24258606D01*
X60346322Y-24258606D01*
X60355417Y-24284388D01*
X60383632Y-24324247D01*
X60410075Y-24354739D01*
X60450038Y-24398811D01*
X60487176Y-24440587D01*
X60506411Y-24462786D01*
X60532488Y-24486850D01*
X60552775Y-24494331D01*
X60554955Y-24493488D01*
X60556162Y-24477443D01*
X60539082Y-24448350D01*
X60532298Y-24439878D01*
X60505919Y-24396963D01*
X60501344Y-24363189D01*
X60514619Y-24287750D01*
X60517476Y-24252354D01*
X60573008Y-24252354D01*
X60575488Y-24273460D01*
X60598347Y-24322895D01*
X60633670Y-24354448D01*
X60674756Y-24365051D01*
X60714908Y-24351639D01*
X60725912Y-24342332D01*
X60755148Y-24322036D01*
X60775133Y-24316398D01*
X60788463Y-24311750D01*
X60794010Y-24295479D01*
X60791395Y-24263579D01*
X60780240Y-24212043D01*
X60760166Y-24136864D01*
X60757158Y-24126130D01*
X60740457Y-24073243D01*
X60724629Y-24034273D01*
X60712407Y-24015627D01*
X60709743Y-24014987D01*
X60698725Y-24031293D01*
X60698881Y-24042007D01*
X60704260Y-24071463D01*
X60711891Y-24112498D01*
X60712338Y-24114882D01*
X60716682Y-24148048D01*
X60710756Y-24158995D01*
X60697137Y-24156050D01*
X60653911Y-24153279D01*
X60614048Y-24173006D01*
X60584698Y-24208330D01*
X60573008Y-24252354D01*
X60517476Y-24252354D01*
X60518637Y-24237964D01*
X60513417Y-24211332D01*
X60502450Y-24205017D01*
X60488320Y-24212858D01*
X60481456Y-24240107D01*
X60480046Y-24278238D01*
X60477489Y-24322268D01*
X60470973Y-24352721D01*
X60466328Y-24359938D01*
X60450709Y-24353930D01*
X60426089Y-24329203D01*
X60410756Y-24309262D01*
X60384352Y-24274828D01*
X60363952Y-24253340D01*
X60357788Y-24249791D01*
X60346322Y-24258606D01*
X60036723Y-24258606D01*
X60019084Y-24245088D01*
X60007654Y-24240940D01*
X59999352Y-24259814D01*
X59993878Y-24299589D01*
X59991107Y-24353093D01*
X59990908Y-24413151D01*
X57318409Y-24413151D01*
X57338933Y-24377611D01*
X57374358Y-24321132D01*
X57410586Y-24267653D01*
X57443453Y-24223910D01*
X57459948Y-24205017D01*
X57499643Y-24150685D01*
X57530945Y-24083529D01*
X57535046Y-24071098D01*
X57557012Y-24006999D01*
X57576620Y-23972235D01*
X60916225Y-23972235D01*
X60920163Y-24009541D01*
X60926934Y-24060845D01*
X60935412Y-24118545D01*
X60944472Y-24175041D01*
X60952987Y-24222733D01*
X60959833Y-24254019D01*
X60960791Y-24257291D01*
X60977140Y-24266940D01*
X61012981Y-24273875D01*
X61033765Y-24275482D01*
X61083045Y-24273735D01*
X61115788Y-24260691D01*
X61132985Y-24245437D01*
X61153943Y-24203846D01*
X61155921Y-24152409D01*
X61147566Y-24128337D01*
X61203867Y-24128337D01*
X61213735Y-24149908D01*
X61237039Y-24154483D01*
X61240611Y-24153552D01*
X61266696Y-24147481D01*
X61305364Y-24140131D01*
X61306213Y-24139984D01*
X61339577Y-24137050D01*
X61352776Y-24146328D01*
X61354375Y-24159116D01*
X61342244Y-24195037D01*
X61308895Y-24213668D01*
X61262363Y-24213039D01*
X61230850Y-24207736D01*
X61224923Y-24211066D01*
X61241164Y-24225560D01*
X61243232Y-24227208D01*
X61284771Y-24243174D01*
X61330887Y-24234652D01*
X61372357Y-24203380D01*
X61372899Y-24202743D01*
X61396122Y-24155537D01*
X61393802Y-24132744D01*
X61443542Y-24132744D01*
X61448005Y-24181413D01*
X61452253Y-24196310D01*
X61464849Y-24214734D01*
X61476044Y-24208422D01*
X61483272Y-24182255D01*
X61483962Y-24141114D01*
X61483606Y-24136740D01*
X61485158Y-24082087D01*
X61502503Y-24051874D01*
X61536623Y-24044866D01*
X61554241Y-24048044D01*
X61584048Y-24064777D01*
X61593739Y-24097861D01*
X61596613Y-24133350D01*
X61599439Y-24153150D01*
X61604074Y-24181559D01*
X61604591Y-24186493D01*
X61615643Y-24203756D01*
X61621120Y-24205017D01*
X61629627Y-24191894D01*
X61634542Y-24158962D01*
X61635179Y-24129499D01*
X61695216Y-24129499D01*
X61696699Y-24192684D01*
X61702007Y-24233189D01*
X61712428Y-24257864D01*
X61721149Y-24267473D01*
X61774933Y-24300412D01*
X61826855Y-24305277D01*
X61866485Y-24287734D01*
X61885811Y-24266685D01*
X61880883Y-24255236D01*
X61856704Y-24258272D01*
X61842802Y-24264618D01*
X61799887Y-24273303D01*
X61761795Y-24257352D01*
X61738158Y-24221377D01*
X61736277Y-24213637D01*
X61732479Y-24184031D01*
X61741440Y-24177519D01*
X61769350Y-24190221D01*
X61771666Y-24191458D01*
X61818116Y-24201724D01*
X61861040Y-24185793D01*
X61890735Y-24149113D01*
X61963364Y-24149113D01*
X61966627Y-24177457D01*
X61975845Y-24188869D01*
X61984189Y-24190198D01*
X61997355Y-24185588D01*
X62003823Y-24167586D01*
X62004281Y-24151675D01*
X62065694Y-24151675D01*
X62072462Y-24182216D01*
X62084218Y-24195203D01*
X62118570Y-24202650D01*
X62156706Y-24202763D01*
X62185148Y-24196051D01*
X62191063Y-24191158D01*
X62184353Y-24180565D01*
X62156584Y-24173114D01*
X62152327Y-24172634D01*
X62112398Y-24162518D01*
X62100424Y-24145099D01*
X62116754Y-24123855D01*
X62145894Y-24108283D01*
X62180786Y-24088761D01*
X62258343Y-24088761D01*
X62264731Y-24107354D01*
X62288765Y-24115236D01*
X62313914Y-24116329D01*
X62368912Y-24121281D01*
X62397535Y-24135149D01*
X62398807Y-24157281D01*
X62391477Y-24168256D01*
X62368407Y-24184320D01*
X62331700Y-24186681D01*
X62310925Y-24184223D01*
X62274479Y-24179631D01*
X62263218Y-24181798D01*
X62273118Y-24192451D01*
X62279699Y-24197626D01*
X62322567Y-24217685D01*
X62371749Y-24212991D01*
X62398427Y-24202638D01*
X62425902Y-24186773D01*
X62436172Y-24174853D01*
X62438834Y-24154030D01*
X62444828Y-24121133D01*
X62502291Y-24121133D01*
X62510508Y-24153781D01*
X62545253Y-24209914D01*
X62596567Y-24242078D01*
X62644377Y-24249475D01*
X62699856Y-24249475D01*
X62717349Y-24119807D01*
X62725529Y-24058916D01*
X62732317Y-24007935D01*
X62736628Y-23975011D01*
X62737403Y-23968834D01*
X62726309Y-23952163D01*
X62695423Y-23938566D01*
X62654589Y-23930693D01*
X62613651Y-23931193D01*
X62604293Y-23933000D01*
X62558918Y-23958044D01*
X62524402Y-24003376D01*
X62504330Y-24060554D01*
X62502291Y-24121133D01*
X62444828Y-24121133D01*
X62445126Y-24119498D01*
X62441823Y-24073733D01*
X62417160Y-24038181D01*
X62378746Y-24016777D01*
X62334184Y-24013457D01*
X62291083Y-24032155D01*
X62285443Y-24036894D01*
X62264129Y-24066688D01*
X62258343Y-24088761D01*
X62180786Y-24088761D01*
X62183252Y-24087381D01*
X62197981Y-24062220D01*
X62199066Y-24049500D01*
X62186563Y-24018614D01*
X62155452Y-24000974D01*
X62115330Y-24000721D01*
X62099070Y-24006342D01*
X62087084Y-24015057D01*
X62100301Y-24020800D01*
X62121266Y-24023698D01*
X62158048Y-24033779D01*
X62166934Y-24051115D01*
X62148057Y-24073323D01*
X62117561Y-24090889D01*
X62080081Y-24115086D01*
X62066180Y-24143434D01*
X62065694Y-24151675D01*
X62004281Y-24151675D01*
X62004908Y-24129932D01*
X62003637Y-24097578D01*
X61999079Y-24049585D01*
X61991775Y-24016112D01*
X61984189Y-24004959D01*
X61975835Y-24018454D01*
X61968721Y-24053649D01*
X61964741Y-24097578D01*
X61963364Y-24149113D01*
X61890735Y-24149113D01*
X61892616Y-24146790D01*
X61894617Y-24142295D01*
X61905117Y-24087568D01*
X61891764Y-24041885D01*
X61859943Y-24010185D01*
X61815040Y-23997408D01*
X61762440Y-24008491D01*
X61753518Y-24012890D01*
X61730220Y-24020663D01*
X61724854Y-24012015D01*
X61715806Y-24002679D01*
X61710035Y-24004959D01*
X61703014Y-24023161D01*
X61697790Y-24063111D01*
X61695303Y-24116932D01*
X61695216Y-24129499D01*
X61635179Y-24129499D01*
X61635473Y-24115876D01*
X61632030Y-24072293D01*
X61627431Y-24048895D01*
X61608101Y-24027514D01*
X61571064Y-24015312D01*
X61526950Y-24012782D01*
X61486391Y-24020419D01*
X61460015Y-24038717D01*
X61458620Y-24041053D01*
X61447301Y-24080569D01*
X61443542Y-24132744D01*
X61393802Y-24132744D01*
X61391081Y-24106016D01*
X61362459Y-24063562D01*
X61321647Y-24033465D01*
X61281498Y-24030058D01*
X61248831Y-24042975D01*
X61222019Y-24066738D01*
X61206830Y-24097903D01*
X61203867Y-24128337D01*
X61147566Y-24128337D01*
X61139086Y-24103905D01*
X61130991Y-24092551D01*
X61102354Y-24077044D01*
X61060658Y-24072216D01*
X61020636Y-24078454D01*
X61001927Y-24089181D01*
X60984064Y-24100059D01*
X60971419Y-24088390D01*
X60961897Y-24051230D01*
X60958423Y-24028050D01*
X60948193Y-23982544D01*
X60933777Y-23956611D01*
X60917973Y-23954993D01*
X60916246Y-23956527D01*
X60916225Y-23972235D01*
X57576620Y-23972235D01*
X57580107Y-23966052D01*
X57611517Y-23942394D01*
X57658429Y-23930166D01*
X57714869Y-23924454D01*
X57716686Y-23914715D01*
X57703755Y-23896353D01*
X57698398Y-23888097D01*
X61963751Y-23888097D01*
X61967413Y-23908557D01*
X61971437Y-23913171D01*
X61989909Y-23916168D01*
X62004887Y-23901148D01*
X62006417Y-23892941D01*
X61994401Y-23880565D01*
X61984189Y-23878996D01*
X61963751Y-23888097D01*
X57698398Y-23888097D01*
X57684527Y-23866718D01*
X57679230Y-23847235D01*
X57692043Y-23826204D01*
X57724482Y-23802267D01*
X57767550Y-23780202D01*
X57812247Y-23764783D01*
X57842766Y-23760443D01*
X57876947Y-23755057D01*
X57895356Y-23743603D01*
X57911595Y-23736340D01*
X57950657Y-23732543D01*
X58014803Y-23732115D01*
X58099993Y-23734695D01*
X58195141Y-23739895D01*
X58270286Y-23747610D01*
X58335042Y-23759288D01*
X58399025Y-23776376D01*
X58419497Y-23782770D01*
X58544771Y-23822914D01*
X58572787Y-23788316D01*
X58589683Y-23758397D01*
X58593823Y-23722126D01*
X58584367Y-23674549D01*
X58560473Y-23610713D01*
X58531967Y-23547908D01*
X58504674Y-23492275D01*
X58484585Y-23458479D01*
X58467097Y-23441171D01*
X58447608Y-23435004D01*
X58434330Y-23434422D01*
X58401997Y-23429527D01*
X58390872Y-23411616D01*
X58390548Y-23405305D01*
X58399101Y-23378234D01*
X58427369Y-23358564D01*
X58479266Y-23344210D01*
X58516511Y-23338206D01*
X58574611Y-23328758D01*
X58631808Y-23317277D01*
X58648536Y-23313309D01*
X58693687Y-23307265D01*
X58758652Y-23305511D01*
X58833892Y-23308249D01*
X58845941Y-23309094D01*
X58915255Y-23315354D01*
X58962603Y-23323038D01*
X58995654Y-23334137D01*
X59022075Y-23350641D01*
X59029683Y-23356800D01*
X59065164Y-23396847D01*
X59103418Y-23456109D01*
X59140058Y-23525638D01*
X59170698Y-23596487D01*
X59190951Y-23659710D01*
X59196705Y-23697458D01*
X59199784Y-23737558D01*
X59209253Y-23755940D01*
X59229252Y-23760437D01*
X59229991Y-23760439D01*
X59246952Y-23757254D01*
X59266371Y-23745346D01*
X59291834Y-23721197D01*
X59326931Y-23681286D01*
X59375248Y-23622092D01*
X59390656Y-23602813D01*
X59429229Y-23566688D01*
X59481691Y-23532487D01*
X59537017Y-23506236D01*
X59584185Y-23493963D01*
X59590234Y-23493699D01*
X59622450Y-23487933D01*
X59665379Y-23473650D01*
X59675605Y-23469416D01*
X59732542Y-23445233D01*
X59772777Y-23430135D01*
X59806623Y-23421018D01*
X59844393Y-23414776D01*
X59866441Y-23411951D01*
X59926711Y-23410065D01*
X60002876Y-23415386D01*
X60082455Y-23426558D01*
X60152968Y-23442225D01*
X60157730Y-23443599D01*
X60179976Y-23461825D01*
X60179336Y-23493249D01*
X60156355Y-23532923D01*
X60146616Y-23544165D01*
X60118954Y-23575523D01*
X60112961Y-23589357D01*
X60129376Y-23589127D01*
X60154770Y-23582400D01*
X60188441Y-23566303D01*
X60234120Y-23536278D01*
X60279082Y-23501108D01*
X60583780Y-23501108D01*
X60591190Y-23508518D01*
X60598599Y-23501108D01*
X60591190Y-23493699D01*
X60583780Y-23501108D01*
X60279082Y-23501108D01*
X60282199Y-23498670D01*
X60284438Y-23496752D01*
X60361302Y-23434154D01*
X60439691Y-23376572D01*
X60514778Y-23327021D01*
X60581734Y-23288518D01*
X60635731Y-23264076D01*
X60668995Y-23256592D01*
X60699759Y-23249691D01*
X60710484Y-23242800D01*
X60732691Y-23233010D01*
X60772807Y-23224016D01*
X60794953Y-23220874D01*
X60839150Y-23218688D01*
X60860992Y-23225973D01*
X60860001Y-23244351D01*
X60835698Y-23275447D01*
X60787606Y-23320886D01*
X60757905Y-23346589D01*
X60695392Y-23399967D01*
X60654465Y-23436088D01*
X60634103Y-23456862D01*
X60633287Y-23464199D01*
X60650995Y-23460008D01*
X60686207Y-23446199D01*
X60709932Y-23436337D01*
X60819198Y-23395602D01*
X60915621Y-23371265D01*
X61009345Y-23361014D01*
X61043386Y-23360326D01*
X61092975Y-23361413D01*
X61119744Y-23366184D01*
X61130478Y-23376907D01*
X61132088Y-23389965D01*
X61134339Y-23414088D01*
X61137438Y-23419603D01*
X61151904Y-23412987D01*
X61186401Y-23395209D01*
X61234980Y-23369368D01*
X61267105Y-23351996D01*
X61377429Y-23293490D01*
X61469312Y-23248440D01*
X61549106Y-23214059D01*
X61623162Y-23187562D01*
X61680396Y-23170747D01*
X61776446Y-23146945D01*
X61847051Y-23134357D01*
X61894131Y-23132813D01*
X61919605Y-23142141D01*
G37*
%TD*%
M02*
