%TF.GenerationSoftware,KiCad,Pcbnew,9.0.7*%
%TF.CreationDate,2026-03-30T15:25:08-07:00*%
%TF.ProjectId,MEOW_System_Integration,4d454f57-5f53-4797-9374-656d5f496e74,rev?*%
%TF.SameCoordinates,Original*%
%TF.FileFunction,Soldermask,Bot*%
%TF.FilePolarity,Negative*%
%FSLAX46Y46*%
G04 Gerber Fmt 4.6, Leading zero omitted, Abs format (unit mm)*
G04 Created by KiCad (PCBNEW 9.0.7) date 2026-03-30 15:25:08*
%MOMM*%
%LPD*%
G01*
G04 APERTURE LIST*
G04 Aperture macros list*
%AMRoundRect*
0 Rectangle with rounded corners*
0 $1 Rounding radius*
0 $2 $3 $4 $5 $6 $7 $8 $9 X,Y pos of 4 corners*
0 Add a 4 corners polygon primitive as box body*
4,1,4,$2,$3,$4,$5,$6,$7,$8,$9,$2,$3,0*
0 Add four circle primitives for the rounded corners*
1,1,$1+$1,$2,$3*
1,1,$1+$1,$4,$5*
1,1,$1+$1,$6,$7*
1,1,$1+$1,$8,$9*
0 Add four rect primitives between the rounded corners*
20,1,$1+$1,$2,$3,$4,$5,0*
20,1,$1+$1,$4,$5,$6,$7,0*
20,1,$1+$1,$6,$7,$8,$9,0*
20,1,$1+$1,$8,$9,$2,$3,0*%
G04 Aperture macros list end*
%ADD10C,3.000000*%
%ADD11RoundRect,0.250001X0.799999X0.799999X-0.799999X0.799999X-0.799999X-0.799999X0.799999X-0.799999X0*%
%ADD12C,2.100000*%
%ADD13C,1.700000*%
%ADD14R,1.700000X1.700000*%
%ADD15O,1.900000X1.524000*%
%ADD16RoundRect,0.250000X-0.750000X0.600000X-0.750000X-0.600000X0.750000X-0.600000X0.750000X0.600000X0*%
%ADD17O,2.000000X1.700000*%
%ADD18C,2.304000*%
%ADD19RoundRect,0.102000X1.050000X-1.050000X1.050000X1.050000X-1.050000X1.050000X-1.050000X-1.050000X0*%
%ADD20C,2.083600*%
%ADD21R,1.600000X1.600000*%
%ADD22O,1.600000X1.600000*%
G04 APERTURE END LIST*
D10*
%TO.C,H4*%
X21700000Y-25400000D03*
%TD*%
%TO.C,H2*%
X151000000Y-113000000D03*
%TD*%
%TO.C,H3*%
X151000000Y-25400000D03*
%TD*%
%TO.C,H1*%
X21700000Y-113000000D03*
%TD*%
D11*
%TO.C,- 5v +*%
X40000000Y-30200000D03*
D12*
X37460000Y-30200000D03*
%TD*%
D13*
%TO.C,J10*%
X108180000Y-108680000D03*
X108180000Y-106140000D03*
X108180000Y-103600000D03*
X108180000Y-101060000D03*
X108180000Y-98520000D03*
X108180000Y-95980000D03*
X108180000Y-93440000D03*
X108180000Y-90900000D03*
X108180000Y-88360000D03*
X108180000Y-85820000D03*
X108180000Y-83280000D03*
X108180000Y-80740000D03*
X108180000Y-78200000D03*
X108180000Y-75660000D03*
X108180000Y-73120000D03*
X108180000Y-70580000D03*
X108180000Y-68040000D03*
X108180000Y-65500000D03*
D14*
X108180000Y-62960000D03*
%TD*%
D13*
%TO.C,J8*%
X73180000Y-108680000D03*
X73180000Y-106140000D03*
X73180000Y-103600000D03*
X73180000Y-101060000D03*
X73180000Y-98520000D03*
X73180000Y-95980000D03*
X73180000Y-93440000D03*
X73180000Y-90900000D03*
X73180000Y-88360000D03*
X73180000Y-85820000D03*
X73180000Y-83280000D03*
X73180000Y-80740000D03*
X73180000Y-78200000D03*
X73180000Y-75660000D03*
X73180000Y-73120000D03*
X73180000Y-70580000D03*
X73180000Y-68040000D03*
X73180000Y-65500000D03*
D14*
X73180000Y-62960000D03*
%TD*%
D15*
%TO.C,MCU1*%
X79250000Y-108760000D03*
X79250000Y-106220000D03*
X79250000Y-103680000D03*
X79250000Y-101140000D03*
X79250000Y-98600000D03*
X79250000Y-96060000D03*
X79250000Y-93520000D03*
X79250000Y-90980000D03*
X79250000Y-88440000D03*
X79250000Y-85900000D03*
X79250000Y-83360000D03*
X79250000Y-80820000D03*
X79250000Y-78280000D03*
X79250000Y-75740000D03*
X79250000Y-73200000D03*
X79250000Y-70660000D03*
X79250000Y-68120000D03*
X79250000Y-65580000D03*
X79250000Y-63040000D03*
X102110000Y-108760000D03*
X102110000Y-106220000D03*
X102110000Y-103680000D03*
X102110000Y-101140000D03*
X102110000Y-98600000D03*
X102110000Y-96060000D03*
X102110000Y-93520000D03*
X102110000Y-90980000D03*
X102110000Y-88440000D03*
X102110000Y-85900000D03*
X102110000Y-83360000D03*
X102110000Y-80820000D03*
X102110000Y-78280000D03*
X102110000Y-75740000D03*
X102110000Y-73200000D03*
X102110000Y-70660000D03*
X102110000Y-68120000D03*
X102110000Y-65580000D03*
X102110000Y-63040000D03*
%TD*%
D16*
%TO.C,JP2*%
X39150000Y-51960000D03*
D17*
X39150000Y-54460000D03*
%TD*%
D16*
%TO.C,JP1*%
X30650000Y-51960000D03*
D17*
X30650000Y-54460000D03*
%TD*%
D12*
%TO.C,- 12v +*%
X29620000Y-30200000D03*
D11*
X32160000Y-30200000D03*
%TD*%
D12*
%TO.C,- 3.3v +*%
X45530000Y-30232500D03*
D11*
X48070000Y-30232500D03*
%TD*%
D18*
%TO.C,RDM1*%
X138840000Y-108540000D03*
D19*
X138840000Y-106000000D03*
X138840000Y-75520000D03*
D18*
X138840000Y-78060000D03*
X138840000Y-80600000D03*
X123600000Y-85680000D03*
X123600000Y-83140000D03*
X123600000Y-80600000D03*
X123600000Y-78060000D03*
D19*
X123600000Y-75520000D03*
%TD*%
D20*
%TO.C,S2*%
X34630000Y-106100000D03*
X34630000Y-103560000D03*
X34630000Y-101020000D03*
X34630000Y-98480000D03*
X34630000Y-95940000D03*
X62570000Y-95940000D03*
X62570000Y-98480000D03*
X62570000Y-101020000D03*
X62570000Y-103560000D03*
X62570000Y-106100000D03*
X54950000Y-103560000D03*
X54950000Y-106100000D03*
%TD*%
%TO.C,S1*%
X34480000Y-80140000D03*
X34480000Y-77600000D03*
X34480000Y-75060000D03*
X34480000Y-72520000D03*
X34480000Y-69980000D03*
X62420000Y-69980000D03*
X62420000Y-72520000D03*
X62420000Y-75060000D03*
X62420000Y-77600000D03*
X62420000Y-80140000D03*
X54800000Y-77600000D03*
X54800000Y-80140000D03*
%TD*%
D14*
%TO.C,J15*%
X146220000Y-108530000D03*
D13*
X146220000Y-105990000D03*
%TD*%
D14*
%TO.C,J12*%
X119220000Y-67490000D03*
D13*
X119220000Y-70030000D03*
%TD*%
D14*
%TO.C,J11*%
X25450000Y-95940000D03*
D13*
X25450000Y-98480000D03*
X25450000Y-101020000D03*
X25450000Y-103560000D03*
%TD*%
D14*
%TO.C,J9*%
X146225000Y-57200000D03*
D13*
X146225000Y-59740000D03*
X146225000Y-62280000D03*
X146225000Y-64820000D03*
%TD*%
D14*
%TO.C,J1*%
X26450000Y-69980000D03*
D13*
X26450000Y-72520000D03*
X26450000Y-75060000D03*
X26450000Y-77600000D03*
%TD*%
D21*
%TO.C,A1*%
X136060000Y-69920000D03*
D22*
X136060000Y-67380000D03*
X136060000Y-64840000D03*
X136060000Y-62300000D03*
X136060000Y-59760000D03*
X136060000Y-57220000D03*
X136060000Y-54680000D03*
X136060000Y-52140000D03*
X123360000Y-52140000D03*
X123360000Y-54680000D03*
X123360000Y-57220000D03*
X123360000Y-59760000D03*
X123360000Y-62300000D03*
X123360000Y-64840000D03*
X123360000Y-67380000D03*
X123360000Y-69920000D03*
%TD*%
M02*
